<svg width="1366" height="768" viewBox="0 0 1366 768" fill="none" xmlns="http://www.w3.org/2000/svg">
<g clip-path="url(#clip0_34_174)">
<rect width="1366" height="768" fill="white"/>
<g filter="url(#filter0_f_34_174)">
<path d="M2666 227.736C2666 709.604 794.42 1300 303.995 1300C-186.431 1300 -584 909.369 -584 427.5C-584 -54.3684 -186.431 -445 303.995 -445C794.42 -445 2666 -254.133 2666 227.736Z" fill="#300000"/>
</g>
<g filter="url(#filter1_f_34_174)">
<mask id="mask0_34_174" style="mask-type:luminance" maskUnits="userSpaceOnUse" x="0" y="0" width="1367" height="911">
<path d="M0 910.887L1366.33 910.887V0.000183105L0 0.000183105V910.887Z" fill="white"/>
</mask>
<g mask="url(#mask0_34_174)">
<g filter="url(#filter2_d_34_174)">
<path d="M272.865 143.592C327.445 71.1947 394.159 84.0018 451.545 11.3494C458.194 3.00572 464.224 -5.79344 469.89 -14.8477L470.91 -14.2282C428.171 58.5516 384.358 61.4482 320.705 101.309C302.888 113.004 287.166 127.688 273.794 144.339L272.847 143.61L272.865 143.592Z" fill="#630000"/>
<path d="M169.297 434.766C172.923 481.877 189.847 523.596 245.356 512.865C251.441 511.955 257.507 510.843 263.556 509.677C278.312 509.768 293.087 509.167 307.661 506.963C336.846 502.481 364.591 491.806 391.827 480.729C434.93 464.115 470.181 443.019 500.714 407.84C549.847 352.221 577.393 282.138 614.247 218.54C636.017 180.574 659.045 140.677 661.613 96.0073C665.33 33.3201 619.202 -23.3916 552.963 -8.50776C508.566 0.601102 476.685 35.0508 442.181 61.7945C407.148 89.03 363.28 102.548 329.559 131.678C307.242 150.916 288.623 173.997 269.877 196.751C214.058 263.264 162.211 344.424 169.297 434.784V434.766ZM168.095 434.857C160.826 344.133 212.692 262.536 268.639 195.713C296.348 161.427 325.478 126.376 365.101 105.317C390.643 90.5785 418.06 78.992 441.397 60.7196C464.825 42.8298 486.031 21.7883 511.645 6.83156C536.895 -8.08876 567.883 -16.6875 596.849 -8.76281C641.173 3.58881 665.439 52.2666 662.488 96.0256C658.881 156.29 620.223 205.751 594.08 257.945C560.086 322.836 528.041 392.392 470.054 439.74C447.063 458.577 419.919 471.42 392.483 482.278C365.12 493.354 337.247 504.03 307.898 508.475C293.451 510.698 277.747 511.262 263.756 511.117C257.708 512.264 251.66 513.376 245.557 514.268C189.391 524.962 171.629 483.025 168.077 434.839L168.095 434.857Z" fill="#630000"/>
<path d="M505.378 377.289C532.176 339.032 552.016 296.585 574.241 255.613C590.892 225.007 610.239 195.33 620.095 161.646C625.907 142.317 628.056 121.476 624.012 101.6C619.002 76.2229 603.244 52.303 579.634 40.8077C558.574 30.6422 533.543 32.7554 512.192 41.0627C479.163 53.7787 454.715 80.2126 426.532 100.689C397.966 121.184 364.245 132.807 336.354 154.213C317.808 168.35 302.378 186.112 287.385 203.875C250.093 248.217 213.421 295.401 196.077 351.475C185.602 384.667 182.651 420.666 190.485 454.715C194.383 471.311 202.836 488.417 218.959 495.814C235.173 503.265 253.39 498.802 270.224 496.032C281.61 496.142 293.032 495.759 304.327 494.411C326.99 491.733 348.833 484.555 370.093 476.43C431.232 454.059 467.212 431.159 505.396 377.271L505.378 377.289ZM506.362 377.982C480.365 415.729 445.132 447.519 402.393 464.935C381.334 473.861 360.128 482.551 338.139 489C316.169 495.632 293.105 498.127 270.187 497.745C259.566 499.548 246.941 502.263 235.428 501.552C194.529 499.312 185.584 453.64 184.71 420.283C182.706 323.857 249.237 245.211 309.938 177.149C325.788 159.897 344.716 145.742 365.229 134.538C385.524 123.024 407.021 113.551 425.84 99.7785C444.677 86.097 461.528 69.7557 480.857 56.5114C508.985 36.5812 547.388 23.8105 580.326 39.3685C607.288 52.3759 623.812 80.832 627.218 109.944C629.077 127.469 626.836 145.359 621.735 162.138C611.77 195.95 592.331 225.699 575.571 256.342C553.254 297.277 533.288 339.742 506.362 377.982Z" fill="#630000"/>
<path d="M484.683 378.747C514.25 337.01 534.891 289.771 560.742 245.721C579.032 213.056 596.867 175.71 589.052 137.453C584.625 115.227 570.707 94.3677 550.011 84.3844C521.592 71.0308 488.508 81.925 464.042 98.8857C447.081 110.254 432.179 124.409 415.437 136.287C398.677 148.238 379.785 156.472 361.986 166.455C344.005 176.184 327.409 188.317 313.399 203.273C260.094 262.372 201.889 331.308 203.383 415.382C204.476 439.412 208.156 469.635 231.911 481.731C246.012 488.454 262.025 484.847 276.8 482.551C286.838 482.679 296.894 482.314 306.859 481.148C326.826 478.817 346.118 472.586 364.865 465.499C418.516 446.116 450.889 425.675 484.683 378.765V378.747ZM485.648 379.439C462.439 412.522 431.141 440.304 393.448 455.571C374.848 463.404 356.138 470.983 336.718 476.594C327.008 479.345 317.098 481.567 307.041 482.733C296.985 483.936 286.874 484.3 276.764 484.191C272.628 484.865 266.507 485.994 261.716 486.486C231.055 491.423 212.309 475.337 205.641 445.952C189.428 373.627 228.104 303.434 272.81 249.237C292.485 225.79 311.122 200.832 335.607 182.104C360.091 163.431 389.732 152.992 414.763 135.321C447.026 111.656 477.65 77.9353 520.535 76.9333C559.667 75.2391 587.777 107.721 592.131 144.703C596.157 181.175 579.506 215.589 562.126 246.468C536.166 290.518 515.452 337.593 485.666 379.421L485.648 379.439Z" fill="#630000"/>
<path d="M463.969 380.204C484.646 351.784 500.314 320.177 517.183 289.334C525.582 273.867 534.836 258.892 542.141 242.97C551.269 223.222 557.809 201.579 555.204 179.718C552.562 158.294 540.283 137.38 520.371 127.961C495.959 116.63 467.613 125.83 446.444 140.167C431.778 149.768 418.826 161.792 404.324 171.848C389.768 181.922 373.555 188.973 358.233 197.535C350.564 201.78 343.04 206.316 335.971 211.508C314.766 227.248 298.57 248.526 281.701 268.621C248.891 308.791 219.596 357.013 220.617 410.537C221.054 435.021 227.685 468.451 257.198 471.038C265.888 471.821 274.723 470.273 283.34 469.016C309.556 469.963 335.297 463.987 359.618 454.514C405.727 438.155 434.584 420.119 463.951 380.204H463.969ZM464.935 380.915C435.549 421.085 406.419 439.448 360.164 455.935C335.716 465.518 309.72 471.584 283.322 470.692C266.234 473.661 246.613 476.175 233.569 460.818C221.837 446.972 219.906 427.989 219.232 410.573C218.704 337.957 269.44 279.15 315.64 228.286C327.773 215.461 342.275 205.095 357.742 196.679C373.081 188.043 389.258 180.939 403.65 170.919C425.074 155.853 444.075 136.141 469.107 126.741C495.103 116.63 523.76 120.255 541.795 143.027C565.679 172.504 558.92 211.927 543.635 243.68C536.221 259.712 526.93 274.705 518.513 290.081C501.571 320.814 485.776 352.44 464.935 380.915Z" fill="#630000"/>
<path d="M443.274 381.661C460.945 358.179 474.481 331.963 488.654 306.222C495.704 293.305 503.41 280.753 509.441 267.4C521.792 241.385 527.166 208.757 507.601 184.873C493.026 166.528 469.38 163.577 448.302 171.556C427.388 179.171 411.411 195.094 393.193 207.427C368.453 223.222 339.578 232.64 319.102 254.465C280.225 296.329 237.851 345.463 237.869 405.727C238.342 423.088 241.184 444.33 257.854 453.512C267.655 458.722 279.205 456.882 289.771 455.498C297.131 455.607 304.546 455.352 311.869 454.532C333.822 452 354.59 443.747 374.975 435.549C402.484 424.673 425.639 405.235 443.256 381.661H443.274ZM444.221 382.39C426.586 406.164 403.195 425.894 375.558 436.898C355.082 445.205 334.186 453.549 312.07 456.154C304.91 457.01 296.676 457.301 290.026 457.156C279.132 458.65 267.218 460.453 257.089 454.951C239.836 445.387 236.885 423.599 236.502 405.727C236.721 345.007 279.551 296.111 318.519 253.864C338.868 231.984 367.98 222.256 392.556 206.461C410.646 194.11 426.823 177.914 447.81 170.226C469.453 161.937 493.81 164.943 508.912 183.799C539.937 223.003 510.862 270.606 489.966 306.95C475.719 332.619 462.038 358.853 444.203 382.39H444.221Z" fill="#630000"/>
<path d="M422.579 383.119C437.189 364.537 448.63 343.75 460.125 323.092C471.384 302.761 484.756 281.883 485.466 258.036C486.085 240.729 477.305 222.475 461.073 215.17C444.64 207.846 425.748 213.658 411.211 222.785C401.136 228.888 392.1 236.594 382.08 243.025C366.923 252.388 350.218 258.674 335.607 268.912C320.978 279.023 309.72 293.032 298.206 306.422C290.609 315.477 283.413 324.877 277.073 334.842C264.503 354.59 255.121 377.326 255.139 401.009C254.994 417.532 259.858 439.266 278.932 442.363C284.67 443.274 290.646 442.691 296.421 442.035C308.408 442.345 320.432 441.088 332.018 437.991C354.845 431.323 378.237 423.362 397.201 408.587C406.62 401.173 415.091 392.556 422.542 383.174L422.579 383.119ZM423.526 383.866C408.678 402.958 389.258 418.698 366.65 427.552C349.871 434.238 332.71 440.796 314.62 442.873C308.772 443.547 301.995 443.802 296.603 443.656C290.664 444.331 284.652 444.968 278.677 443.966C258.728 440.596 253.518 418.261 253.791 400.954C254.739 352.131 289.625 313.126 321.415 279.496C338.212 262.354 361.44 254.283 381.461 242.004C391.353 235.61 400.371 227.849 410.518 221.619C425.402 212.164 444.804 206.207 461.747 213.676C478.634 221.181 487.998 240.073 487.251 258.054C486.432 282.338 472.914 303.343 461.455 323.82C449.869 344.406 438.3 365.229 423.526 383.848V383.866Z" fill="#630000"/>
<path d="M401.901 384.558C412.777 371.66 421.686 357.25 430.084 342.621C438.227 328.083 447.591 313.418 449.905 296.657C453.803 267.819 430.758 248.308 403.14 259.457C391.298 263.938 381.443 272.355 370.567 278.731C359.527 284.962 347.685 289.735 337.028 296.585C326.225 303.27 317.571 312.689 309.246 322.162C287.767 346.355 265.596 378.546 274.486 412.376C276.764 420.119 282.903 426.805 291.01 428.189C294.945 428.882 299.062 428.754 303.052 428.426C312.325 428.7 321.652 427.77 330.67 425.493C348.469 420.666 366.595 414.581 381.607 403.559C389.076 398.039 395.871 391.59 401.919 384.522L401.901 384.558ZM402.812 385.341C396.746 392.501 389.914 399.041 382.39 404.67C367.233 415.911 349.088 422.123 331.034 427.078C321.907 429.41 312.452 430.394 303.034 430.157C295.437 430.995 285.381 430.448 279.624 423.927C273.302 418.097 271.426 408.569 271.116 400.171C270.296 374.229 284.488 350.655 300.374 331.289C311.432 318.555 322.162 304.983 336.536 295.819C347.193 288.86 358.998 284.033 370.002 277.747C380.896 271.244 390.624 262.809 402.648 258.163C419.372 251.222 438.719 254.83 447.682 271.754C460.271 296.22 443.474 322.326 431.396 343.404C422.888 358.015 413.87 372.461 402.83 385.378L402.812 385.341Z" fill="#630000"/>
<path d="M381.224 385.997C389.149 377.744 395.944 368.453 401.901 358.689C407.695 349.015 413.688 338.85 415.018 327.5C417.277 307.861 401.081 296.056 382.718 302.469C372.079 306.021 362.351 313.29 351.948 317.681C346.756 320.158 341.601 322.654 336.682 325.569C326.68 331.216 318.774 339.779 311.177 348.305C303.689 356.94 296.931 366.413 292.886 377.089C288.132 389.185 286.874 408.296 301.339 413.888C303.963 414.763 306.859 414.963 309.701 414.909C316.223 415.127 322.873 414.508 329.304 413.105C348.651 408.915 367.506 400.571 381.224 385.961V385.997ZM382.08 386.835C368.253 401.737 349.234 410.336 329.631 414.69C323.073 416.147 316.369 416.84 309.592 416.639C307.042 416.712 303.58 416.457 300.811 415.455C285.599 409.589 286.528 389.513 291.812 376.688C296.038 365.848 302.961 356.375 310.576 347.758C318.337 339.287 326.17 330.561 336.226 324.749C343.368 320.395 351.748 316.642 359.217 312.889C366.887 308.863 373.955 303.853 382.299 301.102C401.592 294.107 419.409 306.786 416.767 327.682C415.31 339.378 409.188 349.635 403.195 359.454C397.11 369.237 390.169 378.546 382.099 386.817L382.08 386.835Z" fill="#630000"/>
<path d="M308.554 395.78C312.27 404.707 323.474 401.209 330.87 400.225C347.412 396.818 363.043 387.928 373.718 374.757C387.455 357.577 380.095 339.086 356.739 346.301C340.598 351.402 325.168 360.019 314.31 373.226C309.392 379.329 303.726 388.147 308.535 395.78H308.554ZM307.497 396.345C302.287 388.402 308.025 378.692 313.126 372.261C323.875 358.507 339.924 350.017 356.484 345.317C380.659 338.449 388.511 357.268 374.72 375.504C364.154 389.258 348.214 398.731 331.18 401.792C323.219 402.83 311.304 405.927 307.497 396.345Z" fill="#630000"/>
<path d="M-219.524 162.739C-222.639 209.722 -219.688 257.507 -221.473 304.619C-222.985 328.283 -226.72 351.802 -233.059 374.648C-244.263 412.468 -261.989 448.029 -273.594 485.721C-281.008 508.165 -285.636 531.411 -286.474 555.04C-288.569 593.752 -278.239 635.525 -248.599 662.214C-190.175 713.971 -94.5864 715.246 -25.8691 684.258C47.2568 659.773 103.568 595.301 120.437 520.335C136.378 456.828 129.656 390.369 142.572 326.371C147.363 299.827 158.676 274.887 173.815 252.643C182.596 240.037 191.997 227.922 201.397 215.807C224.843 185.711 248.745 154.978 261.661 118.67C281.373 65.3651 274.924 12.4061 239.49 -32.6828C162.265 -131.642 7.1232 -142.135 -92.3456 -71.1222C-168.605 -18.7644 -213.985 71.2494 -219.524 162.739ZM-220.726 162.666C-215.279 70.7757 -169.771 -19.6935 -93.2201 -72.361C6.84995 -143.975 163.085 -133.5 240.602 -33.5572C276.199 12.0053 282.685 65.274 262.7 119.053C249.692 155.452 225.681 186.276 202.126 216.39C175.127 250.366 151.043 282.684 143.283 326.516C130.421 390.533 137.289 456.992 121.403 520.572C104.57 595.92 48.0038 660.83 -25.4319 685.533C-82.836 711.238 -151.59 714.208 -209.941 689.049C-231.711 679.612 -251.733 665.129 -265.56 645.655C-283.85 619.457 -289.753 586.392 -288.204 554.948C-287.33 531.211 -282.63 507.71 -275.161 485.211C-263.519 447.518 -245.757 412.012 -234.499 374.229C-228.177 351.493 -224.406 328.047 -222.876 304.509C-220.999 257.38 -223.914 209.704 -220.726 162.63V162.666Z" fill="#630000"/>
<path d="M-22.9908 648.606C35.9435 627.145 82.8907 576.974 100.999 517.019C120.292 456.864 113.187 392.665 124.427 331.089C131.459 286.055 154.213 255.668 181.667 221.017C194.492 204.567 207.354 188.08 217.811 170.081C238.561 134.501 250.439 91.2525 239.563 50.5541C228.742 10.0926 199.211 -23.3188 164.233 -45.3076C128.818 -67.26 86.6435 -77.7352 45.1253 -77.2068C-40.7713 -75.6766 -115.956 -24.4301 -157.347 49.5157C-189.774 106.501 -196.569 166.382 -195.221 230.764C-195.294 262.044 -193.6 293.524 -197.134 324.713C-202.199 377.253 -228.414 424.109 -242.678 474.226C-262.572 540.557 -256.488 616.561 -188.135 651.12C-137.052 677.59 -73.4904 675.477 -22.9726 648.606H-22.9908ZM-22.499 649.699C-77.7169 679.193 -149.477 679.266 -202.344 644.379C-259.657 606.76 -262.335 533.78 -244.282 473.77C-233.096 433.527 -213.712 395.908 -204.002 355.3C-199.338 335.006 -196.843 314.219 -196.624 293.378C-195.349 204.257 -204.658 130.894 -158.203 49.0421C-127.142 -5.88441 -77.3343 -49.4066 -16.6146 -68.0433C62.8147 -93.2567 158.494 -70.8124 211.909 -5.08282C256.396 48.5137 253.117 112.768 219.196 170.882C198.264 207.136 167.858 236.903 146.871 272.993C136.341 291.028 129.674 310.849 126.14 331.417C114.845 392.956 121.858 457.283 102.42 517.475C84.1477 577.721 36.7269 628.257 -22.499 649.717V649.699Z" fill="#630000"/>
<path d="M-20.1124 612.881C31.7352 592.368 72.1968 546.969 87.5726 493.518C106.136 433.254 95.6066 368.472 113.223 307.934C121.494 278.622 141.096 254.21 159.369 230.509C182.195 201.652 204.184 170.536 211.726 133.9C214.131 122.696 215.279 111.001 214.514 99.5417L214.368 96.0803C214.04 93.0562 213.311 88.6657 212.965 85.8055C209.103 65.4017 199.757 46.1637 187.041 29.8406C141.115 -29.2577 56.5842 -50.8275 -13.6452 -27.7821C-85.2226 -5.59287 -138.2 58.151 -158.239 129.018C-177.441 191.906 -164.725 258.218 -170.974 322.581C-176.475 378.455 -206.899 427.916 -215.68 483.043C-224.443 528.515 -214.314 578.796 -176.257 608.345C-132.042 642.958 -66.8045 642.813 -20.1489 612.881H-20.1124ZM-19.5659 613.938C-66.513 644.179 -132.498 644.379 -177.113 609.474C-215.625 579.688 -226.064 528.77 -217.247 482.788C-208.611 427.625 -178.17 378.164 -172.467 322.417C-166.109 258.054 -178.607 191.614 -159.26 128.726C-139.02 57.5498 -85.6416 -6.12118 -13.882 -28.5654C56.6753 -51.8659 141.752 -30.2779 188.025 29.0937C212.073 60.0456 221.564 95.6431 213.147 134.21C205.624 171.083 183.544 202.545 160.699 231.547C142.517 255.267 123.225 279.332 114.899 308.444C97.2826 368.745 107.703 433.691 88.9936 493.937C73.4721 547.643 32.5186 593.461 -19.5659 613.938Z" fill="#630000"/>
<path d="M-17.2342 577.156C19.9482 560.796 49.971 529.972 66.1119 492.808C75.7491 470.454 80.2671 446.334 82.6718 422.196C86.4793 384.03 85.2952 344.643 96.6631 307.46C109.507 266.051 144.138 236.848 165.089 199.921C181.175 172.23 190.776 138.946 183.379 107.12C172.23 59.3895 130.402 23.0087 84.2021 9.87373C37.419 -4.04462 -14.957 5.55612 -54.6717 33.6661C-94.6231 61.6303 -122.332 105.098 -134.903 151.899C-153.084 215.097 -134.939 281.828 -148.693 345.572C-159.879 392.811 -182.323 437.517 -184.619 486.632C-185.184 518.476 -174.344 552.197 -150.971 574.496C-115.045 608.745 -55.4186 607.087 -17.2342 577.138V577.156ZM-16.6148 578.176C-71.9603 620.678 -154.796 603.717 -178.079 534.617C-190.521 502.591 -186.55 470.855 -178.461 438.409C-170.536 406.911 -157.547 376.852 -150.224 345.262C-142.882 313.509 -144.558 280.79 -144.922 248.435C-145.268 216.026 -144.831 183.07 -135.923 151.644C-125.284 112.44 -104.206 75.7855 -74.11 48.3132C-56.1655 31.7897 -34.7961 18.9097 -11.6596 11.149C57.5314 -13.445 144.138 16.2135 176.602 83.8013C195.64 121.84 187.278 165.253 166.492 200.741C145.651 237.687 111.31 266.835 98.3755 308.025C82.3621 360.674 90.9791 417.459 75.6216 470.382C62.8509 517.602 28.3465 558.665 -16.5784 578.212L-16.6148 578.176Z" fill="#630000"/>
<path d="M-14.3557 541.449C10.6391 528.861 31.2616 508.894 45.1799 484.738C59.3715 460.635 64.8733 432.671 67.3873 405.108C70.5936 370.64 69.792 334.678 82.0526 301.631C95.06 268.839 122.095 244.518 139.165 214.131C161.136 176.512 164.961 133.226 138.509 96.6634C96.1349 36.4355 10.803 27.3995 -46.4371 71.9419C-91.0341 106.009 -115.391 161.901 -117.413 217.283C-118.853 245.174 -116.703 273.029 -117.158 300.957C-117.468 329.049 -124.755 356.412 -133.135 383.01C-136.724 394.214 -141.133 411.848 -144.357 423.271C-146.416 433.09 -148.547 444.167 -150.041 454.041C-152.246 471.293 -149.24 488.727 -144.54 505.396C-137.453 532.832 -120.073 556.771 -91.2345 563.256C-64.0172 569.486 -34.5227 560.451 -14.3374 541.449H-14.3557ZM-13.6634 542.433C-44.2692 571.618 -97.9386 577.047 -127.215 543.18C-144.157 523.815 -152.191 489.784 -152.355 464.37C-152.3 453.822 -149.823 443.511 -148.092 433.163L-145.979 422.888L-140.513 402.667C-139.202 397.584 -136.342 387.528 -134.793 382.518C-126.376 355.975 -119.053 328.94 -118.634 300.902C-118.087 273.048 -120.164 245.083 -118.634 217.21C-116.448 161.573 -91.8175 105.444 -46.9107 71.3407C-13.6452 45.5991 31.717 35.9619 72.2332 48.1678C112.385 59.7907 147.436 92.6737 156.6 134.119C162.466 161.919 154.359 190.722 140.531 214.915C122.059 248.271 90.8882 274.632 80.4859 312.161C67.697 355.811 73.8911 402.63 62.2317 446.644C52.2484 487.47 24.102 523.815 -13.6634 542.433Z" fill="#630000"/>
<path d="M-11.4955 505.742C24.3024 484.519 45.2892 446.936 50.0987 406.201C54.4163 376.142 52.7584 345.026 60.9382 315.458C71.1037 275.197 107.703 248.927 121.64 210.451C137.981 170.135 123.899 128.799 89.54 103.167C57.0214 78.2998 9.45488 78.318 -24.4847 100.471C-67.5333 128.18 -90.3783 180.064 -91.8721 230.181C-93.4389 260.586 -88.9391 291.174 -92.2912 321.579C-95.8254 351.948 -106.21 380.933 -112.312 410.792C-116.685 429.975 -121.385 451.435 -114.99 470.619C-116.885 486.177 -111.966 502.062 -101.309 513.613C-87.3906 531.029 -61.9404 534.235 -41.8827 526.766C-30.0047 522.685 -19.8392 515.143 -11.4773 505.761L-11.4955 505.742ZM-10.7304 506.653C-18.983 516.035 -29.5128 523.924 -41.4455 528.041C-60.5741 535.182 -84.4575 533.105 -99.305 518.112C-112.44 505.196 -118.798 488.035 -116.594 470.947C-123.043 451.363 -118.397 429.902 -113.97 410.409C-107.922 380.568 -97.5014 351.657 -93.8215 321.397C-90.3783 291.047 -94.7505 260.586 -93.0745 230.126C-92.3276 209.777 -88.429 189.483 -80.8504 170.554C-66.1305 133.026 -36.8728 98.7218 2.82365 87.2082C32.136 78.5913 65.6748 83.6922 90.1959 102.238C114.808 120.273 131.933 150.114 129.71 181.157C128.526 201.688 120.037 221.072 109.124 238.215C92.9104 263.793 70.1017 285.873 62.6325 315.932C54.4527 345.408 56.0923 376.251 51.72 406.438C46.7466 447.737 25.6322 485.339 -10.7304 506.672V506.653Z" fill="#630000"/>
<path d="M-8.61704 470.036C17.7258 450.36 32.3546 419.081 35.3423 386.817C38.9677 354.954 37.0002 320.377 54.1977 291.83C66.7315 270.843 83.929 253.081 93.1654 230.327C110.891 192.525 93.3658 145.159 54.4709 129.255C-6.23054 106.537 -54.1796 163.03 -63.835 218.394C-69.8651 250.53 -63.1792 283.176 -65.0556 315.549C-66.6588 339.961 -72.7435 363.717 -78.0084 387.509C-82.3989 403.085 -87.4816 419.044 -85.7509 435.313C-89.3034 446.061 -90.7972 457.775 -87.7367 468.724C-84.8218 479.527 -78.1723 489.966 -67.2235 493.791C-45.0889 501.935 -21.0051 488.545 -8.59883 470.017L-8.61704 470.036ZM-7.7426 470.855C-20.24 489.802 -45.1618 503.647 -67.7883 495.231C-79.1743 491.277 -86.2792 480.365 -89.2852 469.143C-92.4733 457.866 -90.9248 445.77 -87.3176 434.802C-89.3945 420.247 -83.9109 402.138 -79.6662 387.09C-72.5613 355.574 -64.3815 323.765 -66.2397 291.174C-67.2235 266.926 -69.3368 242.259 -64.8734 218.175C-57.222 179.153 -33.0653 138.527 6.74049 126.212C26.2881 120.419 48.4044 122.933 65.8388 133.682C89.9227 149.167 104.934 178.607 100.999 207.281C97.2098 240.583 72.4519 265.414 55.7644 292.722C38.658 321.124 40.6984 355.155 36.9819 386.999C33.8667 419.791 19.1103 451.034 -7.72439 470.855H-7.7426Z" fill="#630000"/>
<path d="M-5.77494 434.365C16.2321 410.227 20.3857 382.864 21.6792 351.475C22.499 338.394 23.9564 325.132 28.3104 312.671C33.4296 296.366 44.5971 282.94 53.7788 269.058C70.8853 244.518 81.0143 213.311 64.0172 185.967C52.9955 166 26.2336 158.968 5.86619 168.04C-14.7745 177.331 -27.5634 198.245 -34.814 218.922C-45.1981 247.652 -38.8037 278.13 -37.656 307.77C-37.1823 326.535 -38.8948 345.39 -43.6132 363.608C-44.6334 367.269 -46.2365 370.713 -47.6029 374.156C-50.4084 381.042 -52.5034 388.202 -54.9082 395.307C-57.4222 402.411 -60.2824 409.28 -62.6872 416.348C-65.0737 423.38 -67.4238 430.558 -67.7517 437.881C-68.5533 448.94 -61.1022 459.943 -49.8619 461.619C-30.9154 464.661 -14.1004 450.269 -5.72029 434.329L-5.77494 434.365ZM-4.7912 435.058C-11.7139 448.211 -23.7012 459.925 -38.7491 462.894C-55.5458 466.392 -70.1018 455.407 -69.3002 437.863C-68.2618 422.688 -61.2662 408.933 -56.4931 394.796C-54.1248 387.746 -52.0298 380.514 -49.206 373.518C-46.0361 366.65 -44.0686 359.673 -42.6841 352.276C-39.8421 337.666 -38.6944 322.691 -38.9859 307.807C-39.5324 285.472 -43.6496 262.955 -40.7348 240.547C-37.0548 212.619 -21.1689 179.408 5.50184 167.166C19.3655 161.008 36.0165 161.937 49.2244 169.37C62.4505 176.967 70.3934 191.687 73.1989 206.316C79.1015 237.541 59.3535 264.321 42.6114 288.551C7.52399 337.902 39.7876 385.76 -4.77296 435.039L-4.7912 435.058Z" fill="#630000"/>
<path d="M-27.5816 364.191C-38.4758 377.362 -49.9348 391.918 -51.9569 409.389C-53.2322 429.993 -32.9012 431.633 -19.6205 421.139C-4.00785 409.243 2.0951 387.327 4.70023 368.618C6.2123 355.446 5.11924 341.965 7.23249 328.648C8.17982 321.98 10.4388 315.567 13.1533 309.428C24.7944 282.521 51.4651 260.022 49.0422 228.632C48.7143 225.39 47.8945 221.928 47.0018 218.995C42.5202 208.356 30.2233 202.035 18.9647 204.202C3.29747 207.372 -4.33576 223.841 -9.98326 237.268C-16.9606 255.54 -14.9385 275.434 -11.1674 294.198C-8.39833 309.337 -4.59081 325.387 -9.61891 340.526C-14.1733 349.452 -21.3329 356.521 -27.618 364.172L-27.5816 364.191ZM-28.4925 363.425C-22.3531 355.956 -15.0296 348.341 -10.8577 340.125C-6.01181 325.241 -9.87395 309.465 -12.6613 294.508C-16.5599 275.543 -18.7642 255.194 -11.4407 236.739C-5.55635 222.93 2.51411 206.17 18.7643 203.018C30.533 200.85 43.3218 207.5 47.9309 218.631C48.9147 221.874 49.6252 225.189 49.9713 228.56C52.1574 260.04 25.7781 282.885 14.1917 309.884C11.5501 315.95 9.36396 322.253 8.47129 328.848C6.46734 341.983 7.65151 355.41 6.21231 368.781C3.68004 387.928 -2.40468 410.464 -18.582 422.542C-32.9558 433.801 -54.9264 431.396 -53.469 409.298C-51.374 391.517 -39.6599 376.724 -28.5107 363.425H-28.4925Z" fill="#630000"/>
<path d="M663.927 1122.65C763.542 1141.58 870.953 1171.36 969.056 1131.1C975.851 1128.26 982.519 1125.09 989.004 1121.61C995.508 1118.2 1001.83 1114.49 1006.75 1108.99C1016.79 1098.22 1020.96 1083.03 1018.86 1068.54C1014.89 1024.18 997.785 982.683 982.282 941.292C959.492 882.631 946.666 830.947 956.814 767.641C961.004 738.365 967.635 709.38 968.236 679.831C969.347 627.145 949.29 600.037 913.346 564.294C860.478 512.665 785.039 484.592 711.257 493.117C704.097 493.919 696.464 494.957 689.395 496.488C682.272 498.273 675.368 501.006 668.609 503.921C655.073 509.823 641.975 516.709 629.022 523.796C475.209 612.225 329.049 713.534 172.959 798.173C98.4304 839.018 22.262 877.439 -57.2584 907.735C-62.3958 909.739 -67.6607 911.36 -71.9237 914.858C-73.2718 915.988 -74.4013 917.372 -74.7292 918.939C-75.294 922.4 -72.288 925.278 -69.6829 927.282C-63.835 931.655 -56.9851 934.588 -50.2263 937.357C-36.5266 942.804 -22.3714 947.067 -8.16158 951.129C34.5226 963.153 77.8625 972.736 120.838 983.666C142.28 989.368 164.051 994.469 184.509 1003.27C187.952 1004.91 191.359 1006.53 194.128 1009.3C196.496 1012.2 198.482 1015.33 200.887 1018.17C266.216 1097.56 390.88 1106.69 486.851 1112.32C516.382 1113.72 545.949 1114.36 575.498 1115.33C605.047 1116.49 634.779 1117.13 663.927 1122.67V1122.65ZM663.69 1123.82C634.651 1118.33 604.938 1117.71 575.462 1116.6C545.913 1115.69 516.327 1115.07 486.778 1113.69C390.26 1108.13 265.378 1099.02 199.557 1019.19C197.152 1016.51 195.185 1013.12 192.871 1010.43C190.448 1007.99 187.041 1006.33 183.78 1004.78C163.468 996.054 141.716 991.008 120.383 985.306C77.4071 974.302 34.0853 964.683 -8.63526 952.605C-22.8633 948.524 -37.0367 944.225 -50.8275 938.723C-57.7138 935.881 -64.6001 932.93 -70.6302 928.412C-85.1315 917.099 -68.6809 910.067 -57.7867 906.314C21.6973 876.127 97.8292 837.833 172.376 797.08C328.484 712.568 474.863 611.533 628.639 523.049C641.61 515.926 654.709 509.04 668.281 503.101C675.076 500.168 681.981 497.435 689.213 495.613C696.318 494.047 703.951 493.026 711.166 492.188C785.239 483.535 861.025 511.608 914.166 563.383C950.328 599.236 970.677 626.69 969.621 679.795C969.056 709.544 962.443 738.583 958.326 767.804C948.306 830.929 961.186 882.212 983.958 940.6C999.498 981.954 1016.6 1023.84 1020.54 1068.32C1022.65 1083.19 1018.33 1099.02 1007.95 1110.06C1002.92 1115.67 996.346 1119.57 989.751 1123C983.211 1126.49 976.489 1129.66 969.639 1132.52C871.172 1172.84 763.523 1142.89 663.654 1123.78L663.69 1123.82Z" fill="#630000"/>
<path d="M1021.07 1126.78C1034.04 1118.48 1043.18 1104.54 1045.75 1089.37C1047.74 1074.12 1045.53 1058.34 1043.13 1043.2C1031.62 981.917 1000.19 926.554 985.634 865.998C977.964 835.793 974.685 804.459 976.124 773.325C979.768 712.915 1000.7 646.566 966.287 591.311C942.768 554.621 910.03 523.96 872.119 502.536C852.699 491.897 831.731 483.28 810.27 477.687C804.24 475.756 793.929 474.025 787.589 472.604L776.075 470.983C772.432 470.509 768.114 469.817 764.525 469.708C759.953 469.562 751.463 468.505 747.127 468.742C741.626 468.852 735.122 468.433 729.693 468.87C714.263 469.708 698.595 470.783 683.784 475.118C639.661 490.421 601.404 518.44 562.91 544.255C524.561 570.78 485.739 596.813 444.822 619.275C433.272 625.797 415.364 634.651 403.432 640.772C375.795 655.019 347.722 668.445 320.978 684.294C267.691 716.321 217.101 752.702 163.486 784.237C150.679 791.979 135.959 800.032 122.514 806.572C80.5222 826.921 35.8706 841.368 -8.52606 855.359C-38.057 864.869 -67.9706 873.832 -96.0441 887.203C-119.053 896.367 -103.258 909.775 -89.012 918.465C-48.5504 941.62 -3.35222 955.192 40.9169 969.202C77.9718 980.879 115.792 990.753 151.353 1006.62C157.328 1009.5 163.978 1012.98 168.714 1017.62C190.831 1040.71 217.374 1059.49 246.158 1073.35C359.563 1127.71 488.745 1124.29 611.478 1133.76C657.933 1136.42 703.97 1147.33 749.733 1155.08C839.874 1170.47 940.655 1178.56 1021.01 1126.77L1021.07 1126.78ZM1021.71 1127.79C941.11 1179.82 839.965 1171.87 749.532 1156.5C703.787 1148.81 657.824 1137.93 611.405 1135.31C488.49 1125.95 359.035 1129.46 245.52 1074.72C216.627 1060.75 189.92 1041.82 167.749 1018.57C163.14 1014.04 156.581 1010.65 150.806 1007.84C115.355 991.974 77.571 982.045 40.5889 970.331C-3.75303 956.249 -48.9694 942.622 -89.5221 919.34C-103.021 911.051 -121.239 896.276 -96.4266 886.329C-68.2802 872.957 -38.3485 864.031 -8.7447 854.539C35.6702 840.584 80.2854 826.283 122.223 805.861C135.613 799.267 150.26 791.324 163.103 783.526C216.7 751.919 267.199 715.501 320.486 683.402C347.248 667.498 375.322 654.017 402.94 639.752C414.927 633.576 432.689 624.777 444.294 618.219C485.156 595.72 523.869 569.687 562.199 543.107C600.73 517.201 639.133 489 683.402 473.625C698.504 469.198 714.135 468.123 729.693 467.248C735.268 466.793 741.68 467.194 747.219 467.084C753.394 466.939 759.06 467.777 764.726 468.032C769.408 468.105 772.031 468.833 776.349 469.307L787.935 470.928C793.983 472.313 804.75 474.098 810.762 476.011C832.35 481.64 853.483 490.239 873.03 500.933C911.251 522.448 944.152 553.364 967.817 590.327C1002.43 645.855 981.499 712.842 977.746 773.343C976.288 804.313 979.513 835.502 987.11 865.579C1001.61 926.135 1032.98 981.48 1044.42 1042.91C1046.85 1058.25 1049.01 1074.03 1046.99 1089.51C1044.33 1105.01 1034.99 1119.24 1021.72 1127.71L1021.71 1127.79Z" fill="#630000"/>
<path d="M1046.66 1135.29C1073.57 1115.71 1076.16 1088.53 1073.13 1057.63C1069 1012.49 1045.63 961.878 1029.76 919.522C1012.2 874.36 998.496 827.085 996.638 778.389C994.834 706.338 1023.05 631.226 976.853 566.462C955.957 535.419 928.285 508.967 896.695 488.964C891.43 485.995 886.348 482.679 881.083 479.782C879.06 478.726 866.836 472.641 864.905 471.639C860.132 469.708 853.009 466.574 848.218 464.589C841.678 462.257 834.299 459.579 827.65 457.557C786.023 445.241 741.48 441.798 698.559 448.539C674.603 452.365 652.814 464.042 632.137 476.248C598.945 496.324 568.885 520.973 537.86 544.164C506.854 567.483 474.335 588.961 439.558 606.232C396.327 628.22 349.107 641.374 306.732 665.093C281.337 679.285 258.036 696.774 234.517 713.826C203.237 736.743 171.484 759.078 138.473 779.464C130.931 784.255 121.021 789.739 113.314 794.111L100.252 800.524C60.8291 819.379 18.3636 831.002 -24.1566 840.402C-57.2035 847.963 -90.8699 853.1 -123.243 863.284C-125.575 863.94 -127.815 864.832 -130.074 865.707L-136.833 868.312C-146.598 879.224 -133.372 893.015 -124.099 900.448C-113.842 908.846 -102.402 915.733 -90.7971 922.182C-27.0532 957.597 45.508 976.434 111.693 1006.48C120.62 1010.72 129.82 1015.33 137.908 1021.1C143.993 1025.9 151.171 1032.05 157.128 1037.04C160.717 1039.67 167.458 1044.84 171.065 1047.5C174.562 1049.92 181.904 1054.7 185.548 1057.19C333.184 1148.61 513.631 1134.04 679.066 1159.14C799.595 1178.96 938.76 1210.37 1046.7 1135.26L1046.66 1135.29ZM1047.36 1136.28C939.142 1211.72 799.667 1180.47 678.775 1160.67C513.175 1135.73 332.401 1150.38 184.728 1058.45C181.139 1055.95 173.779 1051.18 170.19 1048.7C166.62 1045.97 159.77 1040.89 156.217 1038.17C150.315 1033.22 143.137 1026.93 137.07 1022.25C129.073 1016.51 119.946 1011.96 111.092 1007.71C44.925 977.582 -27.5815 958.654 -91.3436 923.147C-102.967 916.662 -114.425 909.739 -124.773 901.268C-134.228 893.653 -148.347 879.133 -137.234 867.456C-119.235 860.078 -100.216 855.705 -81.2692 851.588C-48.204 844.556 -14.6652 838.18 18.0175 829.399C50.5908 820.563 82.9637 809.068 112.914 793.437C155.233 769.845 194.839 741.608 233.916 713.097C257.435 696.027 280.772 678.465 306.186 664.237C348.56 640.444 395.78 627.237 438.993 605.211C473.698 587.941 506.107 566.462 537.041 543.144C568.047 519.898 598.125 495.176 631.354 475.046C652.159 462.731 674.129 450.944 698.286 447.063C741.444 440.232 786.259 443.62 828.124 455.972C834.846 457.957 842.206 460.708 848.819 463.022C853.428 465.026 860.97 468.087 865.616 470.09L868.877 471.73L881.921 478.27C887.222 481.185 892.396 484.464 897.661 487.488C929.469 507.583 957.306 534.272 978.311 565.533C1024.84 631.117 996.547 705.755 998.223 778.389C1000.04 826.939 1013.65 874.014 1031.11 919.067C1046.86 961.441 1070.36 1012.16 1074.43 1057.56C1077.45 1088.66 1074.74 1116.53 1047.37 1136.31L1047.36 1136.28Z" fill="#630000"/>
<path d="M1072.26 1143.82C1088.18 1131.47 1099.06 1112.59 1101.01 1092.5C1103.3 1072.35 1101.75 1051.93 1097.33 1032.16C1083.3 972.736 1053.2 918.666 1035.15 860.478C1023.05 821.729 1014.51 781.176 1016.64 740.405C1018.15 699.944 1025.13 659.3 1019.17 618.948C1010.94 557.863 966.906 508.056 917.901 473.843C859.258 433.746 786.186 416.439 715.666 423.07C695.407 424.674 675.696 429.829 657.496 438.938C593.133 470.327 545.949 526.675 486.049 564.877C460.49 581.528 433.072 595.392 404.379 605.758C375.741 616.16 345.973 623.338 317.699 634.669C279.278 648.879 247.433 674.931 216.044 700.527C176.402 732.171 135.613 762.959 91.3438 787.881C27.855 821.438 -44.8338 828.779 -115.154 835.921C-134.811 838.143 -157.128 840.512 -174.234 847.671C-180.902 869.15 -138.509 898.098 -123.079 908.956C-65.4563 948.688 2.55051 972.863 65.4017 1002.81C84.2753 1011.96 103.459 1021.72 120 1034.82C158.822 1065.01 203.292 1087.4 249.364 1104.27C382.263 1152.56 525.381 1155.37 664.182 1174.02C797.299 1193.17 955.484 1232.05 1072.24 1143.8L1072.26 1143.82ZM1072.99 1144.77C955.976 1233.34 797.463 1194.72 663.982 1175.54C525.072 1156.94 381.789 1154.35 248.836 1105.74C202.654 1088.76 158.057 1066.25 119.162 1035.91C102.712 1022.83 83.6741 1013.14 64.8552 1003.98C1.98578 973.92 -66.0028 949.672 -123.662 909.83C-140.368 898.08 -182.232 869.296 -175.072 847.161C-156.235 838.854 -135.394 837.579 -115.245 835.028C-45.016 827.96 27.6364 820.782 90.9794 787.17C135.176 762.248 175.874 731.442 215.461 699.798C246.85 674.165 278.841 647.95 317.317 633.686C345.645 622.3 375.358 615.122 403.997 604.683C432.598 594.299 459.925 580.472 485.393 563.839C545.275 525.527 592.459 469.088 656.877 437.608C675.149 428.445 695.207 423.143 715.538 421.54C786.46 414.8 859.895 432.106 918.957 472.386C968.327 506.817 1012.65 557.226 1020.89 618.747C1026.84 659.263 1019.81 699.998 1018.26 740.496C1016.11 781.104 1024.6 821.456 1036.61 860.059C1054.61 918.283 1084.68 972.39 1098.64 1031.91C1103.08 1051.78 1104.61 1072.39 1102.28 1092.66C1100.26 1113.1 1089.18 1132.27 1073.01 1144.78L1072.99 1144.77Z" fill="#630000"/>
<path d="M1097.84 1152.33C1123.83 1130.79 1131.94 1099.4 1130.45 1066.74C1129.15 1034.79 1118.62 1004.18 1107 974.649C1083.39 915.477 1054.04 857.964 1041.38 795.04C1026.88 732.153 1046.61 667.443 1036.26 604.246C1026.44 540.629 981.353 487.998 929.56 452.51C860.46 405.946 767.841 386.945 686.244 404.78C665.767 410.3 646.62 420.065 628.913 431.615C575.48 466.775 534.745 517.912 481.076 552.835C454.423 570.452 425.22 584.316 394.596 593.443C364.045 602.606 332.219 607.288 302.068 617.69C258.236 631.5 230.582 658.444 197.207 688.047C181.194 702.057 164.761 715.611 147.855 728.527C122.332 747.601 96.4811 766.657 68.5352 782.069C21.2237 806.973 -32.6826 815.899 -85.5687 818.942C-117.431 820.964 -149.367 820.035 -181.23 821.565C-191.651 822.421 -202.69 822.731 -212.109 827.559L-211.872 827.103C-209.559 841.769 -198.628 853.483 -188.991 864.195C-157.929 896.13 -120.911 921.744 -82.8724 944.644C-28.2375 976.124 30.4601 1000.54 83.6194 1034.86C88.1921 1038.08 97.3921 1044.3 101.965 1047.5C141.843 1074.65 185.784 1095.43 231.037 1111.94C385.542 1167.47 551.633 1172.38 712.332 1198.65C840.002 1216.47 990.189 1240.65 1097.84 1152.34V1152.33ZM1098.6 1153.24C990.699 1241.92 840.147 1217.89 712.095 1200.11C551.269 1173.88 385.05 1169.23 230.491 1113.38C185.147 1096.78 141.115 1075.88 101.181 1048.61C96.6998 1045.48 87.3358 1039.1 82.8543 1035.95C29.8407 1001.63 -28.7475 977.181 -83.4554 945.591C-121.567 922.601 -158.622 896.914 -189.719 864.85C-199.484 853.993 -210.506 842.133 -212.82 827.158L-212.856 826.848L-212.583 826.703C-202.909 821.747 -191.851 821.492 -181.285 820.618C-170.645 820.035 -160.006 819.889 -149.367 819.762C-65.5109 819.525 24.5758 814.843 95.3517 764.762C130.858 741.371 164.634 715.392 196.569 687.3C230.054 657.569 257.69 630.57 301.722 616.652C331.964 606.177 363.699 601.477 394.268 592.295C424.783 583.186 453.858 569.322 480.383 551.76C533.998 516.782 574.66 465.609 628.111 430.376C645.946 418.698 665.202 408.861 685.843 403.268C767.95 385.214 860.97 404.215 930.58 450.98C982.719 486.705 1028.08 539.883 1037.92 603.954C1048.27 667.261 1028.46 731.806 1042.87 794.712C1055.44 857.563 1084.72 914.986 1108.26 974.12C1130.9 1029.87 1151.63 1108.28 1098.6 1153.22V1153.24Z" fill="#630000"/>
<path d="M1123.43 1160.85C1153.42 1134.56 1163.11 1093.21 1158.17 1054.73C1154.82 1027.12 1145.39 1000.72 1134.98 975.013C1109.7 913.346 1076.74 854.266 1061.6 788.846C1045.41 723.299 1065.23 655.274 1053.28 589.307C1041.78 523.068 995.526 467.613 940.837 430.886C869.423 383.119 770.027 362.861 685.934 381.661C664.51 387.364 644.434 397.529 626.144 410.045C589.344 435.276 559.558 468.852 527.203 499.275C495.049 530.063 457.939 556.388 415.856 571.672C363.845 591.912 305.111 587.832 254.72 612.917C234.335 622.263 218.012 637.748 202.18 653.288C162.703 692.529 119.782 728.327 73.4357 759.224C-10.3841 819.78 -119.417 811.691 -217.21 804.258C-222.766 803.985 -228.323 803.766 -233.861 803.93C-239.272 804.204 -245.101 804.222 -249.729 807.155L-249.583 806.59C-242.733 820.599 -232.622 832.897 -222.311 844.501C-190.813 879.334 -154.814 910.03 -116.648 937.339C-64.9462 972.827 -8.67166 1000.97 44.4513 1034.24C63.5981 1046.21 84.6032 1060.4 104.406 1071.28C138.637 1090.22 174.599 1106.09 211.399 1119.33C365.849 1174.11 533.743 1188.63 695.007 1213.12C832.933 1231.96 1010.54 1262 1123.4 1160.85H1123.43ZM1124.23 1161.74C1011.12 1263.31 833.115 1233.43 694.824 1214.61C533.379 1190.15 365.466 1175.92 210.907 1120.79C174.052 1107.47 138.036 1091.53 103.75 1072.51C83.9109 1061.64 62.9423 1047.36 43.7772 1035.37C-9.29105 1002.05 -65.5838 973.792 -117.268 938.268C-155.488 910.868 -191.487 880.099 -223.022 845.175C-233.387 833.479 -243.553 821.091 -250.421 806.973L-250.603 806.626L-250.275 806.39C-245.356 803.238 -239.436 803.293 -233.861 802.983C-228.268 802.837 -222.712 803.056 -217.137 803.329C-119.527 810.853 -10.6392 819.106 72.9802 758.513C109.871 733.664 144.977 706.119 177.423 675.677C193.818 660.611 209.012 644.288 226.082 629.933C243.334 615.723 264.139 606.286 285.454 599.928C328.193 587.303 373.719 586.866 415.455 570.543C457.374 555.258 494.265 529.025 526.31 498.291C558.665 467.813 588.469 434.147 625.342 408.824C643.724 396.217 663.927 385.961 685.57 380.168C770.136 361.148 870.024 381.443 941.875 429.374C996.911 466.337 1043.44 522.321 1054.97 589.016C1066.92 655.073 1047.05 722.934 1063.15 788.5C1078.22 853.847 1111.08 912.836 1136.29 974.485C1146.68 1000.24 1156.15 1026.82 1159.5 1054.57C1164.44 1093.32 1154.57 1135.33 1124.27 1161.73L1124.23 1161.74Z" fill="#630000"/>
<path d="M1149.03 1169.36C1205.9 1112.98 1191.8 1041.93 1162.89 975.323C1135.82 911.123 1098.62 850.713 1081.5 782.634C1063.92 714.317 1083.83 642.94 1070.24 574.168C1036.12 410.027 838.69 324.549 684.95 358.725C639.479 370.603 602.788 402.029 570.707 435.094C521.355 487.179 477.213 538.37 406.146 560.778C361.877 576.245 313.837 572.693 268.784 584.297C246.541 590.236 224.333 599.382 207.409 615.413C190.612 631.445 175.51 649.28 158.767 665.421C129.892 694.059 97.8656 719.71 64.8551 743.411L50.5177 753.358C-26.6526 809.596 -128.617 806.371 -218.904 793.127C-236.175 790.704 -253.354 787.516 -270.679 785.53C-274.997 785.111 -279.314 784.674 -283.614 785.184C-284.98 785.385 -286.456 785.749 -287.239 786.66C-268.22 810.361 -245.029 837.742 -222.457 860.879C-193.946 890.592 -163.978 919.249 -131.295 944.389C-111.383 959.018 -90.6333 972.754 -69.9926 986.272C-35.7433 1008.68 -0.01828 1030.56 34.8505 1052.13C55.7644 1065.14 77.6439 1077.21 99.7056 1088.18C263.938 1167.74 447.537 1191.51 625.907 1220.01C706.939 1232.12 789.848 1245.11 871.737 1248.24C968.765 1252.43 1076.49 1240.35 1149.05 1169.32L1149.03 1169.36ZM1149.87 1170.22C1077.07 1241.56 969.038 1253.82 871.664 1249.68C789.72 1246.6 706.757 1233.7 625.652 1221.57C447.1 1193.23 263.319 1169.4 99.0315 1089.49C76.9516 1078.49 55.0357 1066.34 34.1035 1053.29C-0.72879 1031.65 -36.4538 1009.77 -70.6849 987.31C-91.3256 973.756 -112.13 959.983 -132.024 945.318C-164.725 920.105 -194.711 891.394 -223.24 861.608C-246.085 837.56 -268.329 812.893 -288.259 786.35C-287.039 784.911 -285.363 784.492 -283.778 784.273C-279.387 783.763 -274.96 784.219 -270.606 784.638C-253.263 786.642 -236.084 789.83 -218.813 792.289C-128.745 805.606 -26.9623 808.904 49.9894 752.684L64.3085 742.737C97.2826 719.036 129.237 693.385 158.039 664.765C174.781 648.569 189.81 630.789 206.662 614.684C223.659 598.544 246.085 589.271 268.456 583.277C313.6 571.6 361.44 575.134 405.727 559.649C476.448 537.332 520.572 486.031 569.65 434.129C601.841 400.881 638.768 369.237 684.513 357.25C729.912 346.119 777.733 348.487 823.46 356.412C936.428 376.488 1048.5 456.573 1071.86 573.859C1085.47 642.722 1065.48 713.953 1082.97 782.269C1100.04 850.276 1137.15 910.613 1164.13 974.794C1193.1 1041.74 1207.27 1113.36 1149.83 1170.22H1149.87Z" fill="#630000"/>
<path d="M1174.62 1177.89C1209.75 1141.96 1224.89 1093.81 1213.85 1044.46C1198.16 972.791 1155.99 911.087 1126.26 844.902C1105.4 800.505 1091.81 753.431 1092.54 704.061C1093.06 610.148 1102.35 541.559 1041.91 460.654C975.997 372.225 863.575 328.174 755.307 328.029C731.132 328.029 706.684 329.504 683.293 335.99C610.567 355.301 566.298 420.484 517.037 472.258C475.975 517.074 420.884 550.413 359.764 557.317C323.656 561.926 286.674 559.467 251.095 567.738C232.057 572.237 213.147 579.379 197.553 591.366C184.946 602.315 174.945 615.851 163.85 628.257C124.136 674.311 76.7694 713.315 26.9439 747.947C-32.6827 792.016 -110.891 798.702 -182.596 791.597C-218.904 788.045 -254.739 780.776 -290.172 772.195L-307.898 767.987C-313.054 766.93 -318.191 765.418 -323.456 765.4C-324.148 765.436 -324.895 765.673 -324.822 765.965L-324.95 765.637C-277.729 815.134 -233.369 871.664 -184.527 919.522C-134.483 967.599 -76.0955 1006.4 -17.7259 1043.6C41.0809 1080.58 104.133 1110.43 169.589 1133.56C367.069 1199.78 575.006 1231.01 780.921 1258.23C914.166 1270.43 1072.97 1281.33 1174.62 1177.83V1177.89ZM1175.48 1178.72C1073.59 1282.62 914.421 1271.89 780.776 1259.76C574.66 1232.59 366.632 1201.68 169.06 1135.11C103.531 1111.88 40.3887 1081.91 -18.4364 1044.82C-76.8607 1007.5 -135.194 968.637 -185.311 920.415C-234.153 872.484 -278.458 815.918 -325.624 766.384L-325.751 766.256V766.056C-325.788 765.418 -325.187 764.926 -324.786 764.799C-323.62 764.398 -322.363 764.544 -321.179 764.617C-313.491 765.436 -297.86 769.59 -289.972 771.394C-254.593 779.992 -218.795 787.298 -182.542 790.868C-111.019 798.064 -33.0288 791.324 26.4338 747.31L41.2995 736.78C80.6134 708.324 118.069 677.026 150.97 641.246C163.358 627.856 174.708 613.628 186.987 600.129C189.956 597.05 193.582 593.352 196.879 590.601C232.823 563.347 280.006 561.052 323.328 559.102C373.846 557.554 418.37 546.678 461 518.659C522.557 478.361 559.539 411.302 617.873 367.179C646.839 344.698 682.291 331.126 718.799 327.974C839 317.317 969.53 360.675 1043.29 459.615C1103.92 540.903 1094.76 609.657 1094.1 704.043C1094.41 728.272 1096.38 752.611 1102.57 776.057C1114.93 823.114 1137.77 866.508 1160 909.539C1204.94 998.259 1257.33 1093.06 1175.46 1178.72H1175.48Z" fill="#630000"/>
<path d="M-362.533 745.196C-297.204 803.311 -250.694 879.006 -188.772 940.399C-141.078 984.996 -88.8661 1024.97 -32.6462 1058.21C99.4324 1135.55 248.836 1176.08 397.347 1208.55C567.537 1244.76 739.403 1280.94 914.057 1282.82C1000.12 1283.13 1091.68 1272.07 1162.97 1219.99C1197.58 1194.25 1227.77 1159.76 1240.99 1118.11C1270.76 1021.98 1171.84 903.891 1136.97 816.391C1119.08 776.367 1111.23 732.699 1111.52 688.977C1111.43 624.212 1116.86 556.442 1088.75 496.105C1035.19 373.573 899.318 307.825 770.3 304.619C662.342 300.465 614.338 335.899 548.463 416.512C505.87 468.87 463.878 516.564 396.655 536.184C334.004 557.153 264.576 534.235 203.346 560.76C195.968 563.985 188.626 567.774 182.159 572.583C171.757 581.31 164.397 592.969 155.871 603.517C109.161 664.018 49.0786 713.352 -14.7017 754.888C-24.1567 760.39 -34.0307 765.145 -44.1962 769.171C-144.157 807.191 -258.564 781.486 -356.248 747.692L-360.11 746.417C-361.057 746.144 -362.005 745.816 -362.952 745.67C-363.171 745.834 -362.478 744.304 -362.533 745.16V745.196ZM-363.298 746.107C-363.99 746.672 -363.717 744.067 -362.843 744.504C-361.021 744.741 -357.669 746.016 -355.847 746.563C-296.858 767.222 -235.555 783.053 -172.923 786.132C-118.962 788.737 -62.669 781.322 -15.4122 753.686C48.1677 712.204 108.104 662.962 154.65 602.588C163.158 592.022 170.645 580.217 181.175 571.381C187.752 566.48 195.221 562.637 202.709 559.339C264.102 532.632 333.457 555.513 396.163 534.599C462.876 515.125 504.923 467.467 547.242 415.51C613.373 334.733 661.868 299.008 770.337 303.307C899.755 306.659 1036.04 372.735 1089.62 495.723C1117.73 556.206 1112.3 624.121 1112.32 688.977C1111.37 760.572 1132.8 813.076 1166.46 874.743C1202.68 943.77 1266.79 1038.39 1242.03 1118.42C1228.77 1160.32 1198.45 1194.99 1163.68 1220.92C1092.23 1273.2 1000.35 1284.42 914.075 1284.19C739.294 1282.42 567.264 1246.51 397.001 1210.28C248.38 1177.7 98.7948 1137.02 -33.3749 1059.49C-89.6859 1026.13 -141.953 986.053 -189.683 941.347C-251.569 879.953 -298.042 804.222 -363.28 746.089H-363.316L-363.298 746.107Z" fill="#630000"/>
<path d="M436.315 1055.81C572.219 1132.69 756.054 1134.53 906.788 1108.42C930.854 1103.56 955.028 1096.27 975.286 1082.06C980.315 1078.53 985.051 1074.59 989.423 1070.26C991.464 1068.14 993.887 1066.1 994.944 1063.31C996 1060.65 995.599 1057.58 994.105 1055.1L993.996 1054.93V1054.73C991.427 1006.49 966.761 963.609 949.053 919.686C943.096 904.893 937.594 889.845 934.187 874.196C930.89 858.529 929.76 842.497 929.888 826.539C931.783 719.455 982.993 612.59 862.482 548.572C841.35 537.533 818.887 528.861 795.805 522.94C682.291 496.852 579.889 573.349 493.646 637.238C455.462 665.968 418.097 695.936 378.182 722.351C310.43 764.635 234.863 792.071 161.901 823.751C127.925 838.817 3.51616 888.005 -1.03828 921.744C2.78745 943.988 76.6786 962.643 97.5561 968.928C172.668 989.332 249.164 1004.05 325.004 1021.41C353.424 1028.03 381.953 1034.53 409.717 1043.66C418.862 1046.92 428.39 1050 436.315 1055.79V1055.81ZM435.641 1056.79C427.807 1051.07 418.407 1048.03 409.334 1044.81C381.625 1035.71 353.133 1029.23 324.731 1022.63C248.854 1005.31 172.358 990.644 97.1917 970.258C74.6018 963.481 1.16606 945.081 -2.4957 921.89C-2.64144 920.542 -2.53214 919.158 -2.186 917.864C5.30149 903.345 19.2381 893.926 32.373 885.036C100.526 843.445 176.639 817.339 249.31 784.984C292.996 765.837 337.01 746.654 377.271 720.912C417.077 694.46 454.496 664.674 492.735 636.018C579.306 572.128 682.254 495.686 796.006 522.084C819.179 528.077 841.641 536.804 862.828 547.898C983.831 612.061 932.948 718.908 931.09 826.52C930.981 842.406 932.147 858.347 935.444 873.886C938.833 889.39 944.353 904.401 950.31 919.139C968.163 963.172 992.94 1006.17 995.581 1054.62L995.472 1054.26C997.184 1057.07 997.694 1060.75 996.456 1063.88C995.308 1066.98 992.776 1069.09 990.571 1071.4C986.144 1075.81 981.335 1079.8 976.252 1083.41C950.565 1101.41 919.285 1108.48 888.843 1113.49C738.565 1134.73 571.181 1132.58 435.641 1056.77V1056.79Z" fill="#630000"/>
<path d="M465.226 1041.67C579.925 1116.13 725.357 1110.21 855.906 1094.16C892.869 1089.33 931.582 1081.62 960.821 1057.05C962.552 1055.48 965.358 1053.15 966.888 1051.47C969.402 1048.61 970.732 1044.24 969.366 1040.65C968.364 1002.61 951.221 967.853 936.1 933.659C895.147 848.473 916.316 798.902 921.234 711.949C921.672 695.717 921.052 678.884 917.245 663.034C916.534 659.008 914.53 653.452 913.401 649.535C911.87 646.001 909.775 640.007 907.826 636.655C894.327 609.073 869.223 589.089 842.406 575.134C830.565 568.648 816.391 563.055 803.712 558.246C725.594 529.444 643.997 565.825 579.178 609.656C532.176 640.936 488.928 677.354 444.112 711.621C429.119 722.989 414.162 734.503 398.021 744.249C381.917 754.014 365.193 762.722 348.287 770.993C297.514 795.696 245.028 816.646 193.582 839.783C159.624 855.505 124.719 870.753 94.8961 893.598C87.2265 899.828 79.8301 906.751 75.4214 915.587L74.7473 917.172C74.2555 918.247 73.9275 919.249 73.8182 920.305C73.6361 922.437 74.383 924.568 75.6218 926.426C78.1358 930.161 81.9798 932.985 85.8419 935.499C93.7302 940.472 102.384 944.207 111.073 947.668C119.8 951.093 128.69 954.136 137.653 956.978C227.576 984.614 320.65 1000.3 411.775 1023.42C420.884 1025.77 429.975 1028.23 438.974 1031.01C447.956 1033.95 457.101 1036.61 465.226 1041.65V1041.67ZM464.552 1042.66C456.664 1037.75 447.446 1035.06 438.61 1032.2C429.629 1029.45 420.556 1026.99 411.447 1024.66C320.268 1001.63 227.175 986.071 137.161 958.49C121.057 952.97 71.2131 938.341 72.1604 920.16C80.1398 887.021 162.429 852.59 192.871 838.307C261.315 807.282 332.437 781.413 397.347 743.211C429.301 723.353 458.158 698.996 487.926 676.078C576.354 608.272 685.333 516.6 804.003 557.353C816.719 562.163 830.947 567.737 842.843 574.241C869.806 588.232 895.201 608.399 908.81 636.163C910.741 639.552 912.927 645.509 914.457 649.152C915.605 653.124 917.609 658.771 918.356 662.779C922.2 678.72 922.892 695.644 922.455 712.004C917.682 798.993 896.604 848.199 937.557 933.021C952.624 966.76 970.404 1003.41 971.023 1040C973.228 1045.9 969.803 1052.09 965.157 1055.61L962.006 1058.43C932.529 1083.23 893.288 1091.04 856.142 1095.83C725.284 1111.83 579.47 1117.48 464.57 1042.66H464.552Z" fill="#630000"/>
<path d="M494.138 1027.52C567.719 1076.03 659.281 1084.61 745.342 1081.88C767.112 1081.13 788.846 1079.51 810.525 1077.32C842.88 1073.84 875.872 1070.86 906.041 1057.99C915.987 1053.71 925.552 1048.47 934.242 1042.02C938.304 1038.85 943.059 1035.66 944.207 1030.29C945.045 1027.68 944.608 1025.18 944.261 1022.54C943.879 1019.87 943.715 1017.15 943.15 1014.49C937.903 982.1 923.384 952.423 911.524 922.054C903.563 901.741 896.549 880.791 894.272 858.984C891.813 837.232 893.161 815.28 895.219 793.564C899.063 750.88 907.662 705.372 889.408 664.856C874.56 632.21 843.608 610.677 812.001 595.902C805.005 592.896 796.607 588.998 789.356 586.629C779.118 583.077 768.424 580.544 757.657 579.342C725.175 575.225 692.11 582.53 662.16 595.028C581.51 629.823 518.458 693.13 449.614 745.889C396.163 783.964 334.277 807.683 275.306 835.556C240.802 852.189 171.629 881.429 152.082 912.362C150.733 914.567 149.458 917.081 148.912 919.504C148.493 921.927 149.622 924.404 151.244 926.408C158.348 934.424 168.988 938.669 178.679 942.913C198.846 951.093 219.852 957.087 240.838 962.807C314.493 982.737 389.841 995.891 463.477 1015.93C473.934 1019.14 484.646 1021.85 494.156 1027.53L494.138 1027.52ZM493.464 1028.52C484.227 1023 473.388 1020.25 463.113 1017.1C452.638 1014.11 442.071 1011.45 431.487 1008.86C357.341 990.899 282.065 977.29 208.957 955.229C194.237 950.273 145.25 936.3 147.29 919.249C149.495 911.032 155.343 904.565 161.19 898.772C169.152 891.175 178.151 884.835 187.351 878.969C271.025 827.741 368.29 801.416 448.903 744.923C466.21 731.715 483.007 717.797 499.876 703.988C558.701 656.494 618.656 604.683 692.82 583.678C711.129 578.796 730.659 576.409 749.605 577.648C752.064 577.648 755.344 578.213 757.767 578.449C767.276 579.379 776.622 581.747 785.804 584.388C802.436 590.018 819.033 597.523 834.154 606.45C867.966 625.542 894.345 656.367 899.737 695.772C906.387 739.276 895.219 782.78 894.491 826.265C893.835 847.981 895.912 869.824 902.233 890.683C915.605 936.355 942.166 978.292 946.484 1026.48C946.593 1032.25 943.241 1037.79 938.559 1040.98L935.317 1043.51C917.627 1056.61 896.768 1064.7 875.471 1069.67C864.832 1072.2 854.011 1073.94 843.189 1075.34C810.725 1079.4 778.097 1082.39 745.378 1083.48C659.081 1086.12 567.173 1077.31 493.445 1028.54L493.464 1028.52Z" fill="#630000"/>
<path d="M523.049 1013.36C588.123 1055.81 668.882 1062.6 744.704 1060.13C763.888 1059.43 783.053 1058.05 802.163 1056.19C821.237 1054.32 840.384 1052.48 858.966 1047.63C877.475 1042.89 895.401 1035.5 911.196 1024.71C915.915 1021.74 919.941 1016.51 920.05 1010.81L919.959 1007.24C919.139 965.722 893.616 930.598 882.121 891.74C879.333 882.504 877.402 873.012 876.145 863.448C866.891 798.666 901.031 723.864 855.723 667.607C843.663 652.76 828.069 640.845 811.527 631.445C805.734 628.056 798.465 624.358 792.417 621.443C789.374 619.822 785.658 618.656 782.524 617.181C781.686 616.816 780.029 616.179 779.154 615.923C739.494 601.459 698.122 608.509 660.593 625.834C612.608 648.296 571.691 682.801 531.885 717.251C517.402 729.857 503.046 742.646 488.472 755.18C473.752 767.659 457.356 777.916 440.687 787.498C390.533 816.064 337.119 838.18 286.619 865.998C268.274 876.346 226.701 899.774 223.932 920.87C227.43 936.756 284.288 951.184 299.864 955.866C355.446 971.078 412.067 982.264 468.068 995.854C477.396 998.132 486.723 1000.52 495.978 1003.16C505.214 1006 514.633 1008.39 523.049 1013.36ZM522.393 1014.36C514.232 1009.55 504.686 1007.13 495.65 1004.36C486.413 1001.74 477.104 999.389 467.777 997.111C402.448 981.171 336.081 969.202 271.79 949.144C258.801 944.59 225.189 934.606 222.329 921.107C224.042 899.337 267.892 874.615 285.782 864.505C336.354 836.777 389.878 814.77 440.013 786.35C456.664 776.841 473.023 766.657 487.67 754.287C502.263 741.808 516.637 729.037 531.156 716.449C571.035 682.054 612.152 647.549 660.247 625.142C698.122 607.798 739.385 600.566 779.446 615.067C780.265 615.322 782.033 615.942 782.834 616.324C786.004 617.727 789.702 619.057 792.799 620.587C798.811 623.575 806.226 627.127 812.001 630.589C828.67 640.026 844.41 651.995 856.561 666.915C902.215 723.244 868.294 798.338 877.603 863.247C878.878 872.739 880.809 882.121 883.578 891.285C895.201 930.198 920.852 965.449 921.726 1007.19L921.817 1010.81C921.799 1017.1 917.299 1022.93 912.198 1026.21C896.203 1037.1 878.076 1044.55 859.367 1049.31C840.675 1054.15 821.419 1055.97 802.291 1057.83C783.144 1059.65 763.961 1061.02 744.741 1061.69C668.7 1064.1 587.576 1057.07 522.375 1014.35L522.393 1014.36Z" fill="#630000"/>
<path d="M551.961 999.206C600.985 1030.67 660.848 1038.72 718.07 1038.83C746.963 1038.98 775.82 1036.88 804.586 1034.15C818.96 1032.75 833.407 1031.52 847.398 1028.23C861.389 1024.97 875.089 1019.28 885.728 1009.54C890.538 1007.68 894.309 1002.19 895.438 997.166C900.047 962.935 878.896 933.495 867.201 902.871C862.427 890.665 859.276 877.84 857.709 864.832C852.426 825.828 862.1 786.605 858.11 747.619C855.76 721.586 843.299 697.156 823.952 679.667C807.173 664.455 787.571 651.849 766.311 643.869C697.812 620.587 632.356 668.609 583.059 711.512C558.228 732.681 536.166 756.892 511.372 778.079C495.978 790.231 479.236 800.542 462.257 810.288C428.299 829.763 392.975 846.669 359.126 866.29C342.348 876.146 325.551 886.42 311.596 900.065C306.495 905.239 302.05 911.051 299.263 917.7C298.589 919.813 299.226 921.981 300.684 923.749C307.133 930.89 316.806 934.297 325.551 937.977C349.908 947.195 375.304 953.498 400.553 959.783C438.537 969.129 476.886 977.072 514.815 986.691C527.367 990.225 540.447 992.83 551.997 999.17L551.961 999.206ZM551.305 1000.21C539.937 994.014 526.875 991.427 514.469 987.948C501.844 984.723 489.146 981.772 476.43 978.839C438.3 970.058 400.007 961.878 362.278 951.421C343.514 945.901 324.294 940.818 307.151 931.09C302.433 928.175 295.783 923.584 297.732 917.154C300.629 910.231 305.22 904.201 310.412 898.918C324.476 885.127 341.382 874.725 358.252 864.814C392.173 845.266 427.57 828.433 461.564 809.068C478.525 799.376 495.231 789.156 510.588 777.096C535.419 756 557.499 731.861 582.384 710.747C631.955 667.771 697.849 619.84 766.602 643.031C788.008 650.993 807.701 663.636 824.662 678.92C844.21 696.519 856.908 721.258 859.312 747.51C863.411 786.532 853.829 825.719 859.185 864.687C860.77 877.566 863.921 890.264 868.676 902.343C880.554 933.094 901.905 962.844 897.242 997.439C896.422 1002.92 890.811 1009.9 886.839 1011.03C875.945 1020.9 861.99 1026.68 847.835 1029.96C833.644 1033.27 819.142 1034.46 804.768 1035.84C775.966 1038.54 747.055 1040.6 718.088 1040.4C660.611 1040.18 600.548 1031.94 551.341 1000.23L551.305 1000.21Z" fill="#630000"/>
<path d="M580.872 985.069C643.377 1023.58 720.584 1018.97 791.014 1013.91C814.405 1012.09 840.038 1010.96 858.857 995.38L859.039 995.235L859.294 995.18C861.662 994.706 863.83 992.848 865.67 990.972C867.893 988.549 869.969 985.78 870.88 982.61C871.062 981.499 871.773 977.764 871.973 976.543C873.048 968.4 872.283 960.038 870.152 952.132C865.579 936.082 856.652 921.872 850.057 906.569C845.467 896.404 842.351 885.546 840.475 874.561C836.485 852.572 837.396 830.127 838.216 807.938C838.999 785.913 839.09 763.214 830.965 742.409C823.004 721.623 807.391 704.735 789.793 691.491C772.413 677.864 751.791 667.516 729.383 666.878C664.473 664.947 606.996 726.651 566.334 771.211C552.143 788.445 534.654 802.582 516.035 814.788C479.162 839.564 438.792 858.857 403.049 885.309C391.754 894.163 380.222 903.782 374.411 917.154C372.479 921.708 377.981 925.151 381.315 927.374C393.248 934.369 406.674 938.304 419.827 942.403C451.781 951.822 484.336 958.963 516.764 966.596C527.585 969.129 538.388 971.679 549.155 974.467C559.867 977.491 570.998 979.713 580.872 985.033V985.069ZM580.216 986.071C570.506 980.897 559.375 978.675 548.827 975.724C538.079 972.973 527.257 970.44 516.436 967.926C483.99 960.348 451.362 953.261 419.372 943.879C408.733 940.673 398.094 937.302 387.91 932.657C382.262 929.87 371.113 924.86 372.534 917.664C372.643 917.281 372.734 916.862 372.898 916.571L373.791 914.64L374.684 912.708C375.704 910.905 376.852 908.992 378.054 907.334C384.594 898.134 393.229 890.811 402.01 883.997C437.772 857.381 478.27 838.344 515.234 813.64C533.852 801.526 551.195 787.589 565.423 770.428C606.632 725.521 663.854 664.437 729.401 666.077C751.973 666.678 772.869 677.062 790.376 690.725C818.577 711.512 836.977 739.021 839.127 774.618C841.55 807.811 835.611 841.368 841.932 874.305C843.827 885.218 846.924 895.857 851.497 905.95C859.676 924.933 872.21 942.986 874.05 964.119C874.414 969.584 874.178 975.56 872.994 980.934C872.483 985.288 869.878 989.095 866.982 992.211C864.978 994.215 862.755 996.273 859.603 996.947L860.022 996.747C840.803 1012.61 814.824 1013.76 791.159 1015.55C720.456 1020.52 642.904 1024.89 580.235 986.053L580.216 986.071Z" fill="#630000"/>
<path d="M609.784 970.914C642.703 991.063 682.309 995.362 720.183 995.69C739.312 995.8 758.422 994.798 777.587 993.85C796.297 993.085 816.537 992.575 832.149 981.061L832.35 980.916C836.613 980.533 840.293 976.671 843.007 973.465C844.392 971.716 845.703 969.857 846.378 967.854L847.325 964.593C847.635 963.5 847.999 962.425 848.126 961.313C852.225 942.713 840.967 925.989 833.079 910.03C824.48 893.562 821 874.961 819.452 856.598C816.938 829.198 820.909 801.088 813.64 774.254C808.94 756.455 798.629 740.642 785.822 727.562C766.347 707.212 742.682 691.709 713.315 695.571C662.342 702.913 621.935 753.285 593.497 792.799C586.665 802.109 578.249 810.252 569.486 817.703C534.636 847.853 491.569 867.492 459.815 900.994C456.828 904.438 454.022 908.063 451.836 912.034L450.98 913.51L450.269 915.04L449.559 916.571C448.138 918.939 449.723 921.325 451.891 923.093C459.05 928.613 468.086 931.491 476.576 934.515C485.284 937.43 494.119 939.962 503.01 942.367C529.662 949.563 556.679 955.393 583.423 962.261C592.368 964.775 601.44 966.596 609.766 970.932L609.784 970.914ZM609.146 971.934C601.13 967.799 591.821 965.904 583.113 963.481C574.205 961.204 565.241 959.073 556.297 956.941C529.444 950.492 502.39 944.553 476.102 935.954C468.706 933.167 446.68 926.754 447.482 917.755C447.664 916.789 448.448 915.277 448.867 914.366C449.213 913.528 449.996 912.016 450.488 911.251C457.465 899.136 468.232 889.736 478.944 881.064C507.874 858.219 540.392 840.366 568.63 816.665C577.374 809.286 585.7 801.271 592.532 792.071C621.297 752.411 661.941 702.093 713.279 694.843C742.955 690.889 766.803 706.338 786.569 726.888C799.522 740.041 809.979 756.018 814.77 773.962C822.148 800.852 818.268 829.053 820.873 856.489C822.476 874.706 825.937 892.997 834.518 909.338C842.096 924.641 852.717 940.327 850.44 958.198C849.985 961.787 849.147 965.012 848.072 968.455C846.05 974.357 837.797 982.592 833.206 982.537C817.211 994.287 796.607 994.816 777.642 995.544C758.532 996.437 739.348 997.403 720.165 997.239C682.054 996.802 642.23 992.32 609.146 971.953V971.934Z" fill="#630000"/>
<path d="M638.695 956.759C676.734 978.438 722.187 973.829 764.307 974.266C778.389 974.448 793.437 974.394 805.679 966.633C809.104 966.815 812.383 964.174 814.934 961.987C823.223 954.937 826.885 943.442 824.935 932.912C821.474 918.702 811.181 906.952 807.082 892.778C798.647 864.268 800.323 834.299 795.751 805.279C793.091 790.868 787.68 777.005 779.701 764.689C763.87 740.678 740.605 715.665 708.961 723.372C680.086 730.768 659.591 755.417 643.724 779.264C635.343 791.415 630.297 805.515 621.407 817.357C603.517 841.004 579.069 858.31 557.098 877.785C544.291 889.299 531.029 901.395 524.106 917.372C523.65 919.868 526.31 921.526 528.205 922.874C536.002 927.611 544.874 930.252 553.546 933.058C567.592 937.357 581.856 940.928 596.139 944.498C610.367 948.415 625.087 950.784 638.659 956.741L638.695 956.759ZM638.076 957.779C624.722 952.004 609.875 949.618 595.847 945.792C581.565 942.258 567.264 938.723 553.145 934.46C544.382 931.655 535.364 928.995 527.403 924.167C525.09 922.674 521.847 920.269 522.648 916.953C529.589 900.557 543.143 888.169 556.023 876.528C579.16 855.796 605.685 837.925 623.502 812.074C630.479 801.289 635.416 789.247 642.758 778.644C654.873 760.244 669.465 742.774 688.375 731.078C728.381 707.158 758.022 730.039 780.557 764.143C784.364 770.392 788.208 776.932 790.741 783.782L792.745 788.955C793.273 790.85 794.603 795.131 795.113 796.935C799.394 813.968 799.686 831.694 801.179 849.019C802.436 863.63 804.586 878.259 808.539 892.305C810.762 899.246 814.114 905.768 817.666 912.198C822.512 920.906 828.032 930.562 827.158 941.037C826.739 945.683 825.245 950.328 823.296 954.555C819.98 960.311 812.839 968.218 805.825 968.4L806.372 968.273C793.801 976.088 778.517 976.143 764.27 975.906C721.987 975.377 676.206 979.732 638.076 957.779Z" fill="#630000"/>
<path d="M667.589 942.586C688.776 953.407 713.789 952.933 737.035 954.318C751.008 955.156 765.892 958.69 779.045 952.35C781.614 952.879 784.31 951.294 786.46 949.909C793.729 944.917 799.631 937.485 801.708 928.831C803.748 918.083 795.113 909.775 791.196 900.411C787.498 892.705 786.077 884.271 784.419 876C780.484 856.762 779.264 837.105 774.855 817.976C770.975 801.671 764.198 786.132 755.781 771.667C731.752 731.424 699.433 746.034 679.558 780.776C673.965 790.431 669.702 800.852 666.824 811.618C665.075 818.359 663.053 825.263 659.883 831.53C653.233 845.54 643.469 857.837 633.558 869.624C621.024 884.58 607.634 899.154 599.2 916.899C598.544 919.121 602.005 920.888 603.736 921.945C618.073 929.159 635.999 932.967 651.448 937.485C656.367 938.978 662.943 940.436 667.589 942.567V942.586ZM667.024 943.642C662.652 941.766 655.802 939.999 651.102 938.705C635.453 934.169 617.636 930.525 603.007 923.238C600.602 921.836 596.594 919.668 597.815 916.279C599.127 913.783 600.293 911.196 601.714 908.755C610.13 894.09 621.516 881.429 632.247 868.53C642.066 856.744 651.867 844.775 658.535 830.893C661.723 824.662 663.709 818.049 665.512 811.254C668.5 800.396 672.854 789.921 678.556 780.193C698.978 745.032 731.752 730.476 756.51 771.193C765.072 785.713 771.94 801.289 775.948 817.703C780.448 836.832 781.796 856.507 785.822 875.708C787.498 883.852 788.974 892.214 792.617 899.719C796.734 909.138 805.625 918.028 803.42 929.159C801.289 938.377 795.095 946.083 787.389 951.348C784.856 952.915 782.142 954.536 778.954 954.063L779.482 953.99C766.056 960.311 751.008 956.759 736.889 955.83C713.461 954.318 688.357 954.664 666.988 943.606L667.024 943.642Z" fill="#630000"/>
<path d="M674.038 916.698C673.765 917.135 674.056 917.809 674.603 918.392C676.37 920.214 678.774 921.38 681.052 922.528C690.124 927.064 701.328 929.633 711.129 932.22C724.428 935.207 738.656 941.802 752.374 938.086C753.941 938.614 755.763 938.122 757.457 937.357C762.394 934.989 766.511 931.09 770.355 927.191C773.853 923.366 777.861 918.757 778.498 913.474C778.444 907.917 773.397 904 771.485 898.845C769.827 895.401 768.952 891.612 768.133 887.987C764.471 873.504 760.681 858.948 757.894 844.246C755.872 833.571 754.196 821.747 752.684 810.944C751.19 799.995 749.168 788.518 743.028 779.172C731.879 762.631 716.303 775.82 709.708 788.992C704.516 798.811 701.838 809.924 701.656 821.019C704.188 860.278 693.203 883.615 674.038 916.68V916.698ZM672.999 916.115C683.985 896.677 694.952 876.71 698.614 854.466C699.871 847.143 700.363 839.692 700.271 832.259C699.925 824.844 699.707 817.029 701.164 809.724C703.241 798.611 707.54 787.662 715.028 779.045C723.517 769.061 735.924 766.329 743.848 778.662C751.973 791.378 752.757 807.446 755.198 821.948C757.402 836.759 760.244 851.424 763.942 865.925C765.764 873.194 767.659 880.408 769.572 887.677C770.428 891.339 771.284 894.891 772.906 898.207C774.91 903.381 780.265 907.535 780.211 913.565C779.027 923.348 766.639 934.642 758.186 938.924C756.418 939.689 754.36 940.363 752.156 939.762H752.629C742.026 942.604 731.187 939.27 721.021 936.355C715.939 934.934 705.664 932.183 700.581 930.799C695.99 929.687 670.267 922.072 673.036 916.097L672.999 916.115Z" fill="#630000"/>
<path d="M703.023 4.9187C688.448 263.811 782.051 263.993 1003.11 297.368C1041.62 305.329 1076.45 328.812 1098.75 361.13C1111.94 379.366 1119.72 400.735 1126.33 422.05C1153.57 512.119 1147.85 608.326 1172.42 698.96C1188.62 761.046 1221.9 814.041 1278.92 845.94C1351.87 888.606 1436.65 878.86 1507.01 835.647C1538.16 817.885 1562.54 791.196 1587.66 766.001C1599.9 753.103 1612.32 740.15 1622.16 725.284C1649.42 679.193 1664.19 626.854 1678.84 575.68C1697 506.835 1711.7 436.351 1713.71 364.992C1713.98 329.322 1713.21 293.615 1710.97 258.018C1703.83 143.61 1679.27 23.3915 1603.12 -66.0394C1533.55 -148.766 1429.38 -192.707 1325.76 -215.079C1317.87 -216.554 1307.4 -219.396 1299.56 -220.234C1281.89 -222.348 1264.09 -223.878 1246.31 -225.007C1110.13 -232.222 951.166 -221.983 828.725 -157.729C764.617 -123.626 713.953 -68.8631 702.968 4.9005L703.023 4.9187ZM701.838 4.79118C712.806 -69.3914 763.669 -124.591 828.142 -158.913C950.875 -223.441 1109.88 -233.752 1246.46 -226.647C1268.67 -224.898 1291.18 -224.078 1313.03 -219.506L1326.14 -216.736C1430.07 -194.31 1534.52 -149.95 1604.2 -66.9138C1680.4 22.8449 1704.93 143.282 1711.98 257.963C1714.2 293.597 1714.93 329.304 1714.6 365.01C1712.49 436.479 1697.73 506.945 1679.66 575.899C1665.03 627.2 1650.29 679.576 1623 725.831C1613.13 740.788 1600.7 753.759 1588.42 766.73C1569.51 785.64 1551.31 805.588 1529.89 821.729C1458.49 874.743 1364.89 894.582 1284.11 850.385C1242.36 828.67 1208.44 792.672 1189 749.824C1142.54 646.802 1157.06 529.298 1124.62 422.578C1118.06 401.409 1110.37 380.222 1097.31 362.114C1075.28 330.142 1040.85 306.878 1002.78 298.971C781.049 265.487 686.9 264.339 701.784 4.79118H701.838Z" fill="#630000"/>
<path d="M1593.78 689.723C1603.23 676.042 1610.01 660.63 1616.42 645.327C1635.21 598.944 1648.83 550.576 1660.11 501.862C1672.79 445.004 1682.81 386.944 1681.53 328.52C1680.88 253.591 1675.67 178.042 1656.57 105.353C1586.62 -160.025 1343.05 -218.941 1098.31 -203.438C962.261 -193.545 756.419 -150.752 736.707 12.0964C735.924 21.8976 734.466 33.4841 734.138 43.267C729.73 111.31 738.201 194.128 801.398 233.66C829.745 251.477 863.01 259.02 895.475 265.596C928.248 271.881 961.295 276.745 994.196 282.466C1001.7 283.85 1011.59 285.381 1018.85 286.947C1064.63 295.983 1102.01 331.052 1120.45 373.117C1170.87 489.273 1138.55 641.519 1215.6 745.415C1235.56 772.067 1262.96 792.763 1293.2 806.444C1363.93 839.455 1443.74 821.601 1505.53 777.77C1526.15 763.505 1543.04 744.777 1560.75 727.197C1572.28 715.21 1583.9 703.131 1593.8 689.741L1593.78 689.723ZM1594.74 690.416C1584.82 703.915 1573.19 715.975 1561.62 728.053C1543.9 745.706 1526.92 764.525 1506.28 778.826C1458.68 812.42 1398.92 832.277 1340.52 822.494C1307.43 816.938 1276.15 802.327 1249.59 782.014C1212.7 753.886 1188.85 711.803 1175.97 667.807C1160.58 615.595 1156.46 560.997 1149.78 507.254C1143.44 457.975 1136.33 407.257 1113.54 362.569C1094.23 325.97 1059.63 296.475 1018.57 288.295C1011.03 286.674 1001.47 285.18 993.96 283.777C961.077 278.021 928.048 273.12 895.238 266.78C862.646 260.131 829.29 252.534 800.797 234.59C737.308 194.784 728.764 111.638 733.264 43.2305C733.646 33.3565 734.94 21.8429 735.869 12.0236C756.036 -151.517 961.459 -194.383 1098.2 -204.567C1343.3 -220.489 1588.44 -161.118 1658.23 104.898C1677.31 177.768 1682.46 253.427 1683.08 328.502C1684.3 387.054 1674.21 445.241 1661.46 502.172C1650.11 550.959 1636.43 599.363 1617.55 645.8C1611.09 661.212 1604.29 676.625 1594.73 690.434L1594.74 690.416Z" fill="#630000"/>
<path d="M1568.95 649.098C1585.93 623.192 1595.8 593.297 1605.77 564.149C1628.9 490.44 1646.54 414.071 1649.67 336.664C1649.87 255.595 1645.21 173.269 1622.23 95.1512C1621.45 92.382 1619.76 86.7892 1618.77 84.0748C1615.31 73.472 1611.07 61.6488 1606.69 51.4468C1543.61 -101.582 1402.09 -164.907 1245.15 -178.552C1137.52 -186.714 1026.33 -180.173 924.076 -143.538C851.278 -116.903 781.996 -66.8045 771.12 15.1571C768.679 34.0489 767.386 54.0337 767.131 73.0713C766.274 129.911 778.899 194.438 830.893 226.373C857.29 242.806 888.169 249.783 918.32 255.941C948.743 261.843 979.422 266.398 1009.97 271.772C1025.17 274.414 1040.94 276.855 1055.1 283.158C1057.16 284.197 1061.09 285.909 1063.02 286.929C1064.44 287.785 1069.13 290.336 1070.66 291.247C1072.48 292.376 1076.27 295 1077.98 296.075C1079.31 297.131 1083.54 300.265 1084.96 301.376C1086.54 302.706 1090.08 305.839 1091.57 307.133C1092.85 308.335 1096.47 312.015 1097.82 313.29C1100.02 315.823 1103.5 319.466 1105.49 322.108C1121.78 341.692 1131.27 365.685 1138.44 389.859C1174.72 513.74 1143.55 684.112 1279.5 752.957C1347.37 789.393 1426.25 774.49 1487.13 731.023C1506.26 717.742 1521.93 700.344 1538.34 683.985C1549.02 672.836 1559.8 661.577 1568.93 649.098H1568.95ZM1569.93 649.79C1560.75 662.36 1549.98 673.601 1539.27 684.841C1522.84 701.273 1507.06 718.762 1487.92 732.08C1426.63 775.875 1347.29 790.941 1278.85 754.287C1142.18 685.114 1172.97 514.797 1136.95 390.315C1129.86 366.322 1120.48 342.475 1104.36 323.037C1102.39 320.432 1098.97 316.77 1096.78 314.292C1095.56 313.017 1091.83 309.446 1090.6 308.189C1089.04 306.859 1085.63 303.817 1084.06 302.487C1082.84 301.485 1078.44 298.224 1077.16 297.222C1075.27 295.983 1071.77 293.633 1069.93 292.431C1058.43 285.545 1045.72 280.098 1032.58 277.347C994.616 269.75 956.103 264.594 918.101 257.089C887.841 250.876 856.853 243.826 830.328 227.266C774.454 192.707 764.052 121.968 766.548 61.3937C766.839 48.1312 768.351 34.0125 769.554 20.7864C778.608 -64.8187 848.054 -116.575 923.767 -144.43C1026.15 -181.248 1137.46 -187.898 1245.27 -179.864C1402.46 -166.492 1545.28 -102.657 1608.35 50.7363C1612.72 60.9929 1617.01 72.8526 1620.45 83.51C1621.47 86.2427 1623.11 91.8355 1623.91 94.6411C1646.9 173.05 1651.49 255.449 1651.22 336.7C1647.99 414.271 1630.25 490.713 1606.99 564.549C1596.97 593.825 1587.02 623.757 1569.91 649.79H1569.93Z" fill="#630000"/>
<path d="M1544.12 608.49C1559.71 584.516 1568.82 556.934 1577.95 529.99C1599.17 461.892 1615.28 391.317 1617.86 319.849C1617.44 224.333 1610.58 124.208 1567.71 37.3098C1505.53 -90.1961 1376.91 -143.228 1242.03 -154.742C1142.65 -162.265 1040 -156.254 945.592 -122.387C889.59 -101.728 833.188 -65.3653 812.384 -6.75891C807.465 6.64934 804.732 20.8045 803.548 35.0326C802.127 48.8963 801.198 63.9259 801.052 77.8625C800.396 130.785 811.965 189.446 860.406 219.105C884.836 234.171 913.346 240.583 941.183 246.304C976.216 253.281 1011.89 257.945 1046.92 265.141C1060.93 268.329 1074.32 274.559 1086.14 282.666C1203.54 365.739 1120.32 593.989 1249.76 688.175C1317.62 739.093 1401.36 732.517 1468.79 684.276C1486.42 671.979 1500.9 655.929 1516.01 640.79C1525.84 630.461 1535.76 620.04 1544.14 608.49H1544.12ZM1545.1 609.183C1536.67 620.842 1526.77 631.244 1516.88 641.647C1501.76 656.858 1487.17 672.999 1469.52 685.333C1417.03 723.244 1346.6 738.565 1286.08 710.929C1246 693.476 1213.36 662.943 1194.99 623.119C1170.44 570.761 1166.17 512.246 1158.43 455.771C1152.64 413.488 1146.08 370.294 1126.93 331.745C1113.78 306.568 1092.85 285.035 1066.78 273.339C1058.81 269.659 1050 267.054 1041.4 265.305C994.033 256.014 945.628 250.931 899.191 237.286C835.629 219.086 807.173 174.143 801.453 110.108C799.85 92.4367 799.868 74.1096 800.998 56.4019C802.364 35.1054 804.076 13.1348 811.673 -6.99576C852.991 -118.397 1007.97 -149.003 1113.34 -156.782C1281.44 -168.678 1478.66 -136.087 1564.41 26.9621C1611.87 116.211 1619.05 220.598 1619.43 319.903C1616.75 391.554 1600.56 462.202 1579.2 530.409C1570 557.462 1560.84 585.117 1545.12 609.201L1545.1 609.183Z" fill="#630000"/>
<path d="M1519.27 567.883C1529.83 551.341 1537.19 532.85 1543.75 514.45C1563.1 458.759 1576.6 400.808 1583.38 342.238C1585.22 326.097 1586.11 309.446 1586.02 293.196C1584.71 218.139 1578.49 141.406 1550.47 71.1219C1491.81 -77.4801 1349.01 -128.927 1199.58 -133.208C1101.86 -135.54 978.456 -123.899 897.916 -64.2905C867.711 -41.828 844.939 -8.70817 839 28.8021C837.396 39.5324 836.249 52.1573 835.629 63.0515C832.168 117.176 839.127 181.048 889.863 211.872C912.344 225.554 938.468 231.402 963.991 236.685C996.164 243.207 1028.77 247.415 1060.91 254.265C1093.23 262.408 1119.84 286.364 1134.95 315.64C1190.4 430.922 1140.48 599.327 1283.38 661.14C1342.03 687.264 1409.31 670.467 1458.2 631.663C1470.9 621.316 1482.09 609.237 1493.58 597.596C1502.58 588.105 1511.63 578.522 1519.25 567.883H1519.27ZM1520.25 568.557C1512.58 579.287 1503.53 588.87 1494.49 598.434C1482.98 610.13 1471.74 622.263 1459.02 632.647C1409.76 671.797 1341.99 688.758 1282.82 662.47C1138.75 599.873 1188.82 432.361 1133.62 316.314C1118.75 287.366 1092.5 263.647 1060.6 255.558C1028.56 248.69 995.945 244.409 963.791 237.832C938.159 232.495 911.943 226.592 889.335 212.783C838.289 181.649 831.257 117.523 834.828 62.9786C835.52 52.1208 836.595 39.4049 838.253 28.6564C844.319 -9.01788 867.128 -42.3563 897.46 -64.9645C978.019 -124.828 1101.79 -136.67 1199.66 -134.465C1349.39 -130.494 1493.53 -78.5914 1552.17 70.4479C1580.21 141.005 1586.36 217.957 1587.6 293.16C1587.68 309.465 1586.75 326.188 1584.89 342.384C1578.02 401.082 1564.45 459.069 1544.97 514.87C1538.34 533.36 1530.95 551.979 1520.27 568.557H1520.25Z" fill="#630000"/>
<path d="M1494.44 527.258C1503.98 512.173 1510.63 495.34 1516.57 478.598C1526.46 450.47 1534.19 421.558 1540.51 392.446C1547.36 360.401 1552.55 327.864 1553.99 295.109C1554.54 232.695 1549.51 169.37 1532.18 109.233C1501.89 4.95508 1428.16 -63.7986 1323.68 -91.4714C1240.19 -114.462 1142.47 -114.262 1057.5 -98.9042C989.751 -85.4959 911.87 -58.9163 881.319 8.58041C873.886 24.9764 871.445 42.9208 870.079 60.7013C868.676 78.5183 868.239 96.481 870.006 114.28C872.848 149.731 887.586 185.912 919.358 204.603C939.944 216.773 963.609 222.256 986.836 227.047C1010.23 231.748 1033.86 235.409 1057.34 239.763C1066.07 241.294 1075.3 242.988 1083.48 246.285C1110.35 256.396 1131.59 278.494 1143.6 304.291C1177.5 379.73 1164.9 468.232 1202.57 542.287C1224.09 584.898 1267.46 614.794 1314.34 622.354C1358.84 629.222 1404.26 612.844 1439.11 585.427C1450.61 576.008 1460.83 564.986 1471.23 554.384C1479.37 545.73 1487.57 536.968 1494.44 527.258ZM1495.42 527.932C1488.5 537.751 1480.32 546.495 1472.12 555.222C1461.68 565.897 1451.48 576.919 1439.91 586.429C1404.81 614.12 1359.02 630.661 1314.14 623.775C1266.79 616.196 1222.96 586.01 1201.19 543.016C1163.29 468.888 1175.83 380.459 1142.22 304.928C1130.41 279.442 1109.5 257.58 1082.99 247.561C1074.92 244.3 1065.66 242.587 1057.1 241.057C1033.64 236.666 1010.03 232.968 986.599 228.213C963.263 223.367 939.507 217.829 918.793 205.532C886.766 186.604 871.882 150.15 869.095 114.371C867.346 96.4992 867.802 78.5001 869.241 60.6285C870.662 42.7751 873.121 24.7213 880.627 8.27071C911.251 -59.5357 989.296 -86.3886 1057.3 -99.9426C1142.4 -115.464 1240.39 -115.774 1324.06 -92.8741C1429.04 -65.2196 1503.56 3.82558 1533.84 108.723C1551.19 169.17 1556.12 232.549 1555.5 295.145C1554.01 327.992 1548.76 360.62 1541.86 392.72C1535.48 421.886 1527.7 450.852 1517.76 478.999C1511.78 495.832 1505.06 512.774 1495.42 527.913V527.932Z" fill="#630000"/>
<path d="M1469.61 486.65C1475.2 477.614 1479.9 467.722 1483.76 457.848C1495.46 427.825 1503.84 396.563 1510.56 365.065C1516.57 336.172 1521.11 306.859 1522.24 277.347C1522.51 272.701 1522.24 265.979 1522.33 261.26C1520.76 210.36 1515.95 159.022 1501.07 110.181C1482.74 48.5318 1442.53 -7.01405 1386.08 -38.9133C1285.99 -97.3922 1117.49 -97.7748 1010.03 -58.9164C970.459 -44.0689 930.872 -19.0742 913.802 21.2234C905.148 41.0261 903.964 62.9967 902.926 84.2933C901.65 119.654 906.405 159.369 933.04 185.165C945.464 197.516 961.896 204.694 978.438 209.759C1009.39 218.904 1041.53 222.948 1073.17 229.106C1103.36 233.241 1129.17 251.568 1144.42 277.747C1151.25 289.388 1155.93 302.214 1159.94 315.076C1187.01 407.312 1169.89 520.444 1276.9 564.185C1325.05 584.771 1380.16 571.144 1420 539.19C1430.37 530.682 1439.49 520.772 1448.84 511.171C1456.14 503.356 1463.47 495.413 1469.59 486.632L1469.61 486.65ZM1470.59 487.324C1464.41 496.214 1457.09 504.139 1449.73 512.046C1440.37 521.683 1431.19 531.684 1420.78 540.229C1380.58 572.529 1324.98 586.319 1276.32 565.588C1168.39 521.337 1185.34 408.551 1158.41 315.567C1154.91 304.072 1150.69 292.686 1145.11 282.01C1133.09 259.785 1112.96 241.421 1088.55 234.025C1085.85 233.132 1083.46 232.586 1080.8 232.003C1057.1 227.23 1033.16 223.531 1009.44 218.649C980.898 212.564 949.964 205.314 929.432 183.07C897.624 147.946 899.719 96.2805 904.656 52.1207C911.033 -4.66395 959.237 -41.318 1009.65 -59.7544C1102.79 -93.6576 1233.14 -95.953 1327.65 -66.0759C1414.46 -39.387 1476.75 22.4805 1502.67 109.689C1517.57 158.804 1522.31 210.196 1523.82 261.242C1523.82 266.015 1523.91 272.719 1523.71 277.419C1522.53 307.005 1517.96 336.427 1511.87 365.375C1505.09 396.928 1496.64 428.244 1484.87 458.322C1480.97 468.232 1476.26 478.27 1470.55 487.324H1470.59Z" fill="#630000"/>
<path d="M1444.76 446.043C1449.68 437.972 1453.81 429.155 1457.24 420.374C1467.53 393.612 1474.87 365.775 1480.66 337.72C1486.26 309.647 1490.58 281.136 1490.52 252.461C1489.43 204.84 1484.36 156.691 1469.93 111.164C1446.11 34.8686 1390.01 -19.7846 1313.68 -43.0305C1227.84 -69.5555 1116.16 -67.9523 1031.47 -37.7473C983.084 -19.7118 941.511 13.5903 938.286 68.6078C937.576 75.0751 936.956 83.4917 936.756 90.0501C934.916 143.246 949.308 185.675 1004.76 201.014C1032.31 209.139 1060.86 212.929 1088.98 218.503C1175.92 234.681 1171.16 341.382 1188.6 408.842C1200.44 459.415 1224.18 495.759 1273.62 515.762C1316.78 533.561 1365.31 521.592 1400.87 493.008C1410.05 485.411 1418.18 476.557 1426.43 467.995C1432.92 461 1439.36 453.876 1444.74 446.043H1444.76ZM1445.76 446.699C1440.29 454.66 1433.85 461.783 1427.36 468.833C1419.05 477.468 1410.93 486.359 1401.69 494.01C1365.78 522.94 1316.76 535.073 1273.09 517.128C1223.18 497.016 1199 460.216 1187.01 409.225C1169.34 342.238 1174.97 236.193 1088.75 219.797C1060.62 214.149 1032.02 210.287 1004.43 202.107C948.579 186.513 933.914 143.756 935.9 90.0319C936.136 83.5646 936.719 74.984 937.485 68.5349C940.891 13.317 982.464 -20.404 1031.14 -38.6035C1115.98 -69.0636 1228 -70.8307 1314.14 -44.415C1390.85 -21.242 1447.87 33.8484 1471.59 110.654C1486.02 156.472 1491.03 204.676 1492.05 252.479C1492.05 281.245 1487.68 309.883 1482.01 338.012C1476.15 366.14 1468.75 394.013 1458.37 420.848C1454.9 429.683 1450.75 438.628 1445.74 446.717L1445.76 446.699Z" fill="#630000"/>
<path d="M1419.93 405.436C1443.3 364.519 1459.26 283.031 1458.73 235.628C1456.13 161.773 1442.35 80.9414 1386.39 27.9642C1343.85 -13.0986 1284.1 -30.5147 1226.4 -35.6339C1154.59 -41.5183 1036.26 -34.3405 989.496 27.5452C987.82 30.0592 985.725 32.7008 984.341 35.3788L981.316 40.8623C979.896 43.5221 978.912 46.7467 977.618 49.4975C976.908 51.3557 975.56 56.4932 974.886 58.4789C967.034 100.853 964.829 158.786 1008.01 182.851C1022.65 190.976 1039.23 194.784 1055.5 198.336C1071.9 201.78 1088.42 204.622 1104.89 207.883C1121.52 211.198 1136.75 220.362 1147.92 233.078C1199.66 295.892 1167.28 408.442 1248.13 456.063C1291.44 484.246 1342.14 478.58 1381.85 446.79C1395.68 434.311 1409.14 420.611 1419.96 405.417L1419.93 405.436ZM1420.93 406.091C1416.23 413.142 1410.62 419.427 1404.97 425.639C1397.74 433.291 1390.61 441.015 1382.58 447.846C1342.57 479.983 1291.07 485.812 1247.31 457.374C1165.52 409.17 1197.51 295.291 1146.81 234.061C1135.88 221.528 1120.94 212.51 1104.61 209.212C1088.18 205.915 1071.66 203.037 1055.24 199.539C1038.88 195.913 1022.25 192.07 1007.48 183.817C963.9 159.405 966.068 101.127 974.139 58.3149C975.232 54.8718 976.58 49.5886 978.147 46.3459C980.77 39.66 984.669 32.9012 988.895 27.1079C1035.73 -35.1967 1154.38 -42.666 1226.55 -36.9092C1284.61 -31.8993 1344.71 -14.4832 1387.61 26.7436C1442.66 78.3362 1456.78 157.073 1460.19 229.288C1461.12 256.615 1457.4 283.887 1452.19 310.631C1445.1 343.313 1437.62 376.706 1420.97 406.073L1420.93 406.091Z" fill="#630000"/>
<path d="M1395.08 364.81C1408.96 339.706 1415.24 310.922 1420.91 282.994C1426.21 254.775 1428.85 225.864 1425.43 197.262C1418.94 123.68 1394.82 53.9428 1326.31 16.888C1288.3 -3.73452 1244.64 -11.6592 1201.77 -13.0984C1153.62 -14.1186 1103.59 -9.83747 1059.6 11.0947C1042.15 19.8939 1025.55 32.3366 1015.89 49.6434C1013.82 52.6676 1012.25 57.222 1010.7 60.5559L1010.3 61.8311L1009.52 64.3998C1009.23 65.2925 1008.61 67.3875 1008.33 68.2437C1007.59 72.2152 1006.66 76.132 1006.26 80.1581C1001.45 113.988 1003.21 157.948 1037.59 175.601C1050.27 182.341 1064.43 185.766 1078.4 188.845C1092.46 191.924 1106.64 194.329 1120.76 197.426C1134.87 200.996 1147.61 209.377 1156.97 220.489C1200.75 276.8 1175.86 369.729 1247.86 409.553C1285.53 433.054 1328.53 428.008 1362.69 400.626C1374.46 389.732 1385.99 378.054 1395.1 364.81H1395.08ZM1396.1 365.448C1392.13 371.569 1387.39 377.016 1382.58 382.409C1375.18 390.279 1367.95 398.568 1359.15 404.907C1325.29 430.121 1283.24 433.4 1247.08 410.865C1205.18 388.092 1194.59 344.479 1185.56 301.303C1179.27 273.685 1174.08 244.027 1155.86 221.437C1146.72 210.524 1134.25 202.272 1120.43 198.719C1106.44 195.604 1092.21 193.126 1078.14 190.011C1057.39 185.238 1034.57 179.955 1020.14 163.049C1001.05 140.186 1001.92 107.995 1005.46 80.0488C1005.87 76.0227 1006.82 72.033 1007.59 68.0433L1007.99 66.7499L1008.79 64.163L1009.59 61.576L1009.99 60.2826C1011.45 56.8759 1013.27 52.4125 1015.22 49.2608C1024.91 31.79 1041.6 19.1834 1059.18 10.2749C1103.3 -10.8394 1153.47 -15.2664 1201.79 -14.3555C1244.89 -13.0256 1288.78 -5.17372 1327.05 15.467C1396.44 52.7951 1420.53 122.697 1427 197.098C1430.37 225.845 1427.65 254.921 1422.26 283.231C1416.47 311.396 1410.16 340.07 1396.06 365.43L1396.1 365.448Z" fill="#630000"/>
<path d="M1370.25 324.203C1386.88 293.324 1396.68 236.976 1395.19 201.852C1391.53 148.875 1377.75 91.8537 1336.07 55.7462C1283.17 9.21806 1197.16 4.3357 1130.5 16.1044C1096.45 22.772 1057.1 37.0365 1043.69 72.051C1039.8 83.3642 1038.78 95.5883 1038.23 107.485C1036.86 166.328 1069.91 173.342 1118.97 183.179L1127.82 185.001C1149.07 188.553 1167.03 203.966 1175.48 223.531C1199.69 273.229 1191.22 333.202 1247.61 363.097C1278.74 381.534 1313.54 377.799 1341.83 355.847C1352.39 346.501 1362.38 335.953 1370.23 324.221L1370.25 324.203ZM1371.27 324.822C1363.29 336.809 1353.32 347.357 1342.57 356.885C1313.9 379.202 1278.52 383.046 1246.86 364.391C1189.89 334.277 1198.02 274.286 1174.11 224.169C1165.9 204.949 1148.39 189.81 1127.57 186.24L1118.73 184.4C1101.1 180.519 1083.01 177.568 1066.68 169.407C1036.77 154.778 1034.64 118.561 1038.98 89.4307C1047.3 6.61292 1184.99 2.91471 1247.3 14.2461C1279.85 20.094 1312.13 32.3181 1337.2 54.4709C1379.45 90.7424 1393.15 148.383 1396.74 201.798C1397.52 219.906 1395.5 238.033 1392.45 255.868C1387.95 279.496 1382.84 303.489 1371.27 324.858V324.822Z" fill="#630000"/>
<path d="M1345.4 283.614C1358.72 257.271 1365.06 215.844 1363.58 186.385C1360.28 153.594 1352.25 119.8 1332.68 92.7281C1292.2 36.7268 1214.39 28.8385 1150.76 38.0931C1119.55 43.1212 1080.95 56.8938 1074.34 91.8901C1069.91 115.118 1069.4 145.887 1092.74 159.168C1099.9 163.34 1107.89 165.909 1115.93 168.058C1123.98 170.208 1132.14 171.939 1140.3 173.724C1156.95 176.639 1172 187.661 1179.87 202.636C1197.03 231.329 1197.91 267.655 1219.02 294.235C1224.18 300.72 1230.52 306.222 1237.59 310.558C1246.2 316.661 1255.84 321.434 1266.13 323.802C1286.85 328.866 1309.09 321.579 1324.88 307.752C1332.45 300.428 1339.88 292.577 1345.42 283.614H1345.4ZM1346.44 284.215C1340.79 293.396 1333.41 301.212 1325.74 308.699C1309.69 322.873 1286.94 330.36 1265.79 325.241C1255.26 322.855 1245.44 318.009 1236.67 311.833C1229.72 307.588 1222.96 301.813 1217.75 295.255C1196.34 268.62 1195.48 232.221 1178.54 203.401C1170.85 188.663 1156.37 177.951 1140.01 174.981C1116.84 169.152 1086.29 166.346 1075.67 141.388C1069 125.72 1070.67 108.086 1073.55 91.7626C1075.16 83.4917 1078.75 75.6399 1083.92 69.0086C1116.51 29.13 1203.86 28.8203 1250.41 39.6052C1302.84 50.882 1341.19 84.9856 1355.76 136.924C1360.52 152.938 1363.62 169.625 1365.07 186.276C1365.98 203.055 1364.2 219.833 1361.27 236.32C1358.04 252.734 1354.25 269.294 1346.38 284.215H1346.44Z" fill="#630000"/>
<path d="M1320.55 243.006C1326.03 231.857 1328.71 219.414 1330.64 207.19C1332.39 194.857 1333.27 182.305 1331.97 169.917C1330.44 157.602 1327.25 145.377 1322.97 133.736C1309.82 96.7725 1279.89 72.3243 1241.9 63.9442C1206.87 55.6916 1143.22 54.4892 1117.06 82.672C1112.85 87.2447 1109.88 92.8922 1108.37 98.8858C1105.62 110.837 1103.99 123.899 1108.13 135.704C1114.63 154.76 1136.9 158.367 1154.04 162.739C1166.41 165.326 1177.9 172.722 1185.01 183.234C1200.11 203.419 1203.48 230.108 1219.68 249.51C1223.65 254.301 1228.37 258.4 1233.6 261.752C1240.41 266.999 1247.97 271.371 1256.19 273.867C1282.89 282.138 1307.41 265.651 1320.55 243.006ZM1321.61 243.571C1308.23 266.853 1283.15 283.65 1255.77 275.288C1247.31 272.756 1239.59 268.292 1232.65 262.991C1227.62 259.803 1222.41 255.358 1218.44 250.548C1201.95 231.11 1198.73 204.366 1183.82 184.09C1176.9 173.761 1165.86 166.583 1153.75 163.941C1136.33 159.442 1113.72 155.47 1107.24 136.032C1103.08 123.972 1104.78 110.855 1107.64 98.7218C1109.22 92.6189 1112.19 86.8074 1116.46 82.1437C1142.78 53.5054 1206.78 54.4163 1242.23 62.5596C1266.79 68.0249 1290.31 80.413 1306.25 100.216C1322.06 120.018 1330.17 144.922 1333.5 169.771C1334.76 182.341 1333.81 194.984 1332.01 207.409C1329.99 219.815 1327.25 232.258 1321.62 243.589L1321.61 243.571Z" fill="#630000"/>
<path d="M1295.7 202.417C1302.09 187.114 1303.28 169.534 1300.6 153.248C1295.57 128.818 1280.07 106.264 1257.48 95.0602C1231.74 81.7977 1186.59 78.1723 1159.78 89.6131C1152.25 92.9651 1145.29 98.5944 1142.38 106.501C1138.41 117.705 1136.39 132.625 1145.86 141.625C1155.31 150.442 1169.21 150.57 1180.18 156.618C1203.77 168.423 1208.53 198.446 1229.59 212.874C1234.62 217.319 1240.12 221.327 1246.28 223.932C1266.26 232.695 1286.63 220.763 1295.74 202.417H1295.7ZM1296.79 202.927C1287.45 222.02 1266.35 234.317 1245.66 225.335C1239.44 222.766 1233.32 218.358 1228.66 214.204C1207.18 199.94 1202.92 169.844 1179.54 157.747C1168.52 151.608 1154.64 151.371 1145.15 142.353C1135.4 132.971 1137.59 117.814 1141.65 106.228C1148.12 89.5584 1167.81 84.421 1183.9 82.5081C1216.89 79.5204 1254.33 84.0384 1278.89 108.359C1290.78 120.51 1298.71 136.342 1302.11 152.956C1304.74 169.644 1303.44 187.26 1296.81 202.909L1296.79 202.927Z" fill="#630000"/>
<path d="M1171.69 129.583C1174.01 142.772 1188.05 141.643 1198.31 144.448C1203.81 146.179 1208.71 149.258 1213.14 152.81C1217.58 156.399 1221.5 160.48 1225.71 164.124C1228.51 167.439 1231.5 170.591 1234.98 173.105C1246.18 181.685 1260.45 179.19 1268.15 167.348C1272.86 160.152 1274.08 150.952 1272.31 142.554C1268.52 125.21 1252.29 113.679 1235.78 109.707C1223.19 106.628 1209.93 106.574 1197.05 107.248C1192.77 107.594 1188.47 108.268 1184.54 109.871C1176.68 112.786 1170.64 121.093 1171.69 129.583ZM1170.51 129.765C1169.27 120.62 1175.65 111.766 1183.99 108.541C1188.12 106.811 1192.55 106.1 1196.92 105.699C1210.04 104.843 1223.34 104.879 1236.16 108.304C1252.96 112.622 1269.41 124.646 1273.06 142.39C1277.45 159.533 1266.15 181.685 1246.38 179.408C1237.37 178.242 1230.13 171.921 1224.45 165.289C1220.62 162.174 1216.18 157.529 1212.06 154.14C1207.8 150.661 1203.04 147.636 1197.83 145.942C1187.21 143.027 1172.93 143.902 1170.51 129.747V129.765Z" fill="#630000"/>
<path d="M-312.908 723.9C-139.056 765.819 12.7159 743.01 121.713 590.473C144.776 560.177 175.601 541.03 213.02 534.016C252.279 526.474 292.577 529.316 332.091 524.78C383.082 519.879 433.4 500.714 471.129 465.463C511.572 428.371 540.465 380.605 580.763 343.313C590.291 334.35 601.094 325.715 611.824 318.264C614.083 316.97 622.063 311.541 624.486 310.248C628.639 308.062 633.449 305.183 637.657 303.106C640.062 302.104 648.715 297.878 651.284 296.876C654.964 295.4 661.723 293.014 665.312 291.593C674.548 288.55 684.732 285.909 694.278 283.96C697.612 282.994 700.818 282.757 704.097 282.192C766.73 272.355 830.783 283.158 891.521 298.989C907.061 303.143 923.949 308.517 938.924 314.383C1024.15 346.556 1086.12 405.563 1113.54 493.482C1142.91 582.475 1134.07 678.118 1154.8 768.715C1159.69 787.935 1166.34 806.9 1176.87 823.769C1183.97 834.919 1192.3 845.394 1199.46 856.543C1287.96 989.879 1335.18 1189.22 1217.56 1319.53C1344.38 1176.81 1278.56 961.677 1175.9 824.37C1158.3 795.914 1151.01 762.558 1146.15 729.857C1135.17 651.211 1136.93 570.124 1112.14 493.937C1084.78 406.51 1023.13 347.886 938.286 315.968C923.311 310.175 906.551 304.764 891.029 300.665C827.413 284.233 759.844 272.938 694.569 285.636C684.987 287.457 675.022 290.317 665.804 293.178C662.433 294.344 655.055 297.277 651.867 298.406C649.207 299.627 641.191 303.216 638.331 304.582C634.087 306.604 629.459 309.483 625.251 311.669C598.161 327.646 574.806 349.471 554.202 373.081C525.636 405.344 500.86 441.288 468.305 469.853C430.831 503.265 381.716 521.318 332.164 526.073C292.559 530.591 252.407 527.695 213.184 535.182C171.411 543.034 140.987 564.695 116.411 599.017C8.68982 745.579 -145.505 765.199 -312.963 723.918L-312.908 723.9Z" fill="#630000"/>
<path d="M554.329 371.769C581.638 337.647 609.092 303.234 630.57 265.032C691.236 159.478 686.9 31.7535 665.603 -84.3845C661.741 -107.12 656.604 -130.475 651.539 -153.011C656.895 -130.457 662.324 -107.248 666.478 -84.5303C687.774 29.0026 693.385 153.758 635.762 257.908C613.774 299.263 583.951 335.771 554.311 371.769H554.329Z" fill="#630000"/>
<path d="M823.278 285.162C790.468 280.48 757.53 269.55 731.843 247.962C687.975 212.291 672.326 151.28 679.613 96.8638C678.374 107.867 678.265 118.98 678.939 130.02C684.003 217.411 737.982 271.626 823.26 285.18L823.278 285.162Z" fill="#630000"/>
<path d="M241.039 530.774C178.005 535.273 151.499 499.822 149.731 440.086C148.201 385.505 159.46 330.579 183.052 281.282C212.492 218.267 255.394 162.502 300.775 110.235C310.43 99.1773 319.12 86.7893 324.786 73.2171C360.347 -13.9184 270.552 -97.4103 208.138 -146.052C176.712 -170.172 143.537 -192.088 108.814 -211.198C143.683 -192.343 177.058 -170.682 208.666 -146.762C271.79 -97.8839 361.895 -14.2099 326.243 73.8365C320.523 87.6273 311.796 100.143 302.05 111.365C256.925 163.668 213.785 219.032 184.309 281.865C160.68 330.925 149.331 385.633 150.715 440.049C152.373 499.439 177.987 534.763 241.039 530.774Z" fill="#630000"/>
<path d="M150.059 433.746C153.357 489.164 145.359 546.768 116.448 595.027L110.144 605.174L103.404 615.012C140.823 559.084 151.08 499.931 150.059 433.764V433.746Z" fill="#630000"/>
<path d="M1131.23 578.304C1118.71 500.678 1121.78 405.618 1053.64 352.768C1026.66 332.528 995.089 319.193 962.661 310.339C925.442 299.937 886.839 296.384 848.873 289.79C886.985 295.71 925.643 298.844 962.971 309.173C997.84 318.574 1032.2 332.947 1060.38 355.92C1122.98 410.245 1120.43 502.573 1131.23 578.322V578.304Z" fill="#630000"/>
<path d="M1515.37 896.95C1371.85 931.017 1202.15 901.377 1148.77 745.852L1149.9 745.451C1156.28 762.43 1163.99 778.917 1173.53 794.348C1243.89 910.668 1393.88 923.092 1515.06 895.802L1515.37 896.968V896.95Z" fill="#630000"/>
</g>
</g>
</g>
<g filter="url(#filter3_f_34_174)">
<path d="M338.868 322.117C525.837 618.39 -84.2974 590 -193.5 590C-560.774 641.16 -56.5893 393.426 -56.5893 322.117C-56.5893 250.808 229.666 145.5 338.868 145.5C448.071 145.5 338.868 250.808 338.868 322.117Z" fill="#A00000"/>
</g>
<g filter="url(#filter4_f_34_174)">
<path d="M980 -180.5C1166.97 115.773 802.025 210.869 692.822 210.869C325.548 262.029 694.411 -84.5737 694.411 -155.883C694.411 -227.192 782.937 -285 892.139 -285C1001.34 -285 980 -251.809 980 -180.5Z" fill="#A00000"/>
</g>
<g filter="url(#filter5_f_34_174)">
<path d="M1470 308.5C1751.54 754.388 824.938 707 660.5 707C107.457 783.995 1035.5 501.32 1035.5 394C1035.5 286.68 1197.06 351.5 1361.5 351.5C1525.94 351.5 1470 201.18 1470 308.5Z" fill="#A00000"/>
</g>
</g>
<defs>
<filter id="filter0_f_34_174" x="-784" y="-645" width="3650" height="2145" filterUnits="userSpaceOnUse" color-interpolation-filters="sRGB">
<feFlood flood-opacity="0" result="BackgroundImageFix"/>
<feBlend mode="normal" in="SourceGraphic" in2="BackgroundImageFix" result="shape"/>
<feGaussianBlur stdDeviation="100" result="effect1_foregroundBlur_34_174"/>
</filter>
<filter id="filter1_f_34_174" x="-4" y="-3.99976" width="1374.33" height="918.886" filterUnits="userSpaceOnUse" color-interpolation-filters="sRGB">
<feFlood flood-opacity="0" result="BackgroundImageFix"/>
<feBlend mode="normal" in="SourceGraphic" in2="BackgroundImageFix" result="shape"/>
<feGaussianBlur stdDeviation="2" result="effect1_foregroundBlur_34_174"/>
</filter>
<filter id="filter2_d_34_174" x="-367.689" y="-228.58" width="2086.36" height="1556.11" filterUnits="userSpaceOnUse" color-interpolation-filters="sRGB">
<feFlood flood-opacity="0" result="BackgroundImageFix"/>
<feColorMatrix in="SourceAlpha" type="matrix" values="0 0 0 0 0 0 0 0 0 0 0 0 0 0 0 0 0 0 127 0" result="hardAlpha"/>
<feOffset dy="4"/>
<feGaussianBlur stdDeviation="2"/>
<feComposite in2="hardAlpha" operator="out"/>
<feColorMatrix type="matrix" values="0 0 0 0 0 0 0 0 0 0 0 0 0 0 0 0 0 0 0.25 0"/>
<feBlend mode="normal" in2="BackgroundImageFix" result="effect1_dropShadow_34_174"/>
<feBlend mode="normal" in="SourceGraphic" in2="effect1_dropShadow_34_174" result="shape"/>
</filter>
<filter id="filter3_f_34_174" x="-527.494" y="-54.5" width="1114.9" height="851.401" filterUnits="userSpaceOnUse" color-interpolation-filters="sRGB">
<feFlood flood-opacity="0" result="BackgroundImageFix"/>
<feBlend mode="normal" in="SourceGraphic" in2="BackgroundImageFix" result="shape"/>
<feGaussianBlur stdDeviation="100" result="effect1_foregroundBlur_34_174"/>
</filter>
<filter id="filter4_f_34_174" x="330" y="-485" width="902.417" height="901" filterUnits="userSpaceOnUse" color-interpolation-filters="sRGB">
<feFlood flood-opacity="0" result="BackgroundImageFix"/>
<feBlend mode="normal" in="SourceGraphic" in2="BackgroundImageFix" result="shape"/>
<feGaussianBlur stdDeviation="100" result="effect1_foregroundBlur_34_174"/>
</filter>
<filter id="filter5_f_34_174" x="284.636" y="69.8652" width="1438.24" height="850.247" filterUnits="userSpaceOnUse" color-interpolation-filters="sRGB">
<feFlood flood-opacity="0" result="BackgroundImageFix"/>
<feBlend mode="normal" in="SourceGraphic" in2="BackgroundImageFix" result="shape"/>
<feGaussianBlur stdDeviation="100" result="effect1_foregroundBlur_34_174"/>
</filter>
<clipPath id="clip0_34_174">
<rect width="1366" height="768" fill="white"/>
</clipPath>
</defs>
</svg>
