<svg width="171" height="30" viewBox="0 0 171 30" fill="none" xmlns="http://www.w3.org/2000/svg">
<path d="M0.64 0.999998H5.04V25H12.28V29H0.64V0.999998ZM14.39 0.999998H18.79V29H14.39V0.999998ZM25.5253 5H20.9253V0.999998H34.5253V5H29.9253V29H25.5253V5ZM40.4863 5H35.8863V0.999998H49.4863V5H44.8863V29H40.4863V5ZM51.6166 0.999998H56.0166V25H63.2566V29H51.6166V0.999998ZM65.3666 0.999998H77.3666V5H69.7666V12.4H75.8066V16.4H69.7666V25H77.3666V29H65.3666V0.999998ZM86.3041 0.999998H92.7841C94.9707 0.999998 96.6107 1.58667 97.7041 2.76C98.7974 3.93333 99.3441 5.65333 99.3441 7.92V10.68C99.3441 12.9467 98.7974 14.6667 97.7041 15.84C96.6107 17.0133 94.9707 17.6 92.7841 17.6H90.7041V29H86.3041V0.999998ZM92.7841 13.6C93.5041 13.6 94.0374 13.4 94.3841 13C94.7574 12.6 94.9441 11.92 94.9441 10.96V7.64C94.9441 6.68 94.7574 6 94.3841 5.6C94.0374 5.2 93.5041 5 92.7841 5H90.7041V13.6H92.7841ZM101.734 0.999998H108.254C110.52 0.999998 112.174 1.53333 113.214 2.6C114.254 3.64 114.774 5.25333 114.774 7.44V9.16C114.774 12.0667 113.814 13.9067 111.894 14.68V14.76C112.96 15.08 113.707 15.7333 114.134 16.72C114.587 17.7067 114.814 19.0267 114.814 20.68V25.6C114.814 26.4 114.84 27.0533 114.894 27.56C114.947 28.04 115.08 28.52 115.294 29H110.814C110.654 28.5467 110.547 28.12 110.494 27.72C110.44 27.32 110.414 26.6 110.414 25.56V20.44C110.414 19.16 110.2 18.2667 109.774 17.76C109.374 17.2533 108.667 17 107.654 17H106.134V29H101.734V0.999998ZM107.734 13C108.614 13 109.267 12.7733 109.694 12.32C110.147 11.8667 110.374 11.1067 110.374 10.04V7.88C110.374 6.86667 110.187 6.13333 109.814 5.68C109.467 5.22667 108.907 5 108.134 5H106.134V13H107.734ZM117.867 0.999998H122.267V29H117.867V0.999998ZM131.282 29.4C129.149 29.4 127.535 28.8 126.442 27.6C125.349 26.3733 124.802 24.6267 124.802 22.36V20.76H128.962V22.68C128.962 24.4933 129.722 25.4 131.242 25.4C131.989 25.4 132.549 25.1867 132.922 24.76C133.322 24.3067 133.522 23.5867 133.522 22.6C133.522 21.4267 133.255 20.4 132.722 19.52C132.189 18.6133 131.202 17.5333 129.762 16.28C127.949 14.68 126.682 13.24 125.962 11.96C125.242 10.6533 124.882 9.18667 124.882 7.56C124.882 5.34667 125.442 3.64 126.562 2.44C127.682 1.21333 129.309 0.599998 131.442 0.599998C133.549 0.599998 135.135 1.21333 136.202 2.44C137.295 3.64 137.842 5.37333 137.842 7.64V8.8H133.682V7.36C133.682 6.4 133.495 5.70667 133.122 5.28C132.749 4.82667 132.202 4.6 131.482 4.6C130.015 4.6 129.282 5.49333 129.282 7.28C129.282 8.29333 129.549 9.24 130.082 10.12C130.642 11 131.642 12.0667 133.082 13.32C134.922 14.92 136.189 16.3733 136.882 17.68C137.575 18.9867 137.922 20.52 137.922 22.28C137.922 24.5733 137.349 26.3333 136.202 27.56C135.082 28.7867 133.442 29.4 131.282 29.4ZM146.805 29.4C144.645 29.4 142.991 28.7867 141.845 27.56C140.698 26.3333 140.125 24.6 140.125 22.36V7.64C140.125 5.4 140.698 3.66667 141.845 2.44C142.991 1.21333 144.645 0.599998 146.805 0.599998C148.965 0.599998 150.618 1.21333 151.765 2.44C152.911 3.66667 153.485 5.4 153.485 7.64V22.36C153.485 24.6 152.911 26.3333 151.765 27.56C150.618 28.7867 148.965 29.4 146.805 29.4ZM146.805 25.4C148.325 25.4 149.085 24.48 149.085 22.64V7.36C149.085 5.52 148.325 4.6 146.805 4.6C145.285 4.6 144.525 5.52 144.525 7.36V22.64C144.525 24.48 145.285 25.4 146.805 25.4ZM156.46 0.999998H161.98L166.26 17.76H166.34V0.999998H170.26V29H165.74L160.46 8.56H160.38V29H156.46V0.999998Z" fill="#E40000"/>
</svg>
