<svg width="50" height="28" viewBox="0 0 50 28" fill="none" xmlns="http://www.w3.org/2000/svg">
<path d="M0.788438 -1.90735e-06H7.06844L9.86844 20.04H9.94844L12.7484 -1.90735e-06H19.0284V28H14.8684V6.8H14.7884L11.5884 28H7.90844L4.70844 6.8H4.62844V28H0.788438V-1.90735e-06ZM22.3119 -1.90735e-06H26.7119V24H33.9519V28H22.3119V-1.90735e-06ZM36.0619 -1.90735e-06H42.5419C44.7285 -1.90735e-06 46.3685 0.586665 47.4619 1.76C48.5552 2.93333 49.1019 4.65333 49.1019 6.92V9.68C49.1019 11.9467 48.5552 13.6667 47.4619 14.84C46.3685 16.0133 44.7285 16.6 42.5419 16.6H40.4619V28H36.0619V-1.90735e-06ZM42.5419 12.6C43.2619 12.6 43.7952 12.4 44.1419 12C44.5152 11.6 44.7019 10.92 44.7019 9.96V6.64C44.7019 5.68 44.5152 5 44.1419 4.6C43.7952 4.2 43.2619 4 42.5419 4H40.4619V12.6H42.5419Z" fill="#E40000"/>
</svg>
