<svg width="190" height="80" viewBox="0 0 190 80" fill="none" xmlns="http://www.w3.org/2000/svg">
<g clip-path="url(#clip0_10_2)">
<path d="M62.804 42.2H69.932C72.3373 42.2 74.1413 42.8453 75.344 44.136C76.5467 45.4267 77.148 47.3187 77.148 49.812V52.848C77.148 55.3413 76.5467 57.2333 75.344 58.524C74.1413 59.8147 72.3373 60.46 69.932 60.46H67.644V73H62.804V42.2ZM69.932 56.06C70.724 56.06 71.3107 55.84 71.692 55.4C72.1027 54.96 72.308 54.212 72.308 53.156V49.504C72.308 48.448 72.1027 47.7 71.692 47.26C71.3107 46.82 70.724 46.6 69.932 46.6H67.644V56.06H69.932ZM79.7767 42.2H86.9487C89.442 42.2 91.2607 42.7867 92.4047 43.96C93.5487 45.104 94.1207 46.8787 94.1207 49.284V51.176C94.1207 54.3733 93.0647 56.3973 90.9527 57.248V57.336C92.126 57.688 92.9473 58.4067 93.4167 59.492C93.9153 60.5773 94.1647 62.0293 94.1647 63.848V69.26C94.1647 70.14 94.194 70.8587 94.2527 71.416C94.3113 71.944 94.458 72.472 94.6927 73H89.7647C89.5887 72.5013 89.4713 72.032 89.4127 71.592C89.354 71.152 89.3247 70.36 89.3247 69.216V63.584C89.3247 62.176 89.09 61.1933 88.6207 60.636C88.1807 60.0787 87.4033 59.8 86.2887 59.8H84.6167V73H79.7767V42.2ZM86.3767 55.4C87.3447 55.4 88.0633 55.1507 88.5327 54.652C89.0313 54.1533 89.2807 53.3173 89.2807 52.144V49.768C89.2807 48.6533 89.0753 47.8467 88.6647 47.348C88.2833 46.8493 87.6673 46.6 86.8167 46.6H84.6167V55.4H86.3767ZM97.5228 42.2H102.363V73H97.5228V42.2ZM112.28 73.44C109.933 73.44 108.158 72.78 106.956 71.46C105.753 70.1107 105.152 68.1893 105.152 65.696V63.936H109.728V66.048C109.728 68.0427 110.564 69.04 112.236 69.04C113.057 69.04 113.673 68.8053 114.084 68.336C114.524 67.8373 114.744 67.0453 114.744 65.96C114.744 64.6693 114.45 63.54 113.864 62.572C113.277 61.5747 112.192 60.3867 110.608 59.008C108.613 57.248 107.22 55.664 106.428 54.256C105.636 52.8187 105.24 51.2053 105.24 49.416C105.24 46.9813 105.856 45.104 107.088 43.784C108.32 42.4347 110.109 41.76 112.456 41.76C114.773 41.76 116.518 42.4347 117.692 43.784C118.894 45.104 119.496 47.0107 119.496 49.504V50.78H114.92V49.196C114.92 48.14 114.714 47.3773 114.304 46.908C113.893 46.4093 113.292 46.16 112.5 46.16C110.886 46.16 110.08 47.1427 110.08 49.108C110.08 50.2227 110.373 51.264 110.96 52.232C111.576 53.2 112.676 54.3733 114.26 55.752C116.284 57.512 117.677 59.1107 118.44 60.548C119.202 61.9853 119.584 63.672 119.584 65.608C119.584 68.1307 118.953 70.0667 117.692 71.416C116.46 72.7653 114.656 73.44 112.28 73.44ZM129.355 73.44C126.979 73.44 125.16 72.7653 123.899 71.416C122.637 70.0667 122.007 68.16 122.007 65.696V49.504C122.007 47.04 122.637 45.1333 123.899 43.784C125.16 42.4347 126.979 41.76 129.355 41.76C131.731 41.76 133.549 42.4347 134.811 43.784C136.072 45.1333 136.703 47.04 136.703 49.504V65.696C136.703 68.16 136.072 70.0667 134.811 71.416C133.549 72.7653 131.731 73.44 129.355 73.44ZM129.355 69.04C131.027 69.04 131.863 68.028 131.863 66.004V49.196C131.863 47.172 131.027 46.16 129.355 46.16C127.683 46.16 126.847 47.172 126.847 49.196V66.004C126.847 68.028 127.683 69.04 129.355 69.04ZM139.976 42.2H146.048L150.756 60.636H150.844V42.2H155.156V73H150.184L144.376 50.516H144.288V73H139.976V42.2Z" fill="#E40000"/>
<path d="M66.804 7.2H71.644V33.6H79.608V38H66.804V7.2ZM81.929 7.2H86.769V38H81.929V7.2ZM94.1778 11.6H89.1178V7.2H104.078V11.6H99.0178V38H94.1778V11.6ZM110.635 11.6H105.575V7.2H120.535V11.6H115.475V38H110.635V11.6ZM122.878 7.2H127.718V33.6H135.682V38H122.878V7.2ZM138.003 7.2H151.203V11.6H142.843V19.74H149.487V24.14H142.843V33.6H151.203V38H138.003V7.2Z" fill="#E40000"/>
<path d="M34.312 30.6H39.336L41.576 46.632H41.64L43.88 30.6H48.904V53H45.576V36.04H45.512L42.952 53H40.008L37.448 36.04H37.384V53H34.312V30.6ZM54.7628 43.464L50.5068 30.6H54.2508L56.6508 38.824H56.7148L59.1148 30.6H62.5388L58.2828 43.464V53H54.7628V43.464Z" fill="#E40000"/>
</g>
<defs>
<clipPath id="clip0_10_2">
<rect width="190" height="80" fill="white"/>
</clipPath>
</defs>
</svg>
