<svg width="49" height="28" viewBox="0 0 49 28" fill="none" xmlns="http://www.w3.org/2000/svg">
<path d="M0.64 -1.90735e-06H6.92L9.72 20.04H9.8L12.6 -1.90735e-06H18.88V28H14.72V6.8H14.64L11.44 28H7.76L4.56 6.8H4.48V28H0.64V-1.90735e-06ZM22.1634 -1.90735e-06H26.5634V24H33.8034V28H22.1634V-1.90735e-06ZM35.9134 -1.90735e-06H42.3934C44.5801 -1.90735e-06 46.2201 0.586665 47.3134 1.76C48.4068 2.93333 48.9534 4.65333 48.9534 6.92V9.68C48.9534 11.9467 48.4068 13.6667 47.3134 14.84C46.2201 16.0133 44.5801 16.6 42.3934 16.6H40.3134V28H35.9134V-1.90735e-06ZM42.3934 12.6C43.1134 12.6 43.6468 12.4 43.9934 12C44.3668 11.6 44.5534 10.92 44.5534 9.96V6.64C44.5534 5.68 44.3668 5 43.9934 4.6C43.6468 4.2 43.1134 4 42.3934 4H40.3134V12.6H42.3934Z" fill="#E40000"/>
</svg>
