<svg width="512" height="512" viewBox="0 0 512 512" fill="none" xmlns="http://www.w3.org/2000/svg">
<g clip-path="url(#clip0_36_196)">
<path d="M256 92C187.733 92 145.067 126.111 128 194.333C153.6 160.222 183.467 147.431 217.6 155.958C237.075 160.824 250.995 174.943 266.402 190.573C291.502 216.033 320.551 245.5 384 245.5C452.267 245.5 494.933 211.389 512 143.167C486.4 177.278 456.533 190.069 422.4 181.542C402.925 176.676 389.005 162.557 373.598 146.927C348.498 121.467 319.449 92 256 92ZM128 245.5C59.7333 245.5 17.0667 279.611 0 347.833C25.6 313.722 55.4667 300.931 89.6 309.458C109.075 314.324 122.995 328.443 138.402 344.073C163.502 369.533 192.551 399 256 399C324.267 399 366.933 364.889 384 296.667C358.4 330.778 328.533 343.569 294.4 335.042C274.925 330.176 261.005 316.057 245.598 300.427C220.498 274.967 191.449 245.5 128 245.5Z" fill="#E40000"/>
</g>
<defs>
<clipPath id="clip0_36_196">
<rect width="512" height="512" fill="white"/>
</clipPath>
</defs>
</svg>
