<svg width="181" height="72" viewBox="0 0 181 72" fill="none" xmlns="http://www.w3.org/2000/svg">
<path d="M45.08 24H40.48V20H54.08V24H49.48V48H45.08V24ZM56.2103 20H60.6103V31.4H65.3303V20H69.7303V48H65.3303V35.4H60.6103V48H56.2103V20ZM73.0072 20H85.0072V24H77.4072V31.4H83.4472V35.4H77.4072V44H85.0072V48H73.0072V20ZM93.9447 20H105.945V24H98.3447V31.4H104.385V35.4H98.3447V44H105.945V48H93.9447V20ZM108.476 20H113.996L118.276 36.76H118.356V20H122.276V48H117.756L112.476 27.56H112.396V48H108.476V20ZM125.546 20H132.266C134.453 20 136.093 20.5867 137.186 21.76C138.28 22.9333 138.826 24.6533 138.826 26.92V41.08C138.826 43.3467 138.28 45.0667 137.186 46.24C136.093 47.4133 134.453 48 132.266 48H125.546V20ZM132.186 44C132.906 44 133.453 43.7867 133.826 43.36C134.226 42.9333 134.426 42.24 134.426 41.28V26.72C134.426 25.76 134.226 25.0667 133.826 24.64C133.453 24.2133 132.906 24 132.186 24H129.946V44H132.186Z" fill="#E40000"/>
</svg>
