<svg width="512" height="512" viewBox="0 0 512 512" fill="none" xmlns="http://www.w3.org/2000/svg">
<path d="M240.88 17.1284C239.854 17.2216 236.59 17.5479 233.652 17.7811C165.903 23.8884 102.443 60.439 62.2496 116.617C39.8683 147.853 25.5537 183.285 20.1449 220.814C18.2331 233.915 18 237.784 18 255.547C18 273.309 18.2331 277.179 20.1449 290.279C33.1073 379.838 96.8472 455.083 183.295 482.963C198.775 487.951 215.095 491.354 233.652 493.406C240.88 494.198 272.12 494.198 279.348 493.406C311.381 489.862 338.518 481.937 365.282 468.277C369.385 466.179 370.178 465.62 369.618 465.153C369.245 464.874 351.76 441.424 330.778 413.078L292.636 361.562L244.843 290.839C218.545 251.957 196.91 220.162 196.723 220.162C196.537 220.115 196.35 251.537 196.257 289.906C196.117 357.087 196.071 359.791 195.231 361.376C194.019 363.66 193.087 364.593 191.128 365.618C189.636 366.364 188.33 366.504 181.29 366.504H173.223L171.078 365.152C169.679 364.266 168.654 363.101 167.954 361.749L166.975 359.651L167.068 266.176L167.208 172.655L168.654 170.837C169.4 169.858 170.985 168.599 172.104 167.993C174.016 167.061 174.762 166.967 182.828 166.967C192.34 166.967 193.926 167.34 196.397 170.044C197.096 170.79 222.975 209.765 253.935 256.712C284.896 303.659 327.234 367.763 348.03 399.232L385.798 456.435L387.71 455.177C404.636 444.174 422.541 428.51 436.716 412.192C466.884 377.553 486.327 335.315 492.855 290.279C494.767 277.179 495 273.309 495 255.547C495 237.784 494.767 233.915 492.855 220.814C479.893 131.256 416.153 56.01 329.705 28.1309C314.458 23.1891 298.232 19.7857 280.047 17.7344C275.571 17.2682 244.75 16.7554 240.88 17.1284ZM338.518 161.373C340.756 162.492 342.574 164.636 343.227 166.874C343.6 168.086 343.694 194.007 343.6 252.423L343.46 336.247L328.679 313.589L313.852 290.932V229.999C313.852 190.604 314.038 168.459 314.318 167.387C315.064 164.776 316.696 162.725 318.934 161.513C320.846 160.534 321.545 160.44 328.866 160.44C335.767 160.44 336.979 160.534 338.518 161.373Z" fill="black"/>
</svg>
