<svg width="89" height="59" viewBox="0 0 89 59" fill="none" xmlns="http://www.w3.org/2000/svg">
<g clip-path="url(#clip0_19_160)">
<rect x="30.4" y="0.4" width="28.2" height="28.2" rx="2.6" fill="#A0A0A9" stroke="black" stroke-width="0.8"/>
<path d="M44 20.963C44 21.5153 44.4477 21.963 45 21.963C45.5523 21.963 46 21.5153 46 20.963L44 20.963ZM45.7071 6.2929C45.3166 5.90237 44.6834 5.90237 44.2929 6.2929L37.9289 12.6569C37.5384 13.0474 37.5384 13.6805 37.9289 14.0711C38.3195 14.4616 38.9526 14.4616 39.3431 14.0711L45 8.41422L50.6569 14.0711C51.0474 14.4616 51.6805 14.4616 52.0711 14.0711C52.4616 13.6805 52.4616 13.0474 52.0711 12.6569L45.7071 6.2929ZM46 20.963L46 7L44 7L44 20.963L46 20.963Z" fill="black"/>
<rect x="88.6" y="30.4" width="28.2" height="28.2" rx="2.6" transform="rotate(90 88.6 30.4)" fill="#A0A0A9" stroke="black" stroke-width="0.8"/>
<path d="M68 43C67.4477 43 67 43.4477 67 44C67 44.5523 67.4477 45 68 45L68 43ZM82.6701 44.7071C83.0606 44.3166 83.0606 43.6834 82.6701 43.2929L76.3061 36.9289C75.9156 36.5384 75.2824 36.5384 74.8919 36.9289C74.5014 37.3195 74.5014 37.9526 74.8919 38.3431L80.5487 44L74.8919 49.6569C74.5014 50.0474 74.5014 50.6805 74.8919 51.0711C75.2824 51.4616 75.9156 51.4616 76.3061 51.0711L82.6701 44.7071ZM68 45L81.963 45L81.963 43L68 43L68 45Z" fill="black"/>
<rect x="58.6" y="58.6" width="28.2" height="28.2" rx="2.6" transform="rotate(-180 58.6 58.6)" fill="#A0A0A9" stroke="black" stroke-width="0.8"/>
<path d="M46 37C46 36.4477 45.5523 36 45 36C44.4477 36 44 36.4477 44 37L46 37ZM44.2929 51.6701C44.6834 52.0606 45.3166 52.0606 45.7071 51.6701L52.0711 45.3061C52.4616 44.9156 52.4616 44.2824 52.0711 43.8919C51.6805 43.5014 51.0474 43.5014 50.6569 43.8919L45 49.5487L39.3431 43.8919C38.9526 43.5014 38.3195 43.5014 37.9289 43.8919C37.5384 44.2824 37.5384 44.9156 37.9289 45.3061L44.2929 51.6701ZM44 37L44 50.963L46 50.963L46 37L44 37Z" fill="black"/>
<rect x="0.4" y="58.6" width="28.2" height="28.2" rx="2.6" transform="rotate(-90 0.4 58.6)" fill="#A0A0A9" stroke="black" stroke-width="0.8"/>
<path d="M20.963 45C21.5152 45 21.963 44.5523 21.963 44C21.963 43.4477 21.5152 43 20.963 43L20.963 45ZM6.29288 43.2929C5.90236 43.6834 5.90236 44.3166 6.29288 44.7071L12.6568 51.0711C13.0474 51.4616 13.6805 51.4616 14.0711 51.0711C14.4616 50.6805 14.4616 50.0474 14.0711 49.6569L8.4142 44L14.0711 38.3431C14.4616 37.9526 14.4616 37.3195 14.0711 36.9289C13.6805 36.5384 13.0474 36.5384 12.6568 36.9289L6.29288 43.2929ZM20.963 43L6.99999 43L6.99999 45L20.963 45L20.963 43Z" fill="black"/>
</g>
<defs>
<clipPath id="clip0_19_160">
<rect width="89" height="59" fill="white"/>
</clipPath>
</defs>
</svg>
