<svg width="89" height="59" viewBox="0 0 89 59" fill="none" xmlns="http://www.w3.org/2000/svg">
<path d="M45 1C33.9543 1 25 10.3572 25 21.9C25 29.6286 29.0153 36.375 34.9761 39.9891C36.6379 40.9967 37.6784 42.5426 37.7255 44.0985C37.7515 44.9566 38.325 45.69 39.1246 45.8875C39.9764 46.0978 40.8445 46.2634 41.7263 46.3818C42.5108 46.4872 43.1823 45.8305 43.1823 45.0039V33.196C42.4082 33.1065 41.6498 32.9605 40.9109 32.7618C39.9384 32.5002 39.353 31.4644 39.6033 30.4482C39.8536 29.4319 40.8448 28.8202 41.8173 29.0817C42.8326 29.3548 43.8988 29.5005 45.0004 29.5005C46.1021 29.5005 47.1683 29.3548 48.1836 29.0817C49.1561 28.8202 50.1473 29.4319 50.3976 30.4482C50.6479 31.4644 50.0625 32.5002 49.09 32.7618C48.3511 32.9605 47.5926 33.1065 46.8186 33.196V45.0038C46.8186 45.8304 47.4901 46.4871 48.2746 46.3817C49.1561 46.2633 50.0239 46.0978 50.8754 45.8875C51.675 45.69 52.2485 44.9566 52.2745 44.0985C52.3216 42.5426 53.3621 40.9967 55.0239 39.9891C60.9847 36.375 65 29.6286 65 21.9C65 10.3572 56.0457 1 45 1Z" fill="#E50914"/>
<path fill-rule="evenodd" clip-rule="evenodd" d="M37.7591 49.5124C37.9463 48.4815 38.8977 47.8043 39.8843 47.9998C41.54 48.328 43.2499 48.5001 45 48.5001C46.7501 48.5001 48.46 48.328 50.1157 47.9998C51.1023 47.8043 52.0537 48.4815 52.2409 49.5124C52.428 50.5434 51.78 51.5377 50.7934 51.7333C48.9154 52.1055 46.9786 52.3001 45 52.3001C43.0214 52.3001 41.0846 52.1055 39.2066 51.7333C38.22 51.5377 37.572 50.5434 37.7591 49.5124Z" fill="#E50914"/>
<path fill-rule="evenodd" clip-rule="evenodd" d="M39.5553 55.7047C39.6598 54.6611 40.5541 53.9035 41.5528 54.0127C42.6851 54.1365 43.8352 54.2 45 54.2C46.1648 54.2 47.3149 54.1365 48.4472 54.0127C49.4459 53.9035 50.3402 54.6611 50.4447 55.7047C50.5492 56.7483 49.8242 57.6829 48.8255 57.7921C47.5678 57.9296 46.2914 58 45 58C43.7086 58 42.4322 57.9296 41.1745 57.7921C40.1758 57.6829 39.4508 56.7483 39.5553 55.7047Z" fill="#E50914"/>
<path d="M34.9761 39.9891L34.7688 40.3312L34.7688 40.3312L34.9761 39.9891ZM37.7255 44.0985L37.3257 44.1106L37.3257 44.1106L37.7255 44.0985ZM39.1246 45.8875L39.0287 46.2758L39.0287 46.2758L39.1246 45.8875ZM43.1823 33.196H43.5823C43.5823 32.9928 43.43 32.822 43.2282 32.7986L43.1823 33.196ZM40.9109 32.7618L40.807 33.148L40.807 33.148L40.9109 32.7618ZM39.6033 30.4482L39.9917 30.5438L39.9917 30.5438L39.6033 30.4482ZM41.8173 29.0817L41.7134 29.468L41.7134 29.468L41.8173 29.0817ZM48.1836 29.0817L48.2875 29.468L48.2875 29.468L48.1836 29.0817ZM50.3976 30.4482L50.0092 30.5438L50.0092 30.5438L50.3976 30.4482ZM49.09 32.7618L49.1939 33.148L49.1939 33.148L49.09 32.7618ZM46.8186 33.196L46.7727 32.7986C46.5709 32.822 46.4186 32.9928 46.4186 33.196H46.8186ZM50.8754 45.8875L50.9713 46.2758L50.9713 46.2758L50.8754 45.8875ZM52.2745 44.0985L51.8747 44.0864L51.8747 44.0864L52.2745 44.0985ZM55.0239 39.9891L54.8165 39.6471L54.8165 39.6471L55.0239 39.9891ZM48.2746 46.3817L48.3279 46.7782L48.2746 46.3817ZM41.7263 46.3818L41.7795 45.9854L41.7263 46.3818ZM39.8843 47.9998L39.8065 48.3922L39.8843 47.9998ZM37.7591 49.5124L38.1527 49.5839L37.7591 49.5124ZM50.1157 47.9998L50.0379 47.6075L50.0379 47.6075L50.1157 47.9998ZM52.2409 49.5124L52.6344 49.441L52.2409 49.5124ZM50.7934 51.7333L50.8712 52.1256L50.8712 52.1256L50.7934 51.7333ZM39.2066 51.7333L39.2844 51.3409L39.2844 51.3409L39.2066 51.7333ZM41.5528 54.0127L41.5093 54.4103L41.5093 54.4103L41.5528 54.0127ZM39.5553 55.7047L39.9533 55.7445L39.9533 55.7445L39.5553 55.7047ZM48.4472 54.0127L48.4907 54.4103L48.4907 54.4103L48.4472 54.0127ZM48.8255 57.7921L48.7821 57.3944L48.7821 57.3944L48.8255 57.7921ZM41.1745 57.7921L41.2179 57.3944L41.2179 57.3944L41.1745 57.7921ZM25.4 21.9C25.4 10.5614 34.1916 1.4 45 1.4V0.6C33.717 0.6 24.6 10.1531 24.6 21.9H25.4ZM35.1835 39.6471C29.3422 36.1054 25.4 29.4887 25.4 21.9H24.6C24.6 29.7686 28.6884 36.6446 34.7688 40.3312L35.1835 39.6471ZM38.1253 44.0864C38.0731 42.3594 36.9269 40.7041 35.1835 39.6471L34.7688 40.3312C36.3488 41.2892 37.2838 42.7259 37.3257 44.1106L38.1253 44.0864ZM39.2205 45.4991C38.6053 45.3472 38.1462 44.7758 38.1253 44.0864L37.3257 44.1106C37.3568 45.1375 38.0447 46.0328 39.0287 46.2758L39.2205 45.4991ZM41.7795 45.9854C40.9122 45.8689 40.0584 45.7061 39.2205 45.4991L39.0287 46.2758C39.8945 46.4896 40.7768 46.6579 41.673 46.7783L41.7795 45.9854ZM43.5823 45.0039V33.196H42.7823V45.0039H43.5823ZM43.2282 32.7986C42.4739 32.7114 41.7348 32.5692 41.0148 32.3755L40.807 33.148C41.5647 33.3519 42.3426 33.5016 43.1363 33.5933L43.2282 32.7986ZM41.0148 32.3755C40.2659 32.1741 39.79 31.3625 39.9917 30.5438L39.2149 30.3525C38.916 31.5662 39.6109 32.8263 40.807 33.148L41.0148 32.3755ZM39.9917 30.5438C40.192 29.7306 40.9718 29.2685 41.7134 29.468L41.9212 28.6954C40.7178 28.3718 39.5152 29.1332 39.2149 30.3525L39.9917 30.5438ZM41.7134 29.468C42.7622 29.7501 43.8634 29.9005 45.0004 29.9005V29.1005C43.9343 29.1005 42.9029 28.9595 41.9212 28.6954L41.7134 29.468ZM45.0004 29.9005C46.1375 29.9005 47.2387 29.7501 48.2875 29.468L48.0797 28.6954C47.0979 28.9595 46.0666 29.1005 45.0004 29.1005V29.9005ZM48.2875 29.468C49.0291 29.2685 49.8089 29.7306 50.0092 30.5438L50.786 30.3525C50.4857 29.1332 49.2831 28.3718 48.0797 28.6954L48.2875 29.468ZM50.0092 30.5438C50.2109 31.3625 49.735 32.1741 48.9861 32.3755L49.1939 33.148C50.39 32.8263 51.0849 31.5662 50.786 30.3525L50.0092 30.5438ZM48.9861 32.3755C48.2661 32.5692 47.527 32.7114 46.7727 32.7986L46.8646 33.5933C47.6583 33.5016 48.4361 33.3519 49.1939 33.148L48.9861 32.3755ZM46.4186 33.196V45.0038H47.2186V33.196H46.4186ZM50.7795 45.4991C49.9419 45.706 49.0884 45.8688 48.2214 45.9853L48.3279 46.7782C49.2238 46.6578 50.1058 46.4895 50.9713 46.2758L50.7795 45.4991ZM51.8747 44.0864C51.8538 44.7758 51.3947 45.3472 50.7795 45.4991L50.9713 46.2758C51.9553 46.0328 52.6432 45.1375 52.6743 44.1106L51.8747 44.0864ZM54.8165 39.6471C53.0731 40.7041 51.9269 42.3594 51.8747 44.0864L52.6743 44.1106C52.7162 42.7259 53.6512 41.2892 55.2312 40.3312L54.8165 39.6471ZM64.6 21.9C64.6 29.4887 60.6578 36.1054 54.8165 39.6471L55.2312 40.3312C61.3116 36.6446 65.4 29.7686 65.4 21.9H64.6ZM45 1.4C55.8084 1.4 64.6 10.5614 64.6 21.9H65.4C65.4 10.1531 56.283 0.6 45 0.6V1.4ZM46.4186 45.0038C46.4186 46.0358 47.2685 46.9204 48.3279 46.7782L48.2214 45.9853C47.7118 46.0537 47.2186 45.625 47.2186 45.0038H46.4186ZM41.673 46.7783C42.7324 46.9205 43.5823 46.0359 43.5823 45.0039H42.7823C42.7823 45.6251 42.2891 46.0538 41.7795 45.9854L41.673 46.7783ZM39.9621 47.6075C38.741 47.3654 37.5898 48.2059 37.3656 49.441L38.1527 49.5839C38.3028 48.7571 39.0545 48.2431 39.8065 48.3922L39.9621 47.6075ZM45 48.1001C43.2762 48.1001 41.5923 47.9306 39.9621 47.6075L39.8065 48.3922C41.4877 48.7255 43.2236 48.9001 45 48.9001V48.1001ZM50.0379 47.6075C48.4077 47.9306 46.7238 48.1001 45 48.1001V48.9001C46.7764 48.9001 48.5124 48.7255 50.1935 48.3922L50.0379 47.6075ZM52.6344 49.441C52.4103 48.2059 51.259 47.3654 50.0379 47.6075L50.1935 48.3922C50.9455 48.2431 51.6972 48.7571 51.8473 49.5839L52.6344 49.441ZM50.8712 52.1256C52.0866 51.8847 52.8579 50.6719 52.6344 49.441L51.8473 49.5839C51.9982 50.4149 51.4733 51.1907 50.7156 51.3409L50.8712 52.1256ZM45 52.7001C47.0049 52.7001 48.9678 52.5029 50.8712 52.1256L50.7156 51.3409C48.8631 51.7081 46.9523 51.9001 45 51.9001V52.7001ZM39.1288 52.1256C41.0322 52.5029 42.9951 52.7001 45 52.7001V51.9001C43.0477 51.9001 41.1369 51.7081 39.2844 51.3409L39.1288 52.1256ZM37.3656 49.441C37.1421 50.6719 37.9134 51.8847 39.1288 52.1256L39.2844 51.3409C38.5267 51.1907 38.0018 50.4149 38.1527 49.5839L37.3656 49.441ZM41.5963 53.6151C40.3604 53.48 39.2823 54.4165 39.1573 55.6649L39.9533 55.7445C40.0373 54.9056 40.7478 54.3271 41.5093 54.4103L41.5963 53.6151ZM45 53.8C43.8497 53.8 42.7142 53.7373 41.5963 53.6151L41.5093 54.4103C42.6561 54.5357 43.8206 54.6 45 54.6V53.8ZM48.4037 53.6151C47.2858 53.7373 46.1503 53.8 45 53.8V54.6C46.1794 54.6 47.3439 54.5357 48.4907 54.4103L48.4037 53.6151ZM50.8427 55.6649C50.7177 54.4165 49.6396 53.48 48.4037 53.6151L48.4907 54.4103C49.2522 54.3271 49.9627 54.9056 50.0467 55.7445L50.8427 55.6649ZM48.869 58.1897C50.1016 58.055 50.9674 56.9108 50.8427 55.6649L50.0467 55.7445C50.1309 56.5859 49.5468 57.3108 48.7821 57.3944L48.869 58.1897ZM45 58.4C46.306 58.4 47.5968 58.3288 48.869 58.1897L48.7821 57.3944C47.5387 57.5304 46.2769 57.6 45 57.6V58.4ZM41.131 58.1897C42.4032 58.3288 43.694 58.4 45 58.4V57.6C43.7231 57.6 42.4613 57.5304 41.2179 57.3944L41.131 58.1897ZM39.1573 55.6649C39.0326 56.9108 39.8984 58.055 41.131 58.1897L41.2179 57.3944C40.4532 57.3108 39.8691 56.5859 39.9533 55.7445L39.1573 55.6649Z" fill="black"/>
<g clip-path="url(#clip0_42_255)">
<g filter="url(#filter0_d_42_255)">
<path d="M62.8564 40.0316C62.4542 39.8166 61.8375 39.292 60.9102 38.7088C60.387 38.3944 59.215 37.8763 58.7782 37.5344C58.4858 37.3386 58.2887 37.0295 58.2344 36.6819C58.1151 36.0281 58.5005 35.3876 59.134 35.1867C59.6424 35.0727 60.1731 35.1105 60.6602 35.2954C60.9949 35.4125 61.3194 35.5573 61.6301 35.7283C61.8576 35.8459 61.9267 35.9027 62.1847 36.0396C62.4427 36.1766 62.6459 36.3379 62.4254 36.0639C62.158 35.6356 61.7068 34.917 61.2464 34.301C60.8958 33.8331 60.8318 33.7631 60.5473 33.4191C60.2627 33.0751 60.0524 32.7747 59.7343 32.3799C59.4299 31.9884 59.1463 31.5813 58.8847 31.16C58.514 30.6373 58.3324 30.0039 58.3697 29.3642C58.5553 28.9219 58.9882 28.6342 59.4679 28.6345C60.0027 28.7525 60.4876 29.0339 60.8553 29.4398C61.3552 29.9182 61.7886 30.4616 62.1439 31.0553C62.6968 31.9038 63.5738 33.1115 63.705 33.3815C63.5545 33.0435 63.1733 32.3594 63.0949 32.0112C63.0098 31.6496 63.1183 31.2699 63.3815 31.0078C63.6164 30.8032 63.8959 30.6563 64.1976 30.5788C64.5072 30.5119 64.8306 30.5631 65.1044 30.7224C65.5533 31.1611 65.9227 31.6745 66.1959 32.2396C65.9969 31.7268 65.8615 31.1916 65.7928 30.6458C65.8496 30.3627 66.0035 30.1084 66.2279 29.9266C66.5053 29.737 66.8148 29.5992 67.1414 29.5199C67.4259 29.4924 67.7121 29.5521 67.9619 29.691C68.3711 30.0893 68.716 30.5488 68.9843 31.0529C69.0412 31.1808 68.8896 30.6681 68.9482 30.2589C68.9146 29.9024 69.0738 29.555 69.3657 29.3476C69.6577 29.1402 70.0382 29.1043 70.3638 29.2535C70.6894 29.4027 70.9106 29.7142 70.9442 30.0708C71.2086 30.6646 71.1964 30.6372 71.3754 31.0391C71.5544 31.4411 71.713 31.7974 71.8635 32.1354C72.0682 32.6848 72.2315 33.2488 72.3519 33.8226C72.3992 34.3566 72.3736 34.8947 72.2758 35.4218C72.0519 36.1126 71.9336 36.8332 71.9249 37.5593C71.9895 37.8894 72.0955 38.21 72.2403 38.5136C72.3657 38.7977 72.5284 39.064 72.7241 39.3052C72.3682 39.511 71.9915 39.6787 71.6004 39.8055C71.2198 39.9093 70.464 39.392 70.2476 39.2256C70.1364 39.134 69.9831 39.1132 69.8515 39.1718C69.7199 39.2304 69.6328 39.3583 69.6264 39.5022C69.58 39.9388 69.413 40.7685 69.1187 40.9433C68.5391 41.2889 67.2459 41.7771 66.2501 42.2204C66.2501 42.2204 66.0078 41.2337 65.4869 41.0716C64.9659 40.9095 64.4114 40.6966 64.0143 40.5669L62.8564 40.0316Z" fill="white"/>
<path fill-rule="evenodd" clip-rule="evenodd" d="M62.8564 40.0316C62.4542 39.8166 61.8375 39.292 60.9102 38.7088C60.387 38.3944 59.215 37.8763 58.7782 37.5344C58.4858 37.3386 58.2887 37.0295 58.2344 36.6819C58.1151 36.0281 58.5005 35.3876 59.134 35.1867C59.6424 35.0727 60.1731 35.1105 60.6602 35.2954C60.9949 35.4125 61.3194 35.5573 61.6301 35.7283C61.8576 35.8459 61.9267 35.9027 62.1847 36.0396C62.4427 36.1766 62.6459 36.3379 62.4254 36.0639C62.158 35.6356 61.7068 34.917 61.2464 34.301C60.8958 33.8331 60.8318 33.7631 60.5473 33.4191C60.2627 33.0751 60.0524 32.7747 59.7343 32.3799C59.4299 31.9884 59.1463 31.5813 58.8847 31.16C58.514 30.6373 58.3324 30.0039 58.3697 29.3642C58.5553 28.9219 58.9882 28.6342 59.4679 28.6345C60.0027 28.7525 60.4876 29.0339 60.8553 29.4398C61.3552 29.9182 61.7886 30.4616 62.1439 31.0553C62.6968 31.9038 63.5738 33.1115 63.705 33.3815C63.5545 33.0435 63.1733 32.3594 63.0949 32.0112C63.0098 31.6496 63.1183 31.2699 63.3815 31.0078C63.6164 30.8032 63.8959 30.6563 64.1976 30.5788C64.5072 30.5119 64.8306 30.5631 65.1044 30.7224C65.5533 31.1611 65.9227 31.6745 66.1959 32.2396C65.9969 31.7268 65.8615 31.1916 65.7928 30.6458C65.8496 30.3627 66.0035 30.1084 66.2279 29.9266C66.5053 29.737 66.8148 29.5992 67.1414 29.5199C67.4259 29.4924 67.7121 29.5521 67.9619 29.691C68.3711 30.0893 68.716 30.5488 68.9843 31.0529C69.0412 31.1808 68.8896 30.6681 68.9482 30.2589C68.9146 29.9024 69.0738 29.555 69.3657 29.3476C69.6577 29.1402 70.0382 29.1043 70.3638 29.2535C70.6894 29.4027 70.9106 29.7142 70.9442 30.0708C71.2086 30.6646 71.1964 30.6372 71.3754 31.0391C71.5544 31.4411 71.713 31.7974 71.8635 32.1354C72.0682 32.6848 72.2315 33.2488 72.3519 33.8226C72.3992 34.3566 72.3736 34.8947 72.2758 35.4218C72.0519 36.1126 71.9336 36.8332 71.9249 37.5593C71.9895 37.8894 72.0955 38.21 72.2403 38.5136C72.3657 38.7977 72.5284 39.064 72.7241 39.3052C72.3682 39.511 71.9915 39.6787 71.6004 39.8055C71.2198 39.9093 70.464 39.392 70.2476 39.2256C70.1364 39.134 69.9831 39.1132 69.8515 39.1718C69.7199 39.2304 69.6328 39.3583 69.6264 39.5022C69.58 39.9388 69.413 40.7685 69.1187 40.9433C68.5391 41.2889 67.2459 41.7771 66.2501 42.2204C66.2501 42.2204 66.0078 41.2337 65.4869 41.0716C64.9659 40.9095 64.4114 40.6966 64.0143 40.5669L62.8564 40.0316Z" stroke="black" stroke-width="0.75" stroke-linecap="round" stroke-linejoin="round"/>
<path d="M70.8253 37.0811L69.4214 33.9278C69.3373 33.739 69.1158 33.6543 68.9266 33.7385C68.7374 33.8228 68.6522 34.0441 68.7362 34.2328L70.1402 37.3862C70.2242 37.5749 70.4457 37.6597 70.6349 37.5754C70.8241 37.4912 70.9094 37.2699 70.8253 37.0811Z" fill="black"/>
<path d="M69.016 37.8853L67.593 34.7385C67.5081 34.5506 67.2863 34.4676 67.0976 34.5529C66.9089 34.6382 66.8247 34.8596 66.9096 35.0474L68.3326 38.1943C68.4175 38.3821 68.6394 38.4652 68.8281 38.3799C69.0168 38.2945 69.1009 38.0731 69.016 37.8853Z" fill="black"/>
<path d="M65.084 35.8642L66.5041 39.0045C66.5898 39.1941 66.8123 39.2787 67.001 39.1933C67.1897 39.108 67.2732 38.8851 67.1874 38.6955L65.7674 35.5552C65.6816 35.3655 65.4592 35.281 65.2705 35.3664C65.0818 35.4517 64.9983 35.6746 65.084 35.8642Z" fill="black"/>
</g>
</g>
<defs>
<filter id="filter0_d_42_255" x="57.0378" y="28.2595" width="16.8614" height="16.136" filterUnits="userSpaceOnUse" color-interpolation-filters="sRGB">
<feFlood flood-opacity="0" result="BackgroundImageFix"/>
<feColorMatrix in="SourceAlpha" type="matrix" values="0 0 0 0 0 0 0 0 0 0 0 0 0 0 0 0 0 0 127 0" result="hardAlpha"/>
<feOffset dy="1"/>
<feGaussianBlur stdDeviation="0.4"/>
<feColorMatrix type="matrix" values="0 0 0 0 0 0 0 0 0 0 0 0 0 0 0 0 0 0 0.5 0"/>
<feBlend mode="normal" in2="BackgroundImageFix" result="effect1_dropShadow_42_255"/>
<feBlend mode="normal" in="SourceGraphic" in2="effect1_dropShadow_42_255" result="shape"/>
</filter>
<clipPath id="clip0_42_255">
<rect width="22.2" height="21.6" fill="white" transform="translate(50 29.0296) rotate(-24)"/>
</clipPath>
</defs>
</svg>
