<svg width="89" height="59" viewBox="0 0 89 59" fill="none" xmlns="http://www.w3.org/2000/svg">
<g clip-path="url(#clip0_19_180)">
<path d="M72 14C65.3726 14 60 19.6143 60 26.54C60 31.1772 62.4092 35.225 65.9857 37.3935C66.9827 37.998 67.6071 38.9256 67.6353 39.8591C67.6509 40.374 67.995 40.814 68.4748 40.9325C68.9859 41.0587 69.5067 41.1581 70.0358 41.2291C70.5065 41.2923 70.9094 40.8983 70.9094 40.4024V33.3176C70.4449 33.2639 69.9899 33.1763 69.5465 33.0571C68.9631 32.9001 68.6118 32.2786 68.762 31.6689C68.9121 31.0592 69.5069 30.6921 70.0904 30.849C70.6995 31.0129 71.3393 31.1003 72.0003 31.1003C72.6612 31.1003 73.301 31.0129 73.9102 30.849C74.4936 30.6921 75.0884 31.0592 75.2386 31.6689C75.3887 32.2786 75.0375 32.9001 74.454 33.0571C74.0107 33.1763 73.5556 33.2639 73.0912 33.3176V40.4023C73.0912 40.8982 73.4941 41.2922 73.9648 41.229C74.4937 41.158 75.0143 41.0587 75.5252 40.9325C76.005 40.814 76.3491 40.374 76.3647 39.8591C76.3929 38.9256 77.0173 37.998 78.0143 37.3935C81.5908 35.225 84 31.1772 84 26.54C84 19.6143 78.6274 14 72 14Z" fill="#E50914"/>
<path fill-rule="evenodd" clip-rule="evenodd" d="M67.6555 43.1075C67.7678 42.4889 68.3386 42.0826 68.9306 42.1999C69.924 42.3968 70.95 42.5 72 42.5C73.05 42.5 74.076 42.3968 75.0694 42.1999C75.6614 42.0826 76.2322 42.4889 76.3445 43.1075C76.4568 43.726 76.068 44.3226 75.476 44.44C74.3493 44.6633 73.1872 44.78 72 44.78C70.8128 44.78 69.6507 44.6633 68.524 44.44C67.932 44.3226 67.5432 43.726 67.6555 43.1075Z" fill="#E50914"/>
<path fill-rule="evenodd" clip-rule="evenodd" d="M68.7332 46.8228C68.7959 46.1966 69.3325 45.7421 69.9317 45.8076C70.6111 45.8819 71.3011 45.92 72 45.92C72.6989 45.92 73.3889 45.8819 74.0683 45.8076C74.6675 45.7421 75.2041 46.1966 75.2668 46.8228C75.3295 47.449 74.8945 48.0097 74.2953 48.0752C73.5407 48.1577 72.7749 48.2 72 48.2C71.2251 48.2 70.4593 48.1577 69.7047 48.0752C69.1055 48.0097 68.6705 47.449 68.7332 46.8228Z" fill="#E50914"/>
<path d="M65.9857 37.3935L65.7783 37.7355L65.7783 37.7355L65.9857 37.3935ZM67.6353 39.8591L67.2355 39.8712L67.2355 39.8712L67.6353 39.8591ZM68.4748 40.9325L68.3789 41.3208L68.3789 41.3208L68.4748 40.9325ZM70.9094 33.3176H71.3094C71.3094 33.1144 71.1571 32.9436 70.9553 32.9202L70.9094 33.3176ZM69.5465 33.0571L69.4426 33.4433L69.4426 33.4433L69.5465 33.0571ZM68.762 31.6689L69.1504 31.7646L69.1504 31.7646L68.762 31.6689ZM70.0904 30.849L69.9865 31.2353L69.9865 31.2353L70.0904 30.849ZM73.9102 30.849L74.0141 31.2353L74.0141 31.2353L73.9102 30.849ZM75.2386 31.6689L74.8502 31.7646L74.8502 31.7646L75.2386 31.6689ZM74.454 33.0571L74.5579 33.4433L74.5579 33.4433L74.454 33.0571ZM73.0912 33.3176L73.0452 32.9202C72.8434 32.9436 72.6912 33.1144 72.6912 33.3176H73.0912ZM75.5252 40.9325L75.6211 41.3208L75.6211 41.3208L75.5252 40.9325ZM76.3647 39.8591L75.9649 39.847L75.9649 39.847L76.3647 39.8591ZM78.0143 37.3935L77.8069 37.0514L77.8069 37.0514L78.0143 37.3935ZM73.9648 41.229L74.018 41.6255L73.9648 41.229ZM70.0358 41.2291L70.089 40.8327L70.0358 41.2291ZM68.9306 42.1999L68.8528 42.5923L68.9306 42.1999ZM67.6555 43.1075L68.049 43.1789L67.6555 43.1075ZM75.0694 42.1999L74.9916 41.8075L74.9916 41.8075L75.0694 42.1999ZM76.3445 43.1075L76.7381 43.036L76.3445 43.1075ZM75.476 44.44L75.5538 44.8323L75.5538 44.8323L75.476 44.44ZM68.524 44.44L68.6017 44.0476L68.6017 44.0476L68.524 44.44ZM69.9317 45.8076L69.8882 46.2052L69.8882 46.2052L69.9317 45.8076ZM68.7332 46.8228L69.1312 46.8627L69.1312 46.8627L68.7332 46.8228ZM74.0683 45.8076L74.1118 46.2052L74.1118 46.2052L74.0683 45.8076ZM74.2953 48.0752L74.2519 47.6776L74.2519 47.6776L74.2953 48.0752ZM69.7047 48.0752L69.7481 47.6776L69.7047 48.0752ZM60.4 26.54C60.4 19.8185 65.6099 14.4 72 14.4V13.6C65.1353 13.6 59.6 19.4102 59.6 26.54H60.4ZM66.1931 37.0514C62.7361 34.9554 60.4 31.0372 60.4 26.54H59.6C59.6 31.3171 62.0823 35.4946 65.7783 37.7355L66.1931 37.0514ZM68.0351 39.847C68.0017 38.7423 67.2718 37.7055 66.1931 37.0514L65.7783 37.7355C66.6937 38.2905 67.2124 39.1088 67.2355 39.8712L68.0351 39.847ZM68.5707 40.5441C68.2753 40.4712 68.0456 40.1932 68.0351 39.847L67.2355 39.8712C67.2562 40.5548 67.7147 41.1568 68.3789 41.3208L68.5707 40.5441ZM70.089 40.8327C69.5744 40.7636 69.0678 40.6669 68.5707 40.5441L68.3789 41.3208C68.9039 41.4505 69.439 41.5526 69.9825 41.6255L70.089 40.8327ZM71.3094 40.4024V33.3176H70.5094V40.4024H71.3094ZM70.9553 32.9202C70.5106 32.8688 70.0749 32.785 69.6504 32.6708L69.4426 33.4433C69.9048 33.5677 70.3793 33.659 70.8634 33.7149L70.9553 32.9202ZM69.6504 32.6708C69.2905 32.574 69.0488 32.1768 69.1504 31.7646L68.3736 31.5732C68.1748 32.3804 68.6356 33.2263 69.4426 33.4433L69.6504 32.6708ZM69.1504 31.7646C69.2505 31.3578 69.6339 31.1405 69.9865 31.2353L70.1943 30.4628C69.3799 30.2437 68.5738 30.7605 68.3736 31.5732L69.1504 31.7646ZM69.9865 31.2353C70.6292 31.4082 71.3038 31.5003 72.0003 31.5003V30.7003C71.3747 30.7003 70.7699 30.6176 70.1943 30.4628L69.9865 31.2353ZM72.0003 31.5003C72.6967 31.5003 73.3713 31.4082 74.0141 31.2353L73.8063 30.4628C73.2306 30.6176 72.6258 30.7003 72.0003 30.7003V31.5003ZM74.0141 31.2353C74.3666 31.1405 74.75 31.3578 74.8502 31.7646L75.627 31.5732C75.4268 30.7605 74.6206 30.2437 73.8063 30.4628L74.0141 31.2353ZM74.8502 31.7646C74.9517 32.1768 74.71 32.574 74.3501 32.6708L74.5579 33.4433C75.365 33.2263 75.8258 32.3804 75.627 31.5732L74.8502 31.7646ZM74.3501 32.6708C73.9256 32.785 73.4899 32.8688 73.0452 32.9202L73.1371 33.7149C73.6212 33.659 74.0957 33.5677 74.5579 33.4433L74.3501 32.6708ZM72.6912 33.3176V40.4023H73.4912V33.3176H72.6912ZM75.4293 40.5441C74.9324 40.6669 74.426 40.7635 73.9115 40.8326L74.018 41.6255C74.5614 41.5525 75.0962 41.4504 75.6211 41.3208L75.4293 40.5441ZM75.9649 39.847C75.9544 40.1932 75.7247 40.4712 75.4293 40.5441L75.6211 41.3208C76.2853 41.1568 76.7438 40.5548 76.7645 39.8712L75.9649 39.847ZM77.8069 37.0514C76.7282 37.7055 75.9983 38.7423 75.9649 39.847L76.7645 39.8712C76.7876 39.1088 77.3063 38.2905 78.2217 37.7355L77.8069 37.0514ZM83.6 26.54C83.6 31.0372 81.2639 34.9554 77.8069 37.0514L78.2217 37.7355C81.9177 35.4946 84.4 31.3171 84.4 26.54H83.6ZM72 14.4C78.3901 14.4 83.6 19.8185 83.6 26.54H84.4C84.4 19.4102 78.8647 13.6 72 13.6V14.4ZM72.6912 40.4023C72.6912 41.1036 73.2724 41.7256 74.018 41.6255L73.9115 40.8326C73.7157 40.8589 73.4912 40.6928 73.4912 40.4023H72.6912ZM69.9825 41.6255C70.7281 41.7256 71.3094 41.1037 71.3094 40.4024H70.5094C70.5094 40.6929 70.2848 40.8589 70.089 40.8327L69.9825 41.6255ZM69.0084 41.8075C68.1819 41.6437 67.4112 42.2133 67.2619 43.036L68.049 43.1789C68.1243 42.7645 68.4954 42.5214 68.8528 42.5923L69.0084 41.8075ZM72 42.1C70.9762 42.1 69.9763 41.9994 69.0084 41.8075L68.8528 42.5923C69.8717 42.7942 70.9237 42.9 72 42.9V42.1ZM74.9916 41.8075C74.0237 41.9994 73.0238 42.1 72 42.1V42.9C73.0763 42.9 74.1283 42.7942 75.1472 42.5923L74.9916 41.8075ZM76.7381 43.036C76.5888 42.2133 75.8181 41.6437 74.9916 41.8075L75.1472 42.5923C75.5046 42.5214 75.8757 42.7645 75.951 43.1789L76.7381 43.036ZM75.5538 44.8323C76.3746 44.6696 76.8867 43.8545 76.7381 43.036L75.951 43.1789C76.027 43.5976 75.7613 43.9756 75.3983 44.0476L75.5538 44.8323ZM72 45.18C73.2135 45.18 74.4016 45.0607 75.5538 44.8323L75.3983 44.0476C74.2969 44.2659 73.1609 44.38 72 44.38V45.18ZM68.4462 44.8323C69.5984 45.0607 70.7866 45.18 72 45.18V44.38C70.8391 44.38 69.7031 44.2659 68.6017 44.0476L68.4462 44.8323ZM67.2619 43.036C67.1133 43.8545 67.6254 44.6696 68.4462 44.8323L68.6017 44.0476C68.2387 43.9756 67.973 43.5976 68.049 43.1789L67.2619 43.036ZM69.9752 45.41C69.1387 45.3185 68.4184 45.9521 68.3352 46.783L69.1312 46.8627C69.1734 46.4412 69.5262 46.1657 69.8882 46.2052L69.9752 45.41ZM72 45.52C71.3156 45.52 70.6401 45.4827 69.9752 45.41L69.8882 46.2052C70.582 46.2811 71.2865 46.32 72 46.32V45.52ZM74.0248 45.41C73.3599 45.4827 72.6844 45.52 72 45.52V46.32C72.7135 46.32 73.418 46.2811 74.1118 46.2052L74.0248 45.41ZM75.6648 46.783C75.5816 45.9521 74.8613 45.3185 74.0248 45.41L74.1118 46.2052C74.4738 46.1657 74.8266 46.4412 74.8688 46.8627L75.6648 46.783ZM74.3388 48.4729C75.172 48.3818 75.7478 47.6115 75.6648 46.783L74.8688 46.8627C74.9112 47.2866 74.6171 47.6377 74.2519 47.6776L74.3388 48.4729ZM72 48.6C72.7894 48.6 73.5697 48.5569 74.3388 48.4729L74.2519 47.6776C73.5116 47.7585 72.7603 47.8 72 47.8V48.6ZM69.6612 48.4729C70.4303 48.5569 71.2106 48.6 72 48.6V47.8C71.2397 47.8 70.4884 47.7585 69.7481 47.6776L69.6612 48.4729ZM68.3352 46.783C68.2522 47.6115 68.828 48.3818 69.6612 48.4729L69.7481 47.6776C69.3829 47.6377 69.0888 47.2866 69.1312 46.8627L68.3352 46.783Z" fill="black"/>
<rect x="0.4" y="41.2" width="23.8" height="56.2" rx="2.6" transform="rotate(-90 0.4 41.2)" fill="#A0A0A9" stroke="black" stroke-width="0.8"/>
<path d="M11.1768 24.655V28.15H14.9868V29.275H11.1768V32.875H15.4368V34H9.81176V23.53H15.4368V24.655H11.1768ZM21.4172 25.63C22.4172 25.63 23.2272 25.935 23.8472 26.545C24.4672 27.145 24.7772 28.015 24.7772 29.155V34H23.4272V29.35C23.4272 28.53 23.2222 27.905 22.8122 27.475C22.4022 27.035 21.8422 26.815 21.1322 26.815C20.4122 26.815 19.8372 27.04 19.4072 27.49C18.9872 27.94 18.7772 28.595 18.7772 29.455V34H17.4122V25.78H18.7772V26.95C19.0472 26.53 19.4122 26.205 19.8722 25.975C20.3422 25.745 20.8572 25.63 21.4172 25.63ZM28.5819 26.905V31.75C28.5819 32.15 28.6669 32.435 28.8369 32.605C29.0069 32.765 29.3019 32.845 29.7219 32.845H30.7269V34H29.4969C28.7369 34 28.1669 33.825 27.7869 33.475C27.4069 33.125 27.2169 32.55 27.2169 31.75V26.905H26.1519V25.78H27.2169V23.71H28.5819V25.78H30.7269V26.905H28.5819ZM39.7908 29.575C39.7908 29.835 39.7758 30.11 39.7458 30.4H33.1758C33.2258 31.21 33.5008 31.845 34.0008 32.305C34.5108 32.755 35.1258 32.98 35.8458 32.98C36.4358 32.98 36.9258 32.845 37.3158 32.575C37.7158 32.295 37.9958 31.925 38.1558 31.465H39.6258C39.4058 32.255 38.9658 32.9 38.3058 33.4C37.6458 33.89 36.8258 34.135 35.8458 34.135C35.0658 34.135 34.3658 33.96 33.7458 33.61C33.1358 33.26 32.6558 32.765 32.3058 32.125C31.9558 31.475 31.7808 30.725 31.7808 29.875C31.7808 29.025 31.9508 28.28 32.2908 27.64C32.6308 27 33.1058 26.51 33.7158 26.17C34.3358 25.82 35.0458 25.645 35.8458 25.645C36.6258 25.645 37.3158 25.815 37.9158 26.155C38.5158 26.495 38.9758 26.965 39.2958 27.565C39.6258 28.155 39.7908 28.825 39.7908 29.575ZM38.3808 29.29C38.3808 28.77 38.2658 28.325 38.0358 27.955C37.8058 27.575 37.4908 27.29 37.0908 27.1C36.7008 26.9 36.2658 26.8 35.7858 26.8C35.0958 26.8 34.5058 27.02 34.0158 27.46C33.5358 27.9 33.2608 28.51 33.1908 29.29H38.3808ZM42.8675 27.115C43.1075 26.645 43.4475 26.28 43.8875 26.02C44.3375 25.76 44.8825 25.63 45.5225 25.63V27.04H45.1625C43.6325 27.04 42.8675 27.87 42.8675 29.53V34H41.5025V25.78H42.8675V27.115Z" fill="black"/>
<g filter="url(#filter0_d_19_180)">
<path d="M45.67 47.88C45.39 47.52 45.04 46.79 44.43 45.88C44.08 45.38 43.22 44.43 42.96 43.94C42.7726 43.6422 42.7182 43.2797 42.81 42.94C42.967 42.2942 43.5796 41.8658 44.24 41.94C44.7508 42.0426 45.2202 42.293 45.59 42.66C45.8482 42.9032 46.0857 43.1674 46.3 43.45C46.46 43.65 46.5 43.73 46.68 43.96C46.86 44.19 46.98 44.42 46.89 44.08C46.82 43.58 46.7 42.74 46.53 41.99C46.4 41.42 46.37 41.33 46.25 40.9C46.13 40.47 46.06 40.11 45.93 39.62C45.8112 39.1386 45.7177 38.6512 45.65 38.16C45.524 37.5317 45.6157 36.8792 45.91 36.31C46.2594 35.9814 46.7719 35.8946 47.21 36.09C47.6506 36.4153 47.9791 36.8697 48.15 37.39C48.4121 38.0304 48.587 38.7031 48.67 39.39C48.83 40.39 49.14 41.85 49.15 42.15C49.15 41.78 49.08 41 49.15 40.65C49.2194 40.2851 49.473 39.9823 49.82 39.85C50.1178 39.7586 50.4329 39.7381 50.74 39.79C51.0501 39.8548 51.3247 40.0332 51.51 40.29C51.7417 40.8734 51.8703 41.4926 51.89 42.12C51.9168 41.5706 52.0108 41.0265 52.17 40.5C52.3371 40.2646 52.5812 40.0948 52.86 40.02C53.1906 39.9596 53.5294 39.9596 53.86 40.02C54.1311 40.1106 54.3683 40.2815 54.54 40.51C54.7518 41.0404 54.88 41.6004 54.92 42.17C54.92 42.31 54.99 41.78 55.21 41.43C55.3243 41.0906 55.6111 40.838 55.9621 40.7673C56.3132 40.6966 56.6754 40.8186 56.9121 41.0873C57.1489 41.356 57.2243 41.7306 57.11 42.07C57.11 42.72 57.11 42.69 57.11 43.13C57.11 43.57 57.11 43.96 57.11 44.33C57.0736 44.9152 56.9934 45.4968 56.87 46.07C56.696 46.5771 56.4538 47.0582 56.15 47.5C55.6645 48.04 55.2633 48.6502 54.96 49.31C54.8848 49.6378 54.8512 49.9738 54.86 50.31C54.859 50.6206 54.8994 50.93 54.98 51.23C54.5712 51.2732 54.1589 51.2732 53.75 51.23C53.36 51.17 52.88 50.39 52.75 50.15C52.6857 50.0211 52.554 49.9397 52.41 49.9397C52.266 49.9397 52.1343 50.0211 52.07 50.15C51.85 50.53 51.36 51.22 51.02 51.26C50.35 51.34 48.97 51.26 47.88 51.26C47.88 51.26 48.06 50.26 47.65 49.9C47.24 49.54 46.82 49.12 46.51 48.84L45.67 47.88Z" fill="white"/>
<path fill-rule="evenodd" clip-rule="evenodd" d="M45.67 47.88C45.39 47.52 45.04 46.79 44.43 45.88C44.08 45.38 43.22 44.43 42.96 43.94C42.7726 43.6422 42.7182 43.2797 42.81 42.94C42.967 42.2942 43.5796 41.8658 44.24 41.94C44.7508 42.0426 45.2202 42.293 45.59 42.66C45.8482 42.9032 46.0857 43.1674 46.3 43.45C46.46 43.65 46.5 43.73 46.68 43.96C46.86 44.19 46.98 44.42 46.89 44.08C46.82 43.58 46.7 42.74 46.53 41.99C46.4 41.42 46.37 41.33 46.25 40.9C46.13 40.47 46.06 40.11 45.93 39.62C45.8112 39.1386 45.7177 38.6512 45.65 38.16C45.524 37.5317 45.6157 36.8792 45.91 36.31C46.2594 35.9814 46.7719 35.8946 47.21 36.09C47.6506 36.4153 47.9791 36.8697 48.15 37.39C48.4121 38.0304 48.587 38.7031 48.67 39.39C48.83 40.39 49.14 41.85 49.15 42.15C49.15 41.78 49.08 41 49.15 40.65C49.2194 40.2851 49.473 39.9823 49.82 39.85C50.1178 39.7586 50.4329 39.7381 50.74 39.79C51.0501 39.8548 51.3247 40.0332 51.51 40.29C51.7417 40.8734 51.8703 41.4926 51.89 42.12C51.9168 41.5706 52.0108 41.0265 52.17 40.5C52.3371 40.2646 52.5812 40.0948 52.86 40.02C53.1906 39.9596 53.5294 39.9596 53.86 40.02C54.1311 40.1106 54.3683 40.2815 54.54 40.51C54.7518 41.0404 54.88 41.6004 54.92 42.17C54.92 42.31 54.99 41.78 55.21 41.43C55.3243 41.0906 55.6111 40.838 55.9621 40.7673C56.3132 40.6966 56.6754 40.8186 56.9121 41.0873C57.1489 41.356 57.2243 41.7306 57.11 42.07C57.11 42.72 57.11 42.69 57.11 43.13C57.11 43.57 57.11 43.96 57.11 44.33C57.0736 44.9152 56.9934 45.4968 56.87 46.07C56.696 46.5771 56.4538 47.0582 56.15 47.5C55.6645 48.04 55.2633 48.6502 54.96 49.31C54.8848 49.6378 54.8512 49.9738 54.86 50.31C54.859 50.6206 54.8994 50.93 54.98 51.23C54.5712 51.2732 54.1589 51.2732 53.75 51.23C53.36 51.17 52.88 50.39 52.75 50.15C52.6857 50.0211 52.554 49.9397 52.41 49.9397C52.266 49.9397 52.1343 50.0211 52.07 50.15C51.85 50.53 51.36 51.22 51.02 51.26C50.35 51.34 48.97 51.26 47.88 51.26C47.88 51.26 48.06 50.26 47.65 49.9C47.24 49.54 46.82 49.12 46.51 48.84L45.67 47.88Z" stroke="black" stroke-width="0.75" stroke-linecap="round" stroke-linejoin="round"/>
<path d="M54.15 48.4259V44.9741C54.15 44.7675 53.9821 44.6 53.775 44.6C53.5679 44.6 53.4 44.7675 53.4 44.9741V48.4259C53.4 48.6325 53.5679 48.8 53.775 48.8C53.9821 48.8 54.15 48.6325 54.15 48.4259Z" fill="black"/>
<path d="M52.17 48.4246L52.15 44.9711C52.1488 44.765 51.98 44.5988 51.7729 44.6C51.5658 44.6012 51.3988 44.7693 51.4 44.9754L51.42 48.4289C51.4212 48.6351 51.5901 48.8012 51.7972 48.8C52.0043 48.7988 52.1712 48.6308 52.17 48.4246Z" fill="black"/>
<path d="M49.4 44.979L49.42 48.4254C49.4212 48.6335 49.5901 48.8012 49.7972 48.8C50.0043 48.7988 50.1712 48.6291 50.17 48.421L50.15 44.9746C50.1488 44.7665 49.9799 44.5988 49.7728 44.6C49.5657 44.6012 49.3988 44.7709 49.4 44.979Z" fill="black"/>
</g>
<g clip-path="url(#clip1_19_180)">
<g filter="url(#filter1_d_19_180)">
<path d="M85.9231 49.0296C86.0985 49.4505 85.9299 51.0447 85 51.4142C84.0701 51.7837 82.882 51.4142 82.882 51.4142L80.726 47.1024L77 50.8284V34L88.4142 45.4142H84.1615C84.3702 45.8144 85.7003 48.4948 85.9231 49.0296Z" fill="black"/>
<path fill-rule="evenodd" clip-rule="evenodd" d="M78 36.4142V48.4142L81 45.4142L83.5 50.4142C83.5 50.4142 84.1763 50.63 84.5 50.4142C84.8237 50.1984 85.1457 49.7638 85 49.4142C84.3123 47.7638 82.5 44.4142 82.5 44.4142H86L78 36.4142Z" fill="white"/>
</g>
</g>
</g>
<defs>
<filter id="filter0_d_19_180" x="41.5914" y="35.6118" width="16.7461" height="17.8588" filterUnits="userSpaceOnUse" color-interpolation-filters="sRGB">
<feFlood flood-opacity="0" result="BackgroundImageFix"/>
<feColorMatrix in="SourceAlpha" type="matrix" values="0 0 0 0 0 0 0 0 0 0 0 0 0 0 0 0 0 0 127 0" result="hardAlpha"/>
<feOffset dy="1"/>
<feGaussianBlur stdDeviation="0.4"/>
<feColorMatrix type="matrix" values="0 0 0 0 0 0 0 0 0 0 0 0 0 0 0 0 0 0 0.5 0"/>
<feBlend mode="normal" in2="BackgroundImageFix" result="effect1_dropShadow_19_180"/>
<feBlend mode="normal" in="SourceGraphic" in2="effect1_dropShadow_19_180" result="shape"/>
</filter>
<filter id="filter1_d_19_180" x="75.2" y="33.2" width="15.0142" height="21.1785" filterUnits="userSpaceOnUse" color-interpolation-filters="sRGB">
<feFlood flood-opacity="0" result="BackgroundImageFix"/>
<feColorMatrix in="SourceAlpha" type="matrix" values="0 0 0 0 0 0 0 0 0 0 0 0 0 0 0 0 0 0 127 0" result="hardAlpha"/>
<feOffset dy="1"/>
<feGaussianBlur stdDeviation="0.9"/>
<feColorMatrix type="matrix" values="0 0 0 0 0 0 0 0 0 0 0 0 0 0 0 0 0 0 0.65 0"/>
<feBlend mode="normal" in2="BackgroundImageFix" result="effect1_dropShadow_19_180"/>
<feBlend mode="normal" in="SourceGraphic" in2="effect1_dropShadow_19_180" result="shape"/>
</filter>
<clipPath id="clip0_19_180">
<rect width="89" height="59" fill="white"/>
</clipPath>
<clipPath id="clip1_19_180">
<rect width="18" height="18" fill="white" transform="translate(73 34)"/>
</clipPath>
</defs>
</svg>
