<svg width="89" height="59" viewBox="0 0 89 59" fill="none" xmlns="http://www.w3.org/2000/svg">
<g clip-path="url(#clip0_42_229)">
<g filter="url(#filter0_d_42_229)">
<path d="M38.8733 3.73402C36.0792 5.27758 33.2852 6.82113 30.4912 8.36469C30.3275 8.3216 30.1637 8.27851 30 8.23546C30.3198 7.78054 30.4466 7.23554 30.991 6.88546C34.31 4.75107 37.6898 2.64402 41.1241 0.56498C42.4077 -0.212073 43.411 -0.196419 44.2142 0.666809C45.9422 2.52428 47.4932 4.43271 49.0155 6.34443C49.2335 6.61819 49.1169 7.19139 48.7596 7.33939C47.9078 7.69227 47.2757 7.26934 46.8671 6.8821C46.1153 6.16948 45.4463 5.43061 44.7366 4.70449C44.2798 4.23703 43.8121 3.77272 42.7778 3.34441C42.4572 4.29766 41.9466 5.24507 41.8479 6.20516C41.32 11.3393 42.9674 16.2804 46.6138 21.0118C47.7477 22.4831 49.3462 23.8057 52 24.7921C50.1574 25.2482 48.7928 24.9027 47.8628 24.2521C46.4531 23.2659 45.0279 22.2373 44.0871 21.1073C39.9642 16.1557 38.4861 10.9306 39.1995 5.51189C39.2707 4.97083 39.3734 4.43096 39.4614 3.89055C39.2654 3.83835 39.0693 3.78618 38.8733 3.73402Z" fill="#E50914"/>
</g>
<g filter="url(#filter1_d_42_229)">
<path d="M17.734 36.1267C19.2776 38.9208 20.8211 41.7148 22.3647 44.5088C22.3216 44.6725 22.2785 44.8363 22.2355 45C21.7805 44.6802 21.2355 44.5534 20.8855 44.009C18.7511 40.69 16.644 37.3102 14.565 33.8759C13.7879 32.5923 13.8036 31.589 14.6668 30.7858C16.5243 29.0578 18.4327 27.5068 20.3444 25.9845C20.6182 25.7665 21.1914 25.8831 21.3394 26.2404C21.6923 27.0922 21.2693 27.7243 20.8821 28.1329C20.1695 28.8847 19.4306 29.5537 18.7045 30.2634C18.237 30.7202 17.7727 31.1879 17.3444 32.2222C18.2977 32.5428 19.2451 33.0534 20.2052 33.1521C25.3393 33.68 30.2804 32.0326 35.0118 28.3862C36.4831 27.2523 37.8057 25.6538 38.7921 23C39.2482 24.8426 38.9027 26.2072 38.2521 27.1372C37.2659 28.5469 36.2373 29.9721 35.1073 30.9129C30.1557 35.0358 24.9306 36.5139 19.5119 35.8005C18.9708 35.7293 18.431 35.6266 17.8905 35.5386C17.8383 35.7346 17.7862 35.9307 17.734 36.1267Z" fill="#E50914"/>
</g>
<g filter="url(#filter2_d_42_229)">
<path d="M70.266 25.8733C68.7224 23.0792 67.1789 20.2852 65.6353 17.4912C65.6784 17.3275 65.7215 17.1637 65.7645 17C66.2195 17.3198 66.7645 17.4466 67.1145 17.991C69.2489 21.31 71.356 24.6898 73.435 28.1241C74.2121 29.4077 74.1964 30.411 73.3332 31.2142C71.4757 32.9422 69.5673 34.4932 67.6556 36.0155C67.3818 36.2335 66.8086 36.1169 66.6606 35.7596C66.3077 34.9078 66.7307 34.2757 67.1179 33.8671C67.8305 33.1153 68.5694 32.4463 69.2955 31.7366C69.763 31.2798 70.2273 30.8121 70.6556 29.7778C69.7023 29.4572 68.7549 28.9466 67.7948 28.8479C62.6607 28.32 57.7196 29.9674 52.9882 33.6138C51.5169 34.7477 50.1943 36.3462 49.2079 39C48.7518 37.1574 49.0973 35.7928 49.7479 34.8628C50.7341 33.4531 51.7627 32.0279 52.8927 31.0871C57.8443 26.9642 63.0694 25.4861 68.4881 26.1995C69.0292 26.2707 69.569 26.3734 70.1095 26.4614C70.1617 26.2654 70.2138 26.0693 70.266 25.8733Z" fill="#E50914"/>
</g>
<g filter="url(#filter3_d_42_229)">
<path d="M50.1267 55.266C52.9208 53.7224 55.7148 52.1789 58.5088 50.6353C58.6725 50.6784 58.8363 50.7215 59 50.7645C58.6802 51.2195 58.5534 51.7645 58.009 52.1145C54.69 54.2489 51.3102 56.356 47.8759 58.435C46.5923 59.2121 45.589 59.1964 44.7858 58.3332C43.0578 56.4757 41.5068 54.5673 39.9845 52.6556C39.7665 52.3818 39.8831 51.8086 40.2404 51.6606C41.0922 51.3077 41.7243 51.7307 42.1329 52.1179C42.8847 52.8305 43.5537 53.5694 44.2634 54.2955C44.7202 54.763 45.1879 55.2273 46.2222 55.6556C46.5428 54.7023 47.0534 53.7549 47.1521 52.7948C47.68 47.6607 46.0326 42.7196 42.3862 37.9882C41.2523 36.5169 39.6538 35.1943 37 34.2079C38.8426 33.7518 40.2072 34.0973 41.1372 34.7479C42.5469 35.7341 43.9721 36.7627 44.9129 37.8927C49.0358 42.8443 50.5139 48.0694 49.8005 53.4881C49.7293 54.0292 49.6266 54.569 49.5386 55.1095C49.7346 55.1617 49.9307 55.2138 50.1267 55.266Z" fill="#E50914"/>
</g>
<g clip-path="url(#clip1_42_229)">
<g filter="url(#filter4_d_42_229)">
<path d="M48.1014 37.787C47.676 37.6227 47 37.1772 46.0084 36.7113C45.4509 36.463 44.2244 36.0917 43.7492 35.8055C43.4352 35.6468 43.2018 35.3641 43.1056 35.0256C42.9075 34.3912 43.212 33.7085 43.8163 33.432C44.307 33.2568 44.8383 33.2297 45.3443 33.3538C45.6909 33.4293 46.0305 33.5335 46.3598 33.6653C46.5999 33.7543 46.6754 33.8023 46.9482 33.9068C47.2209 34.0112 47.4422 34.1465 47.19 33.9015C46.8725 33.5089 46.337 32.8507 45.805 32.2954C45.4 31.8738 45.3279 31.8121 45.0036 31.5053C44.6792 31.1985 44.4338 30.926 44.07 30.5729C43.7202 30.2215 43.3891 29.8519 43.0781 29.4657C42.6464 28.992 42.389 28.3855 42.3481 27.746C42.4783 27.2844 42.873 26.946 43.3491 26.8879C43.8943 26.9398 44.4099 27.16 44.8244 27.5181C45.3789 27.932 45.8752 28.4185 46.3002 28.9646C46.9524 29.7393 47.9701 30.8311 48.1332 31.0831C47.9426 30.766 47.4809 30.1334 47.3606 29.7974C47.2321 29.4489 47.2935 29.0587 47.5229 28.7666C47.7311 28.5349 47.9905 28.355 48.2806 28.2413C48.5797 28.1372 48.9069 28.1486 49.1981 28.2733C49.6972 28.6541 50.1263 29.1186 50.4663 29.6462C50.2063 29.1615 50.0067 28.6467 49.872 28.1134C49.894 27.8255 50.0157 27.5543 50.2162 27.3466C50.4685 27.1245 50.7589 26.95 51.0734 26.8315C51.3524 26.7696 51.6437 26.7939 51.9086 26.9013C52.3633 27.2469 52.7616 27.6608 53.0893 28.1285C53.1614 28.2485 52.9484 27.7582 52.9568 27.3448C52.8799 26.995 52.9956 26.6308 53.2601 26.3894C53.5247 26.148 53.8979 26.066 54.2393 26.1744C54.5806 26.2828 54.8382 26.5651 54.915 26.9149C55.2498 27.472 55.2343 27.4463 55.4609 27.8235C55.6876 28.2006 55.8884 28.5349 56.079 28.8521C56.3491 29.3724 56.5799 29.9123 56.7694 30.4671C56.8815 30.9915 56.9216 31.5286 56.8888 32.0637C56.7507 32.7766 56.7211 33.5063 56.801 34.2281C56.9053 34.5478 57.0495 34.8531 57.2303 35.1368C57.3894 35.4035 57.5834 35.6479 57.807 35.8635C57.4788 36.1112 57.1254 36.3235 56.7527 36.497C56.3875 36.6465 55.5743 36.2251 55.3393 36.0863C55.2178 36.009 55.063 36.007 54.9395 36.0812C54.8161 36.1554 54.7451 36.293 54.7564 36.4366C54.7635 36.8756 54.6989 37.7194 54.4281 37.9288C53.895 38.3425 52.6709 38.9846 51.7365 39.546C51.7365 39.546 51.3758 38.5962 50.8389 38.4987C50.3021 38.4013 49.7258 38.2576 49.3158 38.1773L48.1014 37.787Z" fill="white"/>
<path fill-rule="evenodd" clip-rule="evenodd" d="M48.1014 37.787C47.676 37.6227 47 37.1772 46.0084 36.7113C45.4509 36.463 44.2244 36.0917 43.7492 35.8055C43.4352 35.6468 43.2018 35.3641 43.1056 35.0256C42.9075 34.3912 43.212 33.7085 43.8163 33.432C44.307 33.2568 44.8383 33.2297 45.3443 33.3538C45.6909 33.4293 46.0305 33.5335 46.3598 33.6653C46.5999 33.7543 46.6754 33.8023 46.9482 33.9068C47.2209 34.0112 47.4422 34.1465 47.19 33.9015C46.8725 33.5089 46.337 32.8507 45.805 32.2954C45.4 31.8738 45.3279 31.8121 45.0036 31.5053C44.6792 31.1985 44.4338 30.926 44.07 30.5729C43.7202 30.2215 43.3891 29.8519 43.0781 29.4657C42.6464 28.992 42.389 28.3855 42.3481 27.746C42.4783 27.2844 42.873 26.946 43.3491 26.8879C43.8943 26.9398 44.4099 27.16 44.8244 27.5181C45.3789 27.932 45.8752 28.4185 46.3002 28.9646C46.9524 29.7393 47.9701 30.8311 48.1332 31.0831C47.9426 30.766 47.4809 30.1334 47.3606 29.7974C47.2321 29.4489 47.2935 29.0587 47.5229 28.7666C47.7311 28.5349 47.9905 28.355 48.2806 28.2413C48.5797 28.1372 48.9069 28.1486 49.1981 28.2733C49.6972 28.6541 50.1263 29.1186 50.4663 29.6462C50.2063 29.1615 50.0067 28.6467 49.872 28.1134C49.894 27.8255 50.0157 27.5543 50.2162 27.3466C50.4685 27.1245 50.7589 26.95 51.0734 26.8315C51.3524 26.7696 51.6437 26.7939 51.9086 26.9013C52.3633 27.2469 52.7616 27.6608 53.0893 28.1285C53.1614 28.2485 52.9484 27.7582 52.9568 27.3448C52.8799 26.995 52.9956 26.6308 53.2601 26.3894C53.5247 26.148 53.8979 26.066 54.2393 26.1744C54.5806 26.2828 54.8382 26.5651 54.915 26.9149C55.2498 27.472 55.2343 27.4463 55.4609 27.8235C55.6876 28.2006 55.8884 28.5349 56.079 28.8521C56.3491 29.3724 56.5799 29.9123 56.7694 30.4671C56.8815 30.9915 56.9216 31.5286 56.8888 32.0637C56.7507 32.7766 56.7211 33.5063 56.801 34.2281C56.9053 34.5478 57.0495 34.8531 57.2303 35.1368C57.3894 35.4035 57.5834 35.6479 57.807 35.8635C57.4788 36.1112 57.1254 36.3235 56.7527 36.497C56.3875 36.6465 55.5743 36.2251 55.3393 36.0863C55.2178 36.009 55.063 36.007 54.9395 36.0812C54.8161 36.1554 54.7451 36.293 54.7564 36.4366C54.7635 36.8756 54.6989 37.7194 54.4281 37.9288C53.895 38.3425 52.6709 38.9846 51.7365 39.546C51.7365 39.546 51.3758 38.5962 50.8389 38.4987C50.3021 38.4013 49.7258 38.2576 49.3158 38.1773L48.1014 37.787Z" stroke="black" stroke-width="0.75" stroke-linecap="round" stroke-linejoin="round"/>
<path d="M55.6513 33.8874L53.8735 30.9287C53.7671 30.7516 53.5369 30.6945 53.3594 30.8011C53.1819 30.9078 53.1242 31.1379 53.2306 31.315L55.0084 34.2737C55.1149 34.4508 55.345 34.5079 55.5226 34.4012C55.7001 34.2946 55.7577 34.0645 55.6513 33.8874Z" fill="black"/>
<path d="M53.9534 34.9061L52.1576 31.9562C52.0504 31.7801 51.8201 31.7247 51.6432 31.8323C51.4663 31.94 51.4098 32.17 51.5169 32.3461L53.3128 35.2961C53.42 35.4722 53.6503 35.5276 53.8272 35.4199C54.0041 35.3122 54.0606 35.0822 53.9534 34.9061Z" fill="black"/>
<path d="M49.8045 33.3793L51.5967 36.3231C51.7049 36.5009 51.936 36.5577 52.1129 36.45C52.2898 36.3423 52.3455 36.1109 52.2373 35.9331L50.4451 32.9893C50.3369 32.8115 50.1058 32.7547 49.9289 32.8624C49.752 32.9701 49.6963 33.2015 49.8045 33.3793Z" fill="black"/>
</g>
</g>
</g>
<defs>
<filter id="filter0_d_42_229" x="26" y="0" width="30" height="33" filterUnits="userSpaceOnUse" color-interpolation-filters="sRGB">
<feFlood flood-opacity="0" result="BackgroundImageFix"/>
<feColorMatrix in="SourceAlpha" type="matrix" values="0 0 0 0 0 0 0 0 0 0 0 0 0 0 0 0 0 0 127 0" result="hardAlpha"/>
<feOffset dy="4"/>
<feGaussianBlur stdDeviation="2"/>
<feComposite in2="hardAlpha" operator="out"/>
<feColorMatrix type="matrix" values="0 0 0 0 0 0 0 0 0 0 0 0 0 0 0 0 0 0 0.25 0"/>
<feBlend mode="normal" in2="BackgroundImageFix" result="effect1_dropShadow_42_229"/>
<feBlend mode="normal" in="SourceGraphic" in2="effect1_dropShadow_42_229" result="shape"/>
</filter>
<filter id="filter1_d_42_229" x="10" y="23" width="33" height="30" filterUnits="userSpaceOnUse" color-interpolation-filters="sRGB">
<feFlood flood-opacity="0" result="BackgroundImageFix"/>
<feColorMatrix in="SourceAlpha" type="matrix" values="0 0 0 0 0 0 0 0 0 0 0 0 0 0 0 0 0 0 127 0" result="hardAlpha"/>
<feOffset dy="4"/>
<feGaussianBlur stdDeviation="2"/>
<feComposite in2="hardAlpha" operator="out"/>
<feColorMatrix type="matrix" values="0 0 0 0 0 0 0 0 0 0 0 0 0 0 0 0 0 0 0.25 0"/>
<feBlend mode="normal" in2="BackgroundImageFix" result="effect1_dropShadow_42_229"/>
<feBlend mode="normal" in="SourceGraphic" in2="effect1_dropShadow_42_229" result="shape"/>
</filter>
<filter id="filter2_d_42_229" x="45" y="17" width="33" height="30" filterUnits="userSpaceOnUse" color-interpolation-filters="sRGB">
<feFlood flood-opacity="0" result="BackgroundImageFix"/>
<feColorMatrix in="SourceAlpha" type="matrix" values="0 0 0 0 0 0 0 0 0 0 0 0 0 0 0 0 0 0 127 0" result="hardAlpha"/>
<feOffset dy="4"/>
<feGaussianBlur stdDeviation="2"/>
<feComposite in2="hardAlpha" operator="out"/>
<feColorMatrix type="matrix" values="0 0 0 0 0 0 0 0 0 0 0 0 0 0 0 0 0 0 0.25 0"/>
<feBlend mode="normal" in2="BackgroundImageFix" result="effect1_dropShadow_42_229"/>
<feBlend mode="normal" in="SourceGraphic" in2="effect1_dropShadow_42_229" result="shape"/>
</filter>
<filter id="filter3_d_42_229" x="33" y="34" width="30" height="33" filterUnits="userSpaceOnUse" color-interpolation-filters="sRGB">
<feFlood flood-opacity="0" result="BackgroundImageFix"/>
<feColorMatrix in="SourceAlpha" type="matrix" values="0 0 0 0 0 0 0 0 0 0 0 0 0 0 0 0 0 0 127 0" result="hardAlpha"/>
<feOffset dy="4"/>
<feGaussianBlur stdDeviation="2"/>
<feComposite in2="hardAlpha" operator="out"/>
<feColorMatrix type="matrix" values="0 0 0 0 0 0 0 0 0 0 0 0 0 0 0 0 0 0 0.25 0"/>
<feBlend mode="normal" in2="BackgroundImageFix" result="effect1_dropShadow_42_229"/>
<feBlend mode="normal" in="SourceGraphic" in2="effect1_dropShadow_42_229" result="shape"/>
</filter>
<filter id="filter4_d_42_229" x="41.1731" y="25.7524" width="17.8089" height="15.9686" filterUnits="userSpaceOnUse" color-interpolation-filters="sRGB">
<feFlood flood-opacity="0" result="BackgroundImageFix"/>
<feColorMatrix in="SourceAlpha" type="matrix" values="0 0 0 0 0 0 0 0 0 0 0 0 0 0 0 0 0 0 127 0" result="hardAlpha"/>
<feOffset dy="1"/>
<feGaussianBlur stdDeviation="0.4"/>
<feColorMatrix type="matrix" values="0 0 0 0 0 0 0 0 0 0 0 0 0 0 0 0 0 0 0.5 0"/>
<feBlend mode="normal" in2="BackgroundImageFix" result="effect1_dropShadow_42_229"/>
<feBlend mode="normal" in="SourceGraphic" in2="effect1_dropShadow_42_229" result="shape"/>
</filter>
<clipPath id="clip0_42_229">
<rect width="89" height="59" fill="white"/>
</clipPath>
<clipPath id="clip1_42_229">
<rect width="22.2" height="21.6" fill="white" transform="translate(34 28.4338) rotate(-31)"/>
</clipPath>
</defs>
</svg>
