<svg width="89" height="59" viewBox="0 0 89 59" fill="none" xmlns="http://www.w3.org/2000/svg">
<g filter="url(#filter0_d_42_178)">
<path d="M44.2929 43.7071C44.6834 44.0976 45.3166 44.0976 45.7071 43.7071L52.0711 37.3431C52.4616 36.9526 52.4616 36.3195 52.0711 35.9289C51.6805 35.5384 51.0474 35.5384 50.6569 35.9289L45 41.5858L39.3431 35.9289C38.9526 35.5384 38.3195 35.5384 37.9289 35.9289C37.5384 36.3195 37.5384 36.9526 37.9289 37.3431L44.2929 43.7071ZM44 42V43H46V42H44Z" fill="#E50914"/>
</g>
<g filter="url(#filter1_d_42_178)">
<path d="M44.2929 48.7071C44.6834 49.0976 45.3166 49.0976 45.7071 48.7071L52.0711 42.3431C52.4616 41.9526 52.4616 41.3195 52.0711 40.9289C51.6805 40.5384 51.0474 40.5384 50.6569 40.9289L45 46.5858L39.3431 40.9289C38.9526 40.5384 38.3195 40.5384 37.9289 40.9289C37.5384 41.3195 37.5384 41.9526 37.9289 42.3431L44.2929 48.7071ZM44 47V48H46V47H44Z" fill="#E50914"/>
</g>
<g filter="url(#filter2_d_42_178)">
<path d="M26.2929 28.2929C25.9024 28.6834 25.9024 29.3166 26.2929 29.7071L32.6569 36.0711C33.0474 36.4616 33.6805 36.4616 34.0711 36.0711C34.4616 35.6805 34.4616 35.0474 34.0711 34.6569L28.4142 29L34.0711 23.3431C34.4616 22.9526 34.4616 22.3195 34.0711 21.9289C33.6805 21.5384 33.0474 21.5384 32.6569 21.9289L26.2929 28.2929ZM28 28H27V30H28V28Z" fill="#E50914"/>
</g>
<g filter="url(#filter3_d_42_178)">
<path d="M21.2929 28.2929C20.9024 28.6834 20.9024 29.3166 21.2929 29.7071L27.6569 36.0711C28.0474 36.4616 28.6805 36.4616 29.0711 36.0711C29.4616 35.6805 29.4616 35.0474 29.0711 34.6569L23.4142 29L29.0711 23.3431C29.4616 22.9526 29.4616 22.3195 29.0711 21.9289C28.6805 21.5384 28.0474 21.5384 27.6569 21.9289L21.2929 28.2929ZM23 28H22V30H23V28Z" fill="#E50914"/>
</g>
<g filter="url(#filter4_d_42_178)">
<path d="M45.7071 14.2929C45.3166 13.9024 44.6834 13.9024 44.2929 14.2929L37.9289 20.6569C37.5384 21.0474 37.5384 21.6805 37.9289 22.0711C38.3195 22.4616 38.9526 22.4616 39.3431 22.0711L45 16.4142L50.6569 22.0711C51.0474 22.4616 51.6805 22.4616 52.0711 22.0711C52.4616 21.6805 52.4616 21.0474 52.0711 20.6569L45.7071 14.2929ZM46 16V15H44V16H46Z" fill="#E50914"/>
</g>
<g filter="url(#filter5_d_42_178)">
<path d="M45.7071 9.29289C45.3166 8.90237 44.6834 8.90237 44.2929 9.29289L37.9289 15.6569C37.5384 16.0474 37.5384 16.6805 37.9289 17.0711C38.3195 17.4616 38.9526 17.4616 39.3431 17.0711L45 11.4142L50.6569 17.0711C51.0474 17.4616 51.6805 17.4616 52.0711 17.0711C52.4616 16.6805 52.4616 16.0474 52.0711 15.6569L45.7071 9.29289ZM46 11V10H44V11H46Z" fill="#E50914"/>
</g>
<g clip-path="url(#clip0_42_178)">
<g filter="url(#filter6_d_42_178)">
<path d="M54.1014 34.787C53.676 34.6227 53 34.1772 52.0084 33.7113C51.4509 33.463 50.2244 33.0917 49.7492 32.8055C49.4352 32.6468 49.2018 32.3641 49.1056 32.0256C48.9075 31.3912 49.212 30.7085 49.8163 30.432C50.307 30.2568 50.8383 30.2297 51.3443 30.3538C51.6909 30.4293 52.0305 30.5335 52.3598 30.6653C52.5999 30.7543 52.6754 30.8023 52.9482 30.9068C53.2209 31.0112 53.4422 31.1465 53.19 30.9015C52.8725 30.5089 52.337 29.8507 51.805 29.2954C51.4 28.8738 51.3279 28.8121 51.0036 28.5053C50.6792 28.1985 50.4338 27.926 50.07 27.5729C49.7202 27.2215 49.3891 26.8519 49.0781 26.4657C48.6464 25.992 48.389 25.3855 48.3481 24.746C48.4783 24.2844 48.873 23.946 49.3491 23.8879C49.8943 23.9398 50.4099 24.16 50.8244 24.5181C51.3789 24.932 51.8752 25.4185 52.3002 25.9646C52.9524 26.7393 53.9701 27.8311 54.1332 28.0831C53.9426 27.766 53.4809 27.1334 53.3606 26.7974C53.2321 26.4489 53.2935 26.0587 53.5229 25.7666C53.7311 25.5349 53.9905 25.355 54.2806 25.2413C54.5797 25.1372 54.9069 25.1486 55.1981 25.2733C55.6972 25.6541 56.1263 26.1186 56.4663 26.6462C56.2063 26.1615 56.0067 25.6467 55.872 25.1134C55.894 24.8255 56.0157 24.5543 56.2162 24.3466C56.4685 24.1245 56.7589 23.95 57.0734 23.8315C57.3524 23.7696 57.6437 23.7939 57.9086 23.9013C58.3633 24.2469 58.7616 24.6608 59.0893 25.1285C59.1614 25.2485 58.9484 24.7582 58.9568 24.3448C58.8799 23.995 58.9956 23.6308 59.2601 23.3894C59.5247 23.148 59.8979 23.066 60.2393 23.1744C60.5806 23.2828 60.8382 23.5651 60.915 23.9149C61.2498 24.472 61.2343 24.4463 61.4609 24.8235C61.6876 25.2006 61.8884 25.5349 62.079 25.8521C62.3491 26.3724 62.5799 26.9123 62.7694 27.4671C62.8815 27.9915 62.9216 28.5286 62.8888 29.0637C62.7507 29.7766 62.7211 30.5063 62.801 31.2281C62.9053 31.5478 63.0495 31.8531 63.2303 32.1368C63.3894 32.4035 63.5834 32.6479 63.807 32.8635C63.4788 33.1112 63.1254 33.3235 62.7527 33.497C62.3875 33.6465 61.5743 33.2251 61.3393 33.0863C61.2178 33.009 61.063 33.007 60.9395 33.0812C60.8161 33.1554 60.7451 33.293 60.7564 33.4366C60.7635 33.8756 60.6989 34.7194 60.4281 34.9288C59.895 35.3425 58.6709 35.9846 57.7365 36.546C57.7365 36.546 57.3758 35.5962 56.8389 35.4987C56.3021 35.4013 55.7258 35.2576 55.3158 35.1773L54.1014 34.787Z" fill="white"/>
<path fill-rule="evenodd" clip-rule="evenodd" d="M54.1014 34.787C53.676 34.6227 53 34.1772 52.0084 33.7113C51.4509 33.463 50.2244 33.0917 49.7492 32.8055C49.4352 32.6468 49.2018 32.3641 49.1056 32.0256C48.9075 31.3912 49.212 30.7085 49.8163 30.432C50.307 30.2568 50.8383 30.2297 51.3443 30.3538C51.6909 30.4293 52.0305 30.5335 52.3598 30.6653C52.5999 30.7543 52.6754 30.8023 52.9482 30.9068C53.2209 31.0112 53.4422 31.1465 53.19 30.9015C52.8725 30.5089 52.337 29.8507 51.805 29.2954C51.4 28.8738 51.3279 28.8121 51.0036 28.5053C50.6792 28.1985 50.4338 27.926 50.07 27.5729C49.7202 27.2215 49.3891 26.8519 49.0781 26.4657C48.6464 25.992 48.389 25.3855 48.3481 24.746C48.4783 24.2844 48.873 23.946 49.3491 23.8879C49.8943 23.9398 50.4099 24.16 50.8244 24.5181C51.3789 24.932 51.8752 25.4185 52.3002 25.9646C52.9524 26.7393 53.9701 27.8311 54.1332 28.0831C53.9426 27.766 53.4809 27.1334 53.3606 26.7974C53.2321 26.4489 53.2935 26.0587 53.5229 25.7666C53.7311 25.5349 53.9905 25.355 54.2806 25.2413C54.5797 25.1372 54.9069 25.1486 55.1981 25.2733C55.6972 25.6541 56.1263 26.1186 56.4663 26.6462C56.2063 26.1615 56.0067 25.6467 55.872 25.1134C55.894 24.8255 56.0157 24.5543 56.2162 24.3466C56.4685 24.1245 56.7589 23.95 57.0734 23.8315C57.3524 23.7696 57.6437 23.7939 57.9086 23.9013C58.3633 24.2469 58.7616 24.6608 59.0893 25.1285C59.1614 25.2485 58.9484 24.7582 58.9568 24.3448C58.8799 23.995 58.9956 23.6308 59.2601 23.3894C59.5247 23.148 59.8979 23.066 60.2393 23.1744C60.5806 23.2828 60.8382 23.5651 60.915 23.9149C61.2498 24.472 61.2343 24.4463 61.4609 24.8235C61.6876 25.2006 61.8884 25.5349 62.079 25.8521C62.3491 26.3724 62.5799 26.9123 62.7694 27.4671C62.8815 27.9915 62.9216 28.5286 62.8888 29.0637C62.7507 29.7766 62.7211 30.5063 62.801 31.2281C62.9053 31.5478 63.0495 31.8531 63.2303 32.1368C63.3894 32.4035 63.5834 32.6479 63.807 32.8635C63.4788 33.1112 63.1254 33.3235 62.7527 33.497C62.3875 33.6465 61.5743 33.2251 61.3393 33.0863C61.2178 33.009 61.063 33.007 60.9395 33.0812C60.8161 33.1554 60.7451 33.293 60.7564 33.4366C60.7635 33.8756 60.6989 34.7194 60.4281 34.9288C59.895 35.3425 58.6709 35.9846 57.7365 36.546C57.7365 36.546 57.3758 35.5962 56.8389 35.4987C56.3021 35.4013 55.7258 35.2576 55.3158 35.1773L54.1014 34.787Z" stroke="black" stroke-width="0.75" stroke-linecap="round" stroke-linejoin="round"/>
<path d="M61.6513 30.8874L59.8735 27.9287C59.7671 27.7516 59.5369 27.6945 59.3594 27.8011C59.1819 27.9078 59.1242 28.1379 59.2306 28.315L61.0084 31.2737C61.1149 31.4508 61.345 31.5079 61.5226 31.4012C61.7001 31.2946 61.7577 31.0645 61.6513 30.8874Z" fill="black"/>
<path d="M59.9534 31.9061L58.1576 28.9562C58.0504 28.7801 57.8201 28.7247 57.6432 28.8323C57.4663 28.94 57.4098 29.17 57.5169 29.3461L59.3128 32.2961C59.42 32.4722 59.6503 32.5276 59.8272 32.4199C60.0041 32.3122 60.0606 32.0822 59.9534 31.9061Z" fill="black"/>
<path d="M55.8045 30.3793L57.5967 33.3231C57.7049 33.5009 57.936 33.5577 58.1129 33.45C58.2898 33.3423 58.3455 33.1109 58.2373 32.9331L56.4451 29.9893C56.3369 29.8115 56.1058 29.7547 55.9289 29.8624C55.752 29.9701 55.6963 30.2015 55.8045 30.3793Z" fill="black"/>
</g>
</g>
<defs>
<filter id="filter0_d_42_178" x="33.636" y="35.636" width="22.7279" height="16.364" filterUnits="userSpaceOnUse" color-interpolation-filters="sRGB">
<feFlood flood-opacity="0" result="BackgroundImageFix"/>
<feColorMatrix in="SourceAlpha" type="matrix" values="0 0 0 0 0 0 0 0 0 0 0 0 0 0 0 0 0 0 127 0" result="hardAlpha"/>
<feOffset dy="4"/>
<feGaussianBlur stdDeviation="2"/>
<feComposite in2="hardAlpha" operator="out"/>
<feColorMatrix type="matrix" values="0 0 0 0 0 0 0 0 0 0 0 0 0 0 0 0 0 0 0.25 0"/>
<feBlend mode="normal" in2="BackgroundImageFix" result="effect1_dropShadow_42_178"/>
<feBlend mode="normal" in="SourceGraphic" in2="effect1_dropShadow_42_178" result="shape"/>
</filter>
<filter id="filter1_d_42_178" x="33.636" y="40.636" width="22.7279" height="16.364" filterUnits="userSpaceOnUse" color-interpolation-filters="sRGB">
<feFlood flood-opacity="0" result="BackgroundImageFix"/>
<feColorMatrix in="SourceAlpha" type="matrix" values="0 0 0 0 0 0 0 0 0 0 0 0 0 0 0 0 0 0 127 0" result="hardAlpha"/>
<feOffset dy="4"/>
<feGaussianBlur stdDeviation="2"/>
<feComposite in2="hardAlpha" operator="out"/>
<feColorMatrix type="matrix" values="0 0 0 0 0 0 0 0 0 0 0 0 0 0 0 0 0 0 0.25 0"/>
<feBlend mode="normal" in2="BackgroundImageFix" result="effect1_dropShadow_42_178"/>
<feBlend mode="normal" in="SourceGraphic" in2="effect1_dropShadow_42_178" result="shape"/>
</filter>
<filter id="filter2_d_42_178" x="22" y="21.636" width="16.364" height="22.7279" filterUnits="userSpaceOnUse" color-interpolation-filters="sRGB">
<feFlood flood-opacity="0" result="BackgroundImageFix"/>
<feColorMatrix in="SourceAlpha" type="matrix" values="0 0 0 0 0 0 0 0 0 0 0 0 0 0 0 0 0 0 127 0" result="hardAlpha"/>
<feOffset dy="4"/>
<feGaussianBlur stdDeviation="2"/>
<feComposite in2="hardAlpha" operator="out"/>
<feColorMatrix type="matrix" values="0 0 0 0 0 0 0 0 0 0 0 0 0 0 0 0 0 0 0.25 0"/>
<feBlend mode="normal" in2="BackgroundImageFix" result="effect1_dropShadow_42_178"/>
<feBlend mode="normal" in="SourceGraphic" in2="effect1_dropShadow_42_178" result="shape"/>
</filter>
<filter id="filter3_d_42_178" x="17" y="21.636" width="16.364" height="22.7279" filterUnits="userSpaceOnUse" color-interpolation-filters="sRGB">
<feFlood flood-opacity="0" result="BackgroundImageFix"/>
<feColorMatrix in="SourceAlpha" type="matrix" values="0 0 0 0 0 0 0 0 0 0 0 0 0 0 0 0 0 0 127 0" result="hardAlpha"/>
<feOffset dy="4"/>
<feGaussianBlur stdDeviation="2"/>
<feComposite in2="hardAlpha" operator="out"/>
<feColorMatrix type="matrix" values="0 0 0 0 0 0 0 0 0 0 0 0 0 0 0 0 0 0 0.25 0"/>
<feBlend mode="normal" in2="BackgroundImageFix" result="effect1_dropShadow_42_178"/>
<feBlend mode="normal" in="SourceGraphic" in2="effect1_dropShadow_42_178" result="shape"/>
</filter>
<filter id="filter4_d_42_178" x="33.636" y="14" width="22.7279" height="16.364" filterUnits="userSpaceOnUse" color-interpolation-filters="sRGB">
<feFlood flood-opacity="0" result="BackgroundImageFix"/>
<feColorMatrix in="SourceAlpha" type="matrix" values="0 0 0 0 0 0 0 0 0 0 0 0 0 0 0 0 0 0 127 0" result="hardAlpha"/>
<feOffset dy="4"/>
<feGaussianBlur stdDeviation="2"/>
<feComposite in2="hardAlpha" operator="out"/>
<feColorMatrix type="matrix" values="0 0 0 0 0 0 0 0 0 0 0 0 0 0 0 0 0 0 0.25 0"/>
<feBlend mode="normal" in2="BackgroundImageFix" result="effect1_dropShadow_42_178"/>
<feBlend mode="normal" in="SourceGraphic" in2="effect1_dropShadow_42_178" result="shape"/>
</filter>
<filter id="filter5_d_42_178" x="33.636" y="9" width="22.7279" height="16.364" filterUnits="userSpaceOnUse" color-interpolation-filters="sRGB">
<feFlood flood-opacity="0" result="BackgroundImageFix"/>
<feColorMatrix in="SourceAlpha" type="matrix" values="0 0 0 0 0 0 0 0 0 0 0 0 0 0 0 0 0 0 127 0" result="hardAlpha"/>
<feOffset dy="4"/>
<feGaussianBlur stdDeviation="2"/>
<feComposite in2="hardAlpha" operator="out"/>
<feColorMatrix type="matrix" values="0 0 0 0 0 0 0 0 0 0 0 0 0 0 0 0 0 0 0.25 0"/>
<feBlend mode="normal" in2="BackgroundImageFix" result="effect1_dropShadow_42_178"/>
<feBlend mode="normal" in="SourceGraphic" in2="effect1_dropShadow_42_178" result="shape"/>
</filter>
<filter id="filter6_d_42_178" x="47.1731" y="22.7524" width="17.8089" height="15.9686" filterUnits="userSpaceOnUse" color-interpolation-filters="sRGB">
<feFlood flood-opacity="0" result="BackgroundImageFix"/>
<feColorMatrix in="SourceAlpha" type="matrix" values="0 0 0 0 0 0 0 0 0 0 0 0 0 0 0 0 0 0 127 0" result="hardAlpha"/>
<feOffset dy="1"/>
<feGaussianBlur stdDeviation="0.4"/>
<feColorMatrix type="matrix" values="0 0 0 0 0 0 0 0 0 0 0 0 0 0 0 0 0 0 0.5 0"/>
<feBlend mode="normal" in2="BackgroundImageFix" result="effect1_dropShadow_42_178"/>
<feBlend mode="normal" in="SourceGraphic" in2="effect1_dropShadow_42_178" result="shape"/>
</filter>
<clipPath id="clip0_42_178">
<rect width="22.2" height="21.6" fill="white" transform="translate(40 25.4338) rotate(-31)"/>
</clipPath>
</defs>
</svg>
