<svg width="89" height="59" viewBox="0 0 89 59" fill="none" xmlns="http://www.w3.org/2000/svg">
<g clip-path="url(#clip0_42_229)">
<g filter="url(#filter0_d_42_229)">
<path d="M38.8733 3.73402C36.0792 5.27758 33.2852 6.82113 30.4912 8.36469C30.3275 8.3216 30.1637 8.27851 30 8.23546C30.3198 7.78054 30.4466 7.23554 30.991 6.88546C34.31 4.75107 37.6898 2.64402 41.1241 0.56498C42.4077 -0.212073 43.411 -0.196419 44.2142 0.666809C45.9422 2.52428 47.4932 4.43271 49.0155 6.34443C49.2335 6.61819 49.1169 7.19139 48.7596 7.33939C47.9078 7.69227 47.2757 7.26934 46.8671 6.8821C46.1153 6.16947 45.4463 5.43061 44.7366 4.70449C44.2798 4.23703 43.8121 3.77272 42.7778 3.34441C42.4572 4.29765 41.9466 5.24507 41.8479 6.20516C41.32 11.3393 42.9674 16.2804 46.6138 21.0118C47.7477 22.4831 49.3462 23.8057 52 24.7921C50.1574 25.2482 48.7928 24.9027 47.8628 24.2521C46.4531 23.2659 45.0279 22.2373 44.0871 21.1073C39.9642 16.1557 38.4861 10.9306 39.1995 5.51189C39.2707 4.97083 39.3734 4.43096 39.4614 3.89055C39.2654 3.83835 39.0693 3.78618 38.8733 3.73402Z" fill="#E50914"/>
</g>
<g filter="url(#filter1_d_42_229)">
<path d="M22.734 38.1267C24.2776 40.9208 25.8211 43.7148 27.3647 46.5088C27.3216 46.6725 27.2785 46.8363 27.2355 47C26.7805 46.6802 26.2355 46.5534 25.8855 46.009C23.7511 42.69 21.644 39.3102 19.565 35.8759C18.7879 34.5923 18.8036 33.589 19.6668 32.7858C21.5243 31.0578 23.4327 29.5068 25.3444 27.9845C25.6182 27.7665 26.1914 27.8831 26.3394 28.2404C26.6923 29.0922 26.2693 29.7243 25.8821 30.1329C25.1695 30.8847 24.4306 31.5537 23.7045 32.2634C23.237 32.7202 22.7727 33.1879 22.3444 34.2222C23.2977 34.5428 24.2451 35.0534 25.2052 35.1521C30.3393 35.68 35.2804 34.0326 40.0118 30.3862C41.4831 29.2523 42.8057 27.6538 43.7921 25C44.2482 26.8426 43.9027 28.2072 43.2521 29.1372C42.2659 30.5469 41.2373 31.9721 40.1073 32.9129C35.1557 37.0358 29.9306 38.5139 24.5119 37.8005C23.9708 37.7293 23.431 37.6266 22.8905 37.5386C22.8383 37.7346 22.7862 37.9307 22.734 38.1267Z" fill="#E50914"/>
</g>
<g filter="url(#filter2_d_42_229)">
<path d="M57.1267 55.266C59.9208 53.7224 62.7148 52.1789 65.5088 50.6353C65.6725 50.6784 65.8363 50.7215 66 50.7645C65.6802 51.2195 65.5534 51.7645 65.009 52.1145C61.69 54.2489 58.3102 56.356 54.8759 58.435C53.5923 59.2121 52.589 59.1964 51.7858 58.3332C50.0578 56.4757 48.5068 54.5673 46.9845 52.6556C46.7665 52.3818 46.8831 51.8086 47.2404 51.6606C48.0922 51.3077 48.7243 51.7307 49.1329 52.1179C49.8847 52.8305 50.5537 53.5694 51.2634 54.2955C51.7202 54.763 52.1879 55.2273 53.2222 55.6556C53.5428 54.7023 54.0534 53.7549 54.1521 52.7948C54.68 47.6607 53.0326 42.7196 49.3862 37.9882C48.2523 36.5169 46.6538 35.1943 44 34.2079C45.8426 33.7518 47.2072 34.0973 48.1372 34.7479C49.5469 35.7341 50.9721 36.7627 51.9129 37.8927C56.0358 42.8443 57.5139 48.0694 56.8005 53.4881C56.7293 54.0292 56.6266 54.569 56.5386 55.1095C56.7346 55.1617 56.9307 55.2138 57.1267 55.266Z" fill="#E50914"/>
</g>
<g clip-path="url(#clip1_42_229)">
<g filter="url(#filter3_d_42_229)">
<path d="M55.1014 38.787C54.676 38.6227 54 38.1772 53.0084 37.7113C52.4509 37.463 51.2244 37.0917 50.7492 36.8055C50.4352 36.6468 50.2018 36.3641 50.1056 36.0256C49.9075 35.3912 50.212 34.7085 50.8163 34.432C51.307 34.2568 51.8383 34.2297 52.3443 34.3538C52.6909 34.4293 53.0305 34.5335 53.3598 34.6653C53.5999 34.7543 53.6754 34.8023 53.9482 34.9068C54.2209 35.0112 54.4422 35.1465 54.19 34.9015C53.8725 34.5089 53.337 33.8507 52.805 33.2954C52.4 32.8738 52.3279 32.8121 52.0036 32.5053C51.6792 32.1985 51.4338 31.926 51.07 31.5729C50.7202 31.2215 50.3891 30.8519 50.0781 30.4657C49.6464 29.992 49.389 29.3855 49.3481 28.746C49.4783 28.2844 49.873 27.946 50.3491 27.8879C50.8943 27.9398 51.4099 28.16 51.8244 28.5181C52.3789 28.932 52.8752 29.4185 53.3002 29.9646C53.9524 30.7393 54.9701 31.8311 55.1332 32.0831C54.9426 31.766 54.4809 31.1334 54.3606 30.7974C54.2321 30.4489 54.2935 30.0587 54.5229 29.7666C54.7311 29.5349 54.9905 29.355 55.2806 29.2413C55.5797 29.1372 55.9069 29.1486 56.1981 29.2733C56.6972 29.6541 57.1263 30.1186 57.4663 30.6462C57.2063 30.1615 57.0067 29.6467 56.872 29.1134C56.894 28.8255 57.0157 28.5543 57.2162 28.3466C57.4685 28.1245 57.7589 27.95 58.0734 27.8315C58.3524 27.7696 58.6437 27.7939 58.9086 27.9013C59.3633 28.2469 59.7616 28.6608 60.0893 29.1285C60.1614 29.2485 59.9484 28.7582 59.9568 28.3448C59.8799 27.995 59.9956 27.6308 60.2601 27.3894C60.5247 27.148 60.8979 27.066 61.2393 27.1744C61.5806 27.2828 61.8382 27.5651 61.915 27.9149C62.2498 28.472 62.2343 28.4463 62.4609 28.8235C62.6876 29.2006 62.8884 29.5349 63.079 29.8521C63.3491 30.3724 63.5799 30.9123 63.7694 31.4671C63.8815 31.9915 63.9216 32.5286 63.8888 33.0637C63.7507 33.7766 63.7211 34.5063 63.801 35.2281C63.9053 35.5478 64.0495 35.8531 64.2303 36.1368C64.3894 36.4035 64.5834 36.6479 64.807 36.8635C64.4788 37.1112 64.1254 37.3235 63.7527 37.497C63.3875 37.6465 62.5743 37.2251 62.3393 37.0863C62.2178 37.009 62.063 37.007 61.9395 37.0812C61.8161 37.1554 61.7451 37.293 61.7564 37.4366C61.7635 37.8756 61.6989 38.7194 61.4281 38.9288C60.895 39.3425 59.6709 39.9846 58.7365 40.546C58.7365 40.546 58.3758 39.5962 57.8389 39.4987C57.3021 39.4013 56.7258 39.2576 56.3158 39.1773L55.1014 38.787Z" fill="white"/>
<path fill-rule="evenodd" clip-rule="evenodd" d="M55.1014 38.787C54.676 38.6227 54 38.1772 53.0084 37.7113C52.4509 37.463 51.2244 37.0917 50.7492 36.8055C50.4352 36.6468 50.2018 36.3641 50.1056 36.0256C49.9075 35.3912 50.212 34.7085 50.8163 34.432C51.307 34.2568 51.8383 34.2297 52.3443 34.3538C52.6909 34.4293 53.0305 34.5335 53.3598 34.6653C53.5999 34.7543 53.6754 34.8023 53.9482 34.9068C54.2209 35.0112 54.4422 35.1465 54.19 34.9015C53.8725 34.5089 53.337 33.8507 52.805 33.2954C52.4 32.8738 52.3279 32.8121 52.0036 32.5053C51.6792 32.1985 51.4338 31.926 51.07 31.5729C50.7202 31.2215 50.3891 30.8519 50.0781 30.4657C49.6464 29.992 49.389 29.3855 49.3481 28.746C49.4783 28.2844 49.873 27.946 50.3491 27.8879C50.8943 27.9398 51.4099 28.16 51.8244 28.5181C52.3789 28.932 52.8752 29.4185 53.3002 29.9646C53.9524 30.7393 54.9701 31.8311 55.1332 32.0831C54.9426 31.766 54.4809 31.1334 54.3606 30.7974C54.2321 30.4489 54.2935 30.0587 54.5229 29.7666C54.7311 29.5349 54.9905 29.355 55.2806 29.2413C55.5797 29.1372 55.9069 29.1486 56.1981 29.2733C56.6972 29.6541 57.1263 30.1186 57.4663 30.6462C57.2063 30.1615 57.0067 29.6467 56.872 29.1134C56.894 28.8255 57.0157 28.5543 57.2162 28.3466C57.4685 28.1245 57.7589 27.95 58.0734 27.8315C58.3524 27.7696 58.6437 27.7939 58.9086 27.9013C59.3633 28.2469 59.7616 28.6608 60.0893 29.1285C60.1614 29.2485 59.9484 28.7582 59.9568 28.3448C59.8799 27.995 59.9956 27.6308 60.2601 27.3894C60.5247 27.148 60.8979 27.066 61.2393 27.1744C61.5806 27.2828 61.8382 27.5651 61.915 27.9149C62.2498 28.472 62.2343 28.4463 62.4609 28.8235C62.6876 29.2006 62.8884 29.5349 63.079 29.8521C63.3491 30.3724 63.5799 30.9123 63.7694 31.4671C63.8815 31.9915 63.9216 32.5286 63.8888 33.0637C63.7507 33.7766 63.7211 34.5063 63.801 35.2281C63.9053 35.5478 64.0495 35.8531 64.2303 36.1368C64.3894 36.4035 64.5834 36.6479 64.807 36.8635C64.4788 37.1112 64.1254 37.3235 63.7527 37.497C63.3875 37.6465 62.5743 37.2251 62.3393 37.0863C62.2178 37.009 62.063 37.007 61.9395 37.0812C61.8161 37.1554 61.7451 37.293 61.7564 37.4366C61.7635 37.8756 61.6989 38.7194 61.4281 38.9288C60.895 39.3425 59.6709 39.9846 58.7365 40.546C58.7365 40.546 58.3758 39.5962 57.8389 39.4987C57.3021 39.4013 56.7258 39.2576 56.3158 39.1773L55.1014 38.787Z" stroke="black" stroke-width="0.75" stroke-linecap="round" stroke-linejoin="round"/>
<path d="M62.6513 34.8874L60.8735 31.9287C60.7671 31.7516 60.5369 31.6945 60.3594 31.8011C60.1819 31.9078 60.1242 32.1379 60.2306 32.315L62.0084 35.2737C62.1149 35.4508 62.345 35.5079 62.5226 35.4012C62.7001 35.2946 62.7577 35.0645 62.6513 34.8874Z" fill="black"/>
<path d="M60.9534 35.9061L59.1576 32.9562C59.0504 32.7801 58.8201 32.7247 58.6432 32.8323C58.4663 32.94 58.4098 33.17 58.5169 33.3461L60.3128 36.2961C60.42 36.4722 60.6503 36.5276 60.8272 36.4199C61.0041 36.3122 61.0606 36.0822 60.9534 35.9061Z" fill="black"/>
<path d="M56.8045 34.3793L58.5967 37.3231C58.7049 37.5009 58.936 37.5577 59.1129 37.45C59.2898 37.3423 59.3455 37.1109 59.2373 36.9331L57.4451 33.9893C57.3369 33.8115 57.1058 33.7547 56.9289 33.8624C56.752 33.9701 56.6963 34.2015 56.8045 34.3793Z" fill="black"/>
</g>
</g>
</g>
<defs>
<filter id="filter0_d_42_229" x="26" y="0" width="30" height="33" filterUnits="userSpaceOnUse" color-interpolation-filters="sRGB">
<feFlood flood-opacity="0" result="BackgroundImageFix"/>
<feColorMatrix in="SourceAlpha" type="matrix" values="0 0 0 0 0 0 0 0 0 0 0 0 0 0 0 0 0 0 127 0" result="hardAlpha"/>
<feOffset dy="4"/>
<feGaussianBlur stdDeviation="2"/>
<feComposite in2="hardAlpha" operator="out"/>
<feColorMatrix type="matrix" values="0 0 0 0 0 0 0 0 0 0 0 0 0 0 0 0 0 0 0.25 0"/>
<feBlend mode="normal" in2="BackgroundImageFix" result="effect1_dropShadow_42_229"/>
<feBlend mode="normal" in="SourceGraphic" in2="effect1_dropShadow_42_229" result="shape"/>
</filter>
<filter id="filter1_d_42_229" x="15" y="25" width="33" height="30" filterUnits="userSpaceOnUse" color-interpolation-filters="sRGB">
<feFlood flood-opacity="0" result="BackgroundImageFix"/>
<feColorMatrix in="SourceAlpha" type="matrix" values="0 0 0 0 0 0 0 0 0 0 0 0 0 0 0 0 0 0 127 0" result="hardAlpha"/>
<feOffset dy="4"/>
<feGaussianBlur stdDeviation="2"/>
<feComposite in2="hardAlpha" operator="out"/>
<feColorMatrix type="matrix" values="0 0 0 0 0 0 0 0 0 0 0 0 0 0 0 0 0 0 0.25 0"/>
<feBlend mode="normal" in2="BackgroundImageFix" result="effect1_dropShadow_42_229"/>
<feBlend mode="normal" in="SourceGraphic" in2="effect1_dropShadow_42_229" result="shape"/>
</filter>
<filter id="filter2_d_42_229" x="40" y="34" width="30" height="33" filterUnits="userSpaceOnUse" color-interpolation-filters="sRGB">
<feFlood flood-opacity="0" result="BackgroundImageFix"/>
<feColorMatrix in="SourceAlpha" type="matrix" values="0 0 0 0 0 0 0 0 0 0 0 0 0 0 0 0 0 0 127 0" result="hardAlpha"/>
<feOffset dy="4"/>
<feGaussianBlur stdDeviation="2"/>
<feComposite in2="hardAlpha" operator="out"/>
<feColorMatrix type="matrix" values="0 0 0 0 0 0 0 0 0 0 0 0 0 0 0 0 0 0 0.25 0"/>
<feBlend mode="normal" in2="BackgroundImageFix" result="effect1_dropShadow_42_229"/>
<feBlend mode="normal" in="SourceGraphic" in2="effect1_dropShadow_42_229" result="shape"/>
</filter>
<filter id="filter3_d_42_229" x="48.1731" y="26.7524" width="17.8089" height="15.9686" filterUnits="userSpaceOnUse" color-interpolation-filters="sRGB">
<feFlood flood-opacity="0" result="BackgroundImageFix"/>
<feColorMatrix in="SourceAlpha" type="matrix" values="0 0 0 0 0 0 0 0 0 0 0 0 0 0 0 0 0 0 127 0" result="hardAlpha"/>
<feOffset dy="1"/>
<feGaussianBlur stdDeviation="0.4"/>
<feColorMatrix type="matrix" values="0 0 0 0 0 0 0 0 0 0 0 0 0 0 0 0 0 0 0.5 0"/>
<feBlend mode="normal" in2="BackgroundImageFix" result="effect1_dropShadow_42_229"/>
<feBlend mode="normal" in="SourceGraphic" in2="effect1_dropShadow_42_229" result="shape"/>
</filter>
<clipPath id="clip0_42_229">
<rect width="89" height="59" fill="white"/>
</clipPath>
<clipPath id="clip1_42_229">
<rect width="22.2" height="21.6" fill="white" transform="translate(41 29.4338) rotate(-31)"/>
</clipPath>
</defs>
</svg>
