<svg width="552" height="552" viewBox="0 0 552 552" fill="none" xmlns="http://www.w3.org/2000/svg">
<path d="M90 433.269L93.0996 428.929L239.723 150.717L240.033 147.771L175.398 26.3643C169.983 16.1943 154.738 18.7656 152.961 30.1502L90 433.269Z" fill="#FFC24A"/>
<path d="M91.8284 429.96L94.1731 425.388L239.261 150.091L174.787 28.1896C169.429 18.1262 155.822 20.6916 154.063 31.9568L91.8284 429.96Z" fill="#FFA712"/>
<path d="M287.153 239.605L335.278 190.317L287.139 98.4186C282.569 89.7198 269.809 89.6947 265.288 98.4186L239.569 147.469V151.647L287.153 239.605Z" fill="#F4BD62"/>
<path d="M286.294 237.551L333.081 189.634L286.294 100.544C281.851 92.087 271.058 91.2009 266.662 99.6822L240.807 149.493L240.034 152.039L286.294 237.551Z" fill="#FFA50E"/>
<path d="M90 433.269L91.405 431.857L96.5097 429.782L284.129 242.86L286.506 236.389L239.703 147.202L90 433.269Z" fill="#F6820C"/>
<path d="M293.162 527.538L462.961 432.84L414.472 134.211C412.955 124.868 401.493 121.174 394.805 127.873L90 433.269L258.826 527.53C269.495 533.487 282.489 533.49 293.162 527.538Z" fill="#FDE068"/>
<path d="M461.44 432.045L413.319 135.684C411.813 126.412 402.281 122.575 395.645 129.223L91.8826 432.689L258.854 526.017C269.442 531.929 282.338 531.932 292.929 526.025L461.44 432.045Z" fill="#FCCA3F"/>
<path d="M293.162 524.748C282.489 530.7 269.495 530.697 258.826 524.74L91.3598 431.833L90 433.269L258.826 527.53C269.495 533.487 282.489 533.49 293.162 527.538L462.961 432.84L462.545 430.281L293.162 524.748Z" fill="#EEAB37"/>
<rect x="0.5" y="0.5" width="551" height="551" rx="4.5" stroke="#9747FF" stroke-dasharray="10 5"/>
</svg>
