<svg width="512" height="512" viewBox="0 0 512 512" fill="none" xmlns="http://www.w3.org/2000/svg">
<g id="Type=Flat, showSymbol=True, showText=True">
<g id="Union">
<path fill-rule="evenodd" clip-rule="evenodd" d="M233.581 261.921C238.354 249.838 243.568 236.644 241.9 224.521C240.855 216.936 235.909 208.693 230.481 205.239C230.379 205.177 230.121 204.982 229.845 204.773L229.844 204.772C229.515 204.523 229.159 204.255 229.009 204.166C224.991 201.839 218.559 199.878 214.081 199.417C190.992 197.049 177.218 207.308 169.301 221.128C166.186 226.557 164.123 232.487 162.515 238.77C160.737 245.731 159.462 254.171 160.48 261.839C161.091 266.432 163.615 272.96 167.265 276.766C175.311 285.152 190.276 285.049 206.838 284.935C208.78 284.922 210.746 284.908 212.724 284.908C218.499 284.908 232.347 284.793 236.526 284.684C237.876 284.644 241.751 268.876 241.405 268.366C241.253 268.186 240.207 268.204 238.612 268.23C236.719 268.261 234.052 268.305 231.193 268.047C231.951 266.046 232.759 264.001 233.58 261.923L233.581 261.921ZM219.311 245.705C218.912 247.024 218.515 248.336 218.152 249.626L217.751 251.048C216.177 256.639 214.6 262.239 212.724 267.267C210.522 267.254 208.345 267.292 206.225 267.328C195.144 267.518 185.62 267.681 182.191 260.482C179.885 255.63 180.923 249.062 182.191 242.841C183.895 234.462 185.523 228.376 190.334 223.164C194.053 219.141 203.409 214.208 213.403 217.737C216.721 218.91 221.864 224.494 222.223 230.627C222.488 235.199 220.881 240.513 219.311 245.705Z" fill="#21609B"/>
<path d="M484.24 207.443L505.159 207.558C505.159 207.558 466.267 260.258 463.092 264.553C462.789 264.96 462.442 265.376 462.081 265.809C461.209 266.853 460.26 267.988 459.699 269.303C457.69 273.977 455.628 284.23 455.628 284.23L436.488 284.325C436.488 284.325 439.466 273.638 439.343 267.945C439.269 264.542 438.057 261.141 436.842 257.734C436.282 256.164 435.722 254.592 435.273 253.018C433.834 247.97 431.88 238.091 431.88 238.091H451.557L454.271 248.947L484.24 207.443Z" fill="#21609B"/>
<path d="M450.859 233.722C450.859 233.722 448.49 220.885 444.63 218.558C441.404 216.617 434.769 216.807 427.992 217.001C425.933 217.06 423.86 217.119 421.866 217.119H408.615C407.492 217.119 406.431 217.109 405.434 217.099C399.062 217.039 395.29 217.003 394.563 219.772C391.971 229.665 380.993 284.23 380.993 284.23H398.634L410.168 234.02H419.667C430.66 234.02 450.859 233.722 450.859 233.722Z" fill="#21609B"/>
<path fill-rule="evenodd" clip-rule="evenodd" d="M377.092 257.144C377.092 257.144 381.374 238.105 379.128 230.004C378.999 229.543 378.874 229.043 378.746 228.529C378.319 226.819 377.854 224.957 377.092 223.898C373.395 218.74 365.822 216.949 360.808 216.434C347.489 215.07 336.402 218.632 330.275 223.219L329.952 223.46C328.242 224.735 326.803 225.808 325.526 227.29C325.037 227.859 324.508 228.497 324.054 229.155C323.874 229.409 323.679 229.627 323.483 229.844C323.251 230.103 323.017 230.362 322.811 230.682C322.465 231.208 322.107 232.02 321.718 232.9C321.474 233.452 321.218 234.032 320.947 234.583C320.406 235.682 319.892 236.966 319.474 238.008L319.419 238.146C315.742 247.332 311.99 264.478 315.348 273.427C315.844 274.751 316.949 276.426 317.329 276.936C317.496 277.16 317.658 277.397 317.82 277.634C318.118 278.07 318.415 278.504 318.741 278.855C320.58 280.837 323.301 282.235 326.204 282.926C340.908 286.435 370.307 284.962 370.307 284.962L373.91 269.004C373.91 269.004 353.107 269.941 343.167 268.678C342.985 268.655 342.762 268.631 342.509 268.605C340.696 268.412 337.282 268.05 335.418 266.419C333.572 264.805 331.395 260.984 332.99 258.501C333.874 257.119 336.845 257.138 339.917 257.158C340.781 257.164 341.653 257.169 342.489 257.144C354.735 256.77 377.092 257.144 377.092 257.144ZM360.638 236.056C363.054 239.787 362.504 243.011 362.504 243.011L336.212 242.841C336.212 242.841 335.914 231.483 351.242 231.965C356.67 232.134 358.576 232.874 360.638 236.056Z" fill="#21609B"/>
<path d="M315.32 216.956L298.215 217.057L286.002 267.945C286.002 267.945 279.245 267.993 277.182 267.945C270.668 267.796 268.531 267.579 267.004 264.553C265.755 262.079 266.407 259.081 267.109 255.848C267.311 254.922 267.516 253.976 267.682 253.018C269.766 241.009 274.773 216.956 274.773 216.956L257.051 217.119C257.051 217.119 253.679 232.568 252.077 240.126C251.756 241.638 251.384 243.251 250.996 244.933C248.643 255.134 245.703 267.881 250.042 276.087C254.568 284.64 264.405 284.478 275.926 284.288C277.667 284.259 279.447 284.23 281.252 284.23H300.93C305.788 262.178 315.32 216.956 315.32 216.956Z" fill="#21609B"/>
<path d="M157.168 223.573C156.476 226.892 155.775 230.254 155.052 233.342H136.054C136.639 231.081 137.17 228.826 137.689 226.618L137.69 226.617C138.477 223.272 139.238 220.037 140.125 217.057C143.093 217.057 145.959 217.077 148.893 217.097C151.967 217.118 155.117 217.139 158.533 217.139C158.079 219.204 157.625 221.38 157.168 223.573Z" fill="#21609B"/>
<path d="M135.375 238.091H153.694C151.299 251.35 146.557 272.736 142.839 287.622L142.65 288.378C140.423 297.307 138.786 303.871 132.66 308.655C132.386 308.87 132.169 308.931 131.964 308.988C131.747 309.048 131.545 309.105 131.304 309.334C130.143 310.441 124.776 311.723 121.805 312.048C118.271 312.43 114.4 312.29 110.252 312.139L110.25 312.139C108.728 312.084 107.168 312.027 105.575 311.994C106.41 308.942 107.304 305.561 108.167 302.296C108.91 299.486 109.63 296.761 110.271 294.407C122.869 295.931 124.778 285.763 126.91 274.412C127.227 272.724 127.549 271.009 127.911 269.303C129.533 261.69 134.446 241.145 135.375 238.091Z" fill="#21609B"/>
<path d="M82.4517 240.527C85.5734 239.862 92.6433 234.543 93.8713 231.727C83.7055 238.645 77.2416 236.705 73.9828 235.727C73.844 235.686 73.7111 235.646 73.5839 235.608C72.8981 235.412 71.3109 234.699 69.832 233.81L69.5293 233.629C66.4454 231.777 64.8461 230.817 62.3684 227.215C60.9632 225.173 59.559 221.929 59.0983 220.07C58.3378 216.996 58.5485 212.267 59.9939 208.196C55.196 212.478 54.4565 220.749 56.0648 226.217C56.2688 226.91 57.4086 229.63 58.0255 230.627C62.172 237.298 70.0897 243.16 82.4517 240.527Z" fill="#21609B"/>
<path d="M73.6316 259.125C81.53 259.179 89.78 255.488 94.6651 250.305C90.3911 261.154 78.0157 268.128 61.4189 265.91C47.5233 264.051 34.2858 250.067 32.9218 236.056C31.9247 225.858 35.4793 219.772 41.3356 212.39C39.3001 216.251 38.5396 219.229 38.35 221.128C36.1249 243.187 55.9706 259.01 73.6316 259.125Z" fill="#21609B"/>
<path d="M92.2369 273.713L92.6296 272.695C86.7273 278.646 77.1057 282.778 69.5606 283.551C38.166 286.767 5.87003 258.643 16.3528 225.824L16.7532 224.521C16.6411 224.521 17.0822 223.758 17.5233 222.995C17.9644 222.232 18.4055 221.468 18.2934 221.468C3.74647 235.547 5.00796 254.396 12.0041 267.945C16.8815 277.397 25.8116 286.244 36.4294 291.014C41.349 293.22 48.8806 295.248 56.7848 295.085C73.6928 294.733 85.5463 286.739 92.2369 273.713Z" fill="#21609B"/>
</g>
</g>
</svg>
